<?xml version="1.0" standalone="no"?>
<!DOCTYPE svg PUBLIC "-//W3C//DTD SVG 1.1//EN" "http://www.w3.org/Graphics/SVG/1.1/DTD/svg11.dtd" >
<svg xmlns="http://www.w3.org/2000/svg" xmlns:xlink="http://www.w3.org/1999/xlink" version="1.1">
<metadata>
Created by FontForge 20170731 at Fri May 10 23:46:05 2019
 By Aleksey,,,
Copyright (c) 2018 by Alfredo Marco Pradil. All rights reserved.
</metadata>
<defs>
<font id="HKGrotesk-SemiBoldItalic" horiz-adv-x="0" >
  <font-face 
    font-family="HK Grotesk SemiBold Italic"
    font-weight="600"
    font-style="italic"
    font-stretch="normal"
    units-per-em="1000"
    panose-1="0 0 7 0 0 0 0 0 0 0"
    ascent="800"
    descent="-200"
    x-height="493"
    cap-height="697"
    bbox="-719 -255 1367 1138"
    underline-thickness="43"
    underline-position="-205"
    slope="-11"
    unicode-range="U+0020-FB02"
  />
<missing-glyph horiz-adv-x="551" 
d="M24 0l92 472h406l-92 -472h-406zM77 45h317l75 382h-317z" />
    <glyph glyph-name="fi" unicode="fi" horiz-adv-x="536" 
d="M511 493l-96 -493h-103l81 415h-169l-80 -415h-103l80 415h-82l15 78h83l8 41q17 82 80.5 127t145.5 45q99 0 171 -51l-58 -69q-44 37 -115 37q-51 0 -83 -26.5t-41 -72.5l-5 -31h271z" />
    <glyph glyph-name="fl" unicode="fl" horiz-adv-x="578" 
d="M435 -9q-49 0 -72.5 28t-12.5 82l100 503q-35 19 -85 19t-81.5 -26.5t-39.5 -72.5l-6 -31h103l-15 -78h-103l-81 -415h-103l81 415h-81l15 78h81l9 41q16 82 79 127t144 45q59 0 97.5 -10.5t93.5 -41.5l-101 -534q-4 -20 2 -27.5t24 -7.5q21 0 45 8l-12 -89
q-49 -13 -81 -13z" />
    <glyph glyph-name="f_f" unicode="ff" horiz-adv-x="601" 
d="M41 0l80 415h-82l15 78h83l8 43q16 79 81.5 124.5t148.5 45.5q73 0 121 -33q50 33 110 33q43 0 85 -21l-47 -81q-16 10 -37 10q-30 0 -51 -17t-28 -50l-10 -54h130l-15 -78h-130l-81 -415h-103l81 415h-176l-80 -415h-103zM240 493h176l14 74q6 26 17 42q-35 14 -74 14
q-52 0 -85.5 -27t-41.5 -71z" />
    <glyph glyph-name="f_f_i" unicode="ffi" horiz-adv-x="821" 
d="M41 0l80 415h-82l15 78h83l8 43q16 79 81.5 124.5t148.5 45.5q79 0 133 -41q60 41 141 41q100 0 172 -51l-59 -69q-44 37 -115 37q-51 0 -83 -26.5t-40 -72.5l-6 -31h279l-96 -493h-103l80 415h-175l-81 -415h-103l81 415h-176l-80 -415h-103zM240 493h175l8 41
q8 42 30 71q-36 18 -80 18q-52 0 -85.5 -27t-41.5 -71z" />
    <glyph glyph-name="f_f_l" unicode="ffl" horiz-adv-x="846" 
d="M703 -9q-49 0 -72.5 28t-13.5 82l101 508q-33 14 -71 14q-51 0 -83 -26.5t-40 -72.5l-6 -31h100l-16 -78h-99l-81 -415h-103l81 415h-176l-80 -415h-103l80 415h-82l15 78h83l8 43q16 79 81.5 124.5t148.5 45.5q79 0 133 -40q59 40 141 40q100 0 176 -54l-100 -532
q-4 -20 1.5 -27.5t23.5 -7.5q20 0 46 8l-13 -89q-49 -13 -80 -13zM240 493h175l8 41q10 44 29 72q-36 17 -79 17q-52 0 -85.5 -27t-41.5 -71z" />
    <glyph glyph-name="h_d_c_o.liga" unicode="hdco" horiz-adv-x="851" 
d="M446 -30q-158 0 -270 111.5t-112 270.5q0 158 112 269.5t270 111.5t270 -111.5t112 -269.5q0 -159 -112 -270.5t-270 -111.5zM446 5q144 0 245.5 101.5t101.5 245.5q0 143 -101.5 244.5t-245.5 101.5t-245 -101.5t-101 -244.5q0 -144 101 -245.5t245 -101.5zM247 202
q-7 0 -12 5t-5 12v265q0 7 5 12.5t12 5.5t12.5 -5t5.5 -13v-265q0 -17 -18 -17zM446 202q-17 0 -17 17v265q0 18 17 18t17 -18v-265q0 -17 -17 -17zM644 202q-7 0 -11 5l-133 132q-4 5 -4 13t4 12l132 130q6 7 13 7t12 -5t5 -12t-5 -12l-120 -120l120 -121q5 -5 5 -12
t-5.5 -12t-12.5 -5zM314 334q-17 0 -17 18q0 17 17 17h66q18 0 18 -17q0 -18 -18 -18h-66z" />
    <glyph glyph-name="hyphen_greater.liga" unicode="&#x2d;&#x3e;" horiz-adv-x="1097" 
d="M609 590l470 -293l-557 -292l-22 80l350 177l-847 -1l15 77h847l-303 190z" />
    <glyph glyph-name="less_hyphen.liga" unicode="&#x3c;&#x2d;" horiz-adv-x="1097" 
d="M1115 338l-15 -77h-847l303 -190l-47 -62l-471 293l558 292l22 -80l-350 -177z" />
    <glyph glyph-name=".notdef" horiz-adv-x="551" 
d="M24 0l92 472h406l-92 -472h-406zM77 45h317l75 382h-317z" />
    <glyph glyph-name=".null" 
 />
    <glyph glyph-name="nonmarkingreturn" horiz-adv-x="333" 
 />
    <glyph glyph-name="space" unicode=" " horiz-adv-x="253" 
 />
    <glyph glyph-name="exclam" unicode="!" horiz-adv-x="307" 
d="M106 206l84 491h102l-107 -491h-79zM49 0l24 123h112l-24 -123h-112z" />
    <glyph glyph-name="quotedbl" unicode="&#x22;" horiz-adv-x="434" 
d="M127 438l51 259h87l-51 -259h-87zM294 438l51 259h87l-51 -259h-87z" />
    <glyph glyph-name="numbersign" unicode="#" horiz-adv-x="681" 
d="M67 0l84 206h-117l14 74h133l59 148h-122l15 77h138l81 192h83l-82 -196h139l80 196h83l-83 -196h118l-15 -73h-133l-60 -148h124l-14 -74h-140l-84 -206h-82l84 206h-139l-82 -206h-82zM263 280h139l59 148h-139z" />
    <glyph glyph-name="dollar" unicode="$" horiz-adv-x="591" 
d="M248 501q0 -26 21 -46.5t53 -33t69 -29.5t69 -35t53 -50.5t21 -74.5q0 -21 -4 -41q-15 -80 -79 -133t-151 -64l-22 -110l-94 -1l22 114q-78 14 -125.5 66t-44.5 134l108 19q-4 -65 30.5 -96.5t95.5 -31.5t103 31t51 78q2 14 2 19q0 33 -29.5 57.5t-71 41t-83.5 36
t-71.5 54.5t-29.5 84q0 18 3 37q14 72 69 118.5t129 58.5l20 105h95l-20 -107q99 -21 136 -117l-97 -48q-24 75 -104 75q-45 0 -80 -27t-42 -68q-2 -12 -2 -15z" />
    <glyph glyph-name="percent" unicode="%" horiz-adv-x="745" 
d="M225 386q-60 0 -92.5 35t-32.5 92q0 80 49.5 136t124.5 56q58 0 91.5 -35.5t33.5 -92.5q0 -78 -50.5 -134.5t-123.5 -56.5zM80 0l547 697h79l-547 -697h-79zM235 456q38 0 65.5 32.5t27.5 75.5q0 31 -18 51t-47 20q-38 0 -65.5 -32t-27.5 -76q0 -31 17 -51t48 -20z
M510 -9q-60 0 -92.5 35t-32.5 92q0 80 49.5 136t124.5 56q58 0 91.5 -35.5t33.5 -92.5q0 -77 -50.5 -134t-123.5 -57zM520 61q38 0 65.5 32.5t27.5 75.5q0 31 -18 51t-47 20q-38 0 -65.5 -32.5t-27.5 -76.5q0 -31 17 -50.5t48 -19.5z" />
    <glyph glyph-name="ampersand" unicode="&#x26;" horiz-adv-x="681" 
d="M618 327q-26 -105 -98 -191l80 -116l-79 -55l-71 104q-106 -79 -228 -79q-87 0 -140.5 40t-53.5 113q0 75 50 127.5t137 97.5q7 4 23 12q-57 79 -57 150q0 77 61 126t142 49q72 0 121 -41.5t49 -107.5q0 -65 -48 -114t-131 -94l90 -132q41 59 56 130zM279 534
q0 -45 42 -113q64 32 101 64.5t37 71.5q0 31 -21 49t-56 18q-44 0 -73.5 -26.5t-29.5 -63.5zM226 78q94 0 174 65l-110 161l-28 -15q-30 -16 -48 -27.5t-41 -30.5t-34.5 -40t-11.5 -45q0 -68 99 -68z" />
    <glyph glyph-name="quotesingle" unicode="'" horiz-adv-x="267" 
d="M130 452l48 245h87l-48 -245h-87z" />
    <glyph glyph-name="parenleft" unicode="(" horiz-adv-x="280" 
d="M117 -50q-43 58 -54.5 177t11.5 230q53 261 194 393l95 -6q-164 -162 -210 -405q-24 -127 -11.5 -218t62.5 -177z" />
    <glyph glyph-name="parenright" unicode=")" horiz-adv-x="278" 
d="M-44 -49q84 87 134 181.5t75 221.5q45 237 -52 397l89 -6q93 -136 42 -406q-21 -109 -76 -223t-120 -171z" />
    <glyph glyph-name="asterisk" unicode="*" horiz-adv-x="425" 
d="M193 413l-60 47l92 82l-107 17l41 77l93 -43l6 104h83l-35 -104l109 43l10 -77l-112 -17l61 -82l-75 -47l-33 106z" />
    <glyph glyph-name="plus" unicode="+" horiz-adv-x="598" 
d="M219 54l41 212h-212l17 86h212l41 211h86l-41 -211h211l-17 -86h-211l-41 -212h-86z" />
    <glyph glyph-name="comma" unicode="," horiz-adv-x="312" 
d="M-10 -151l132 281h120l-183 -281h-69z" />
    <glyph glyph-name="hyphen" unicode="-" horiz-adv-x="425" 
d="M75 261l15 77h281l-15 -77h-281z" />
    <glyph glyph-name="period" unicode="." horiz-adv-x="311" 
d="M55 0l24 123h104l-24 -123h-104z" />
    <glyph glyph-name="slash" unicode="/" horiz-adv-x="436" 
d="M-101 -212l539 909h98l-539 -909h-98z" />
    <glyph glyph-name="zero" unicode="0" horiz-adv-x="580" 
d="M249 -9q-242 0 -169 365q10 52 22.5 94.5t36 92.5t53 84t76.5 57t104 23q54 0 92 -21t58 -55.5t27.5 -83t4.5 -99.5t-14 -109q-14 -70 -36 -128.5t-56 -110t-85 -80.5t-114 -29zM256 89q32 0 58.5 16t44 40t32.5 61.5t24 71.5t18 79q11 56 15 94.5t0 78t-25 59.5t-60 20
q-34 0 -61.5 -16t-45.5 -40t-33 -62t-23.5 -71.5t-17.5 -79.5q-7 -36 -10.5 -61t-6 -57t1.5 -53.5t13.5 -41t28.5 -29t47 -9.5z" />
    <glyph glyph-name="one" unicode="1" horiz-adv-x="580" 
d="M377 697h98l-135 -697h-102l97 505h-166l16 82h98q72 0 86 67z" />
    <glyph glyph-name="two" unicode="2" horiz-adv-x="580" 
d="M555 530q0 -63 -32.5 -129t-86 -121.5t-114.5 -101.5t-126 -81h308l-19 -97h-486l16 89q437 238 437 427q0 90 -96 90q-126 0 -161 -161l-99 16q20 104 91 174t178 70q85 0 137.5 -46.5t52.5 -128.5z" />
    <glyph glyph-name="three" unicode="3" horiz-adv-x="580" 
d="M249 -9q-104 0 -166.5 50t-62.5 132q0 22 5 47l101 -2q-3 -12 -3 -26q0 -49 37.5 -76t98.5 -27q74 0 123 39.5t49 100.5q0 30 -13.5 50t-39 29t-50.5 12.5t-58 3.5l11 83q77 -1 123.5 30t46.5 87q0 43 -28.5 63.5t-70.5 20.5q-55 0 -91.5 -31t-47.5 -84l-99 15
q18 93 86 145.5t158 52.5q83 0 140 -44.5t57 -119.5q0 -60 -36.5 -105t-100.5 -67q52 -18 83 -54.5t31 -86.5q0 -107 -81.5 -172.5t-201.5 -65.5z" />
    <glyph glyph-name="four" unicode="4" horiz-adv-x="580" 
d="M455 263h112l-20 -98h-112l-31 -165h-103l32 165h-333l10 63l437 469h92zM352 263l52 272l-246 -272h194z" />
    <glyph glyph-name="five" unicode="5" horiz-adv-x="580" 
d="M575 598h-295l-60 -159q58 36 124 36q89 0 142.5 -55t53.5 -139q0 -114 -90.5 -202t-207.5 -88q-97 0 -155 61t-55 150l102 9q-2 -52 27.5 -87t89.5 -35q74 0 127.5 58.5t53.5 131.5q0 44 -28 72t-83 28q-84 0 -148 -75l-95 28l136 365h380z" />
    <glyph glyph-name="six" unicode="6" horiz-adv-x="572" 
d="M320 462q97 0 154 -53.5t57 -141.5q0 -109 -89.5 -192.5t-203.5 -83.5q-91 0 -151 57.5t-60 142.5q0 89 66 170l275 336h124l-202 -239q13 4 30 4zM248 89q68 0 123.5 53.5t55.5 119.5q0 47 -32 77.5t-83 30.5q-69 0 -124 -53.5t-55 -119.5q0 -47 32 -77.5t83 -30.5z" />
    <glyph glyph-name="seven" unicode="7" horiz-adv-x="580" 
d="M127 697h501l-10 -57l-443 -640h-120l422 598h-369z" />
    <glyph glyph-name="eight" unicode="8" horiz-adv-x="580" 
d="M246 -9q-95 0 -157 45.5t-62 131.5q0 69 40.5 127.5t108.5 87.5q-51 39 -51 112q0 90 74.5 150.5t173.5 60.5q81 0 134 -42.5t53 -114.5q0 -53 -29 -99t-77 -75q80 -38 80 -138q0 -106 -83 -176t-205 -70zM319 408q55 0 95.5 37.5t40.5 85.5q0 36 -25 56.5t-68 20.5
q-57 0 -96.5 -34t-39.5 -83q0 -38 25 -60.5t68 -22.5zM255 89q73 0 125.5 42t52.5 103q0 47 -34 75.5t-89 28.5q-72 0 -125.5 -45.5t-53.5 -105.5q0 -46 34.5 -72t89.5 -26z" />
    <glyph glyph-name="nine" unicode="9" horiz-adv-x="580" 
d="M373 706q91 0 151 -57.5t60 -142.5q0 -90 -65 -170l-276 -336h-124l203 239q-20 -4 -31 -4q-96 0 -153.5 53.5t-57.5 141.5q0 109 90 192.5t203 83.5zM299 327q69 0 124.5 53.5t55.5 119.5q0 47 -32.5 77.5t-83.5 30.5q-68 0 -123 -53.5t-55 -119.5q0 -47 31.5 -77.5
t82.5 -30.5z" />
    <glyph glyph-name="colon" unicode=":" horiz-adv-x="322" 
d="M125 347l24 124h113l-25 -124h-112zM57 0l24 123h112l-23 -123h-113z" />
    <glyph glyph-name="semicolon" unicode=";" horiz-adv-x="321" 
d="M145 347l24 124h113l-24 -124h-113zM-30 -151l133 281h120l-183 -281h-70z" />
    <glyph glyph-name="less" unicode="&#x3c;" horiz-adv-x="638" 
d="M502 -2l-466 297l579 298l30 -70l-450 -230l357 -227z" />
    <glyph glyph-name="equal" unicode="=" horiz-adv-x="626" 
d="M141 395l17 86h402l-17 -86h-402zM100 183l16 86h403l-17 -86h-402z" />
    <glyph glyph-name="greater" unicode="&#x3e;" horiz-adv-x="638" 
d="M43 -3l-30 70l450 230l-358 227l51 68l465 -297z" />
    <glyph glyph-name="question" unicode="?" horiz-adv-x="495" 
d="M193 204l14 70q3 16 7.5 30.5t11.5 26.5t12.5 21t15.5 18t15 14t17 12t16.5 10t18 9.5t16.5 8.5q43 24 65.5 50t22.5 67q0 36 -29.5 57.5t-79.5 21.5q-60 0 -98.5 -34.5t-49.5 -94.5l-90 9q19 97 84.5 151.5t154.5 54.5q90 0 143.5 -42.5t53.5 -121.5q0 -66 -32.5 -108.5
t-89.5 -74.5q-2 -1 -13 -7t-14.5 -8t-13.5 -8t-14.5 -9.5t-12.5 -10.5t-12 -13t-9.5 -14.5t-8.5 -17.5t-5 -20l-8 -47h-88zM142 0l24 123h112l-24 -123h-112z" />
    <glyph glyph-name="at" unicode="@" horiz-adv-x="1004" 
d="M424 -173q-167 0 -270.5 93t-103.5 256q0 104 43 201.5t115.5 170t173.5 116t210 43.5q169 0 269.5 -98.5t100.5 -256.5q0 -96 -36 -184.5t-103.5 -146t-148.5 -57.5q-55 0 -85.5 27t-30.5 76q0 11 8 31q-78 -75 -168 -75q-66 0 -100 40t-34 105q0 80 42 162t113 136.5
t145 54.5q46 0 77.5 -22.5t39.5 -60.5l25 59l84 -5q-150 -328 -150 -396q0 -47 50 -47q53 0 98.5 47t70.5 116.5t25 140.5q0 123 -81 199t-215 76q-122 0 -228.5 -63t-168 -165.5t-61.5 -217.5q0 -130 83 -200.5t215 -70.5q65 0 130 21l18 -80q-71 -25 -152 -25zM427 105
q57 0 107.5 42t77.5 99t27 109q0 38 -18 61t-54 23q-86 0 -149.5 -82.5t-63.5 -166.5q0 -39 18 -62t55 -23z" />
    <glyph glyph-name="A" unicode="A" horiz-adv-x="652" 
d="M480 0l-29 164h-269l-93 -164h-125l409 697h82l137 -697h-112zM234 255h200l-48 269z" />
    <glyph glyph-name="B" unicode="B" horiz-adv-x="626" 
d="M46 0l136 697h222q92 0 144.5 -38.5t52.5 -108.5q0 -56 -31 -105.5t-84 -73.5q89 -31 89 -133q0 -107 -73.5 -172.5t-191.5 -65.5h-264zM233 408h141q52 0 86 35.5t34 80.5q0 33 -23.5 53.5t-68.5 20.5h-133zM172 99h140q71 0 113 38.5t42 91.5q0 37 -26.5 62t-75.5 25
h-150z" />
    <glyph glyph-name="C" unicode="C" horiz-adv-x="712" 
d="M333 -9q-137 0 -205.5 74.5t-68.5 196.5q0 188 113 316.5t291 128.5q116 0 183 -53.5t84 -145.5l-103 -32q-24 129 -174 129q-130 0 -209.5 -98t-79.5 -238q0 -81 44 -128.5t135 -47.5q157 0 235 138l94 -44q-116 -196 -339 -196z" />
    <glyph glyph-name="D" unicode="D" horiz-adv-x="698" 
d="M46 0l136 697h195q148 0 225.5 -68t77.5 -195q0 -193 -118.5 -313.5t-316.5 -120.5h-199zM172 99h78q153 0 238.5 93.5t85.5 243.5q0 85 -51 123.5t-162 38.5h-92z" />
    <glyph glyph-name="E" unicode="E" horiz-adv-x="611" 
d="M46 0l136 697h462l-20 -99h-355l-37 -191h326l-19 -99h-326l-41 -209h354l-18 -99h-462z" />
    <glyph glyph-name="F" unicode="F" horiz-adv-x="607" 
d="M46 0l136 697h487l-20 -99h-380l-37 -191h334l-19 -99h-334l-60 -308h-107z" />
    <glyph glyph-name="G" unicode="G" horiz-adv-x="754" 
d="M427 285l17 86h266l-72 -371h-85l11 97q-39 -51 -99.5 -78.5t-132.5 -27.5q-136 0 -205 75.5t-69 200.5q0 183 114 311.5t292 128.5q116 0 182 -54.5t84 -144.5l-103 -32q-24 129 -173 129q-131 0 -210 -97t-79 -235q0 -180 177 -180q93 0 159.5 49.5t84.5 141.5l2 1
h-161z" />
    <glyph glyph-name="H" unicode="H" horiz-adv-x="726" 
d="M46 0l136 697h107l-57 -290h324l57 290h107l-136 -697h-107l60 308h-323l-61 -308h-107z" />
    <glyph glyph-name="I" unicode="I" horiz-adv-x="295" 
d="M46 0l136 697h107l-136 -697h-107z" />
    <glyph glyph-name="J" unicode="J" horiz-adv-x="562" 
d="M206 -9q-103 0 -153.5 65t-39.5 161l107 3q-7 -60 16 -95t80 -35q75 0 109.5 43.5t49.5 120.5l67 344h-269l20 99h376l-89 -457q-23 -115 -91 -182t-183 -67z" />
    <glyph glyph-name="K" unicode="K" horiz-adv-x="701" 
d="M766 697l-309 -262l181 -435h-114l-144 369l-185 -157l-42 -212h-107l136 697h107l-69 -351l404 351h142z" />
    <glyph glyph-name="L" unicode="L" horiz-adv-x="521" 
d="M46 0l136 697h107l-117 -598h305l-19 -99h-412z" />
    <glyph glyph-name="M" unicode="M" horiz-adv-x="887" 
d="M726 697h155l-136 -697h-107l106 544l-284 -484h-104l-95 494l-108 -554h-107l136 697h153l94 -512z" />
    <glyph glyph-name="N" unicode="N" horiz-adv-x="717" 
d="M604 697h107l-136 -697h-112l-211 510l-99 -510h-107l136 697h111l212 -507z" />
    <glyph glyph-name="O" unicode="O" horiz-adv-x="747" 
d="M329 -9q-133 0 -202 76.5t-69 198.5q0 180 114.5 310t285.5 130q133 0 202 -77t69 -199q0 -117 -51 -217.5t-143.5 -161t-205.5 -60.5zM339 93q123 0 203.5 99t80.5 231q0 83 -44 132t-131 49q-124 0 -204 -99t-80 -233q0 -81 44 -130t131 -49z" />
    <glyph glyph-name="P" unicode="P" horiz-adv-x="577" 
d="M46 0l136 697h216q117 0 166 -58t30 -158q-36 -187 -270 -187h-115l-57 -294h-106zM229 393h98q72 0 112 23t51 80q10 53 -20 77.5t-98 24.5h-103z" />
    <glyph glyph-name="Q" unicode="Q" horiz-adv-x="765" 
d="M729 430q0 -93 -33.5 -177t-93.5 -146l78 -94l-78 -63l-79 95q-89 -54 -195 -54q-133 0 -202 76.5t-69 198.5q0 180 114.5 310t285.5 130q133 0 202.5 -77t69.5 -199zM338 93q64 0 121 30l-77 93l78 62l76 -92q86 97 86 237q0 83 -44 132t-131 49q-124 0 -204 -99
t-80 -233q0 -81 44 -130t131 -49z" />
    <glyph glyph-name="R" unicode="R" horiz-adv-x="621" 
d="M600 535q0 -91 -45.5 -149t-129.5 -79l128 -307h-114l-113 296h-51h-65l-58 -296h-106l136 697h216q101 0 151.5 -43t50.5 -119zM229 394h99q164 0 164 127q0 77 -120 77h-103z" />
    <glyph glyph-name="S" unicode="S" horiz-adv-x="560" 
d="M255 -8q-101 0 -169.5 54.5t-66.5 150.5l109 19q-4 -64 34 -96t100 -32q65 0 106.5 32t41.5 81q0 24 -9 42t-30.5 33.5t-37 23.5t-46.5 22q-41 19 -61.5 30t-48.5 33t-40.5 51t-12.5 67q0 89 67 146t166 57q70 0 124 -30.5t76 -91.5l-97 -48q-12 36 -43.5 55.5
t-70.5 19.5q-49 0 -81.5 -27.5t-32.5 -68.5q0 -21 9 -37.5t30 -30.5t36 -22t46 -22q41 -19 64 -31.5t50 -34.5t39 -51.5t12 -67.5q0 -97 -76 -161.5t-187 -64.5z" />
    <glyph glyph-name="T" unicode="T" horiz-adv-x="588" 
d="M192 0l116 598h-226l20 99h560l-20 -99h-226l-116 -598h-108z" />
    <glyph glyph-name="U" unicode="U" horiz-adv-x="681" 
d="M295 -9q-110 0 -166 49t-56 142q0 32 8 74l86 441h107l-85 -437q-7 -35 -7 -64q0 -52 28.5 -76.5t94.5 -24.5q87 0 132 43t62 131l83 428h108l-87 -444q-51 -262 -308 -262z" />
    <glyph glyph-name="V" unicode="V" horiz-adv-x="661" 
d="M612 697h125l-412 -697h-82l-143 697h111l99 -524z" />
    <glyph glyph-name="W" unicode="W" horiz-adv-x="981" 
d="M933 697h117l-341 -697h-106l-65 486l-255 -486h-105l-71 697h106l49 -533l257 494h92l65 -494z" />
    <glyph glyph-name="X" unicode="X" horiz-adv-x="656" 
d="M-31 0l305 349l-165 348h123l125 -273l235 273h132l-302 -348l168 -349h-117l-130 272l-233 -272h-141z" />
    <glyph glyph-name="Y" unicode="Y" horiz-adv-x="647" 
d="M222 0l53 270l-182 427h124l127 -324l257 324h129l-347 -427l-54 -270h-107z" />
    <glyph glyph-name="Z" unicode="Z" horiz-adv-x="627" 
d="M677 697l-15 -79l-511 -519h409l-19 -99h-558l14 76l515 522h-389l19 99h535z" />
    <glyph glyph-name="bracketleft" unicode="[" horiz-adv-x="314" 
d="M28 -75l165 845h204l-14 -69h-121l-137 -706h121l-14 -70h-204z" />
    <glyph glyph-name="backslash" unicode="\" horiz-adv-x="323" 
d="M158 -212l-74 916h82l73 -916h-81z" />
    <glyph glyph-name="bracketright" unicode="]" horiz-adv-x="314" 
d="M-43 -75l13 70h121l137 706h-120l13 69h204l-164 -845h-204z" />
    <glyph glyph-name="asciicircum" unicode="^" horiz-adv-x="591" 
d="M26 213l363 520l163 -520h-107l-90 326l-218 -326h-111z" />
    <glyph glyph-name="underscore" unicode="_" horiz-adv-x="555" 
d="M8 -78l16 78h412l-16 -78h-412z" />
    <glyph glyph-name="grave" unicode="`" horiz-adv-x="251" 
d="M212 555l-108 142h108l76 -142h-76z" />
    <glyph glyph-name="a" unicode="a" horiz-adv-x="578" 
d="M448 493h103l-96 -493h-102l11 60q-59 -69 -158 -69q-85 0 -130 51.5t-45 139.5q0 127 74 223.5t189 96.5q47 0 85 -19t57 -51zM415 289q3 55 -24 87.5t-82 32.5q-79 0 -127.5 -66t-48.5 -151q0 -106 103 -106q77 0 126.5 60t52.5 143z" />
    <glyph glyph-name="b" unicode="b" horiz-adv-x="578" 
d="M373 502q82 0 128.5 -51t46.5 -141q0 -127 -74.5 -223t-188.5 -96q-97 0 -140 66l-12 -57h-105l136 697h105l-51 -254q59 59 155 59zM271 86q78 0 126.5 64.5t48.5 150.5q0 51 -26 79t-77 28q-75 0 -125.5 -60.5t-53.5 -143.5q-3 -55 24 -86.5t83 -31.5z" />
    <glyph glyph-name="c" unicode="c" horiz-adv-x="495" 
d="M223 -9q-96 0 -145.5 56t-49.5 144q0 126 81.5 218.5t201.5 92.5q74 0 122 -37t62 -108l-103 -32q-3 42 -26.5 64.5t-62.5 22.5q-75 0 -123 -68.5t-48 -155.5q0 -48 23.5 -77.5t73.5 -29.5q42 0 77.5 25t54.5 67l87 -43q-37 -67 -96 -103t-129 -36z" />
    <glyph glyph-name="d" unicode="d" horiz-adv-x="578" 
d="M488 697h103l-136 -697h-102l12 60q-58 -69 -159 -69q-85 0 -130 51.5t-45 139.5q0 127 74 223.5t189 96.5q47 0 84.5 -19t56.5 -51zM415 289q3 55 -24 87.5t-82 32.5q-79 0 -127.5 -66t-48.5 -151q0 -106 103 -106q77 0 126.5 60t52.5 143z" />
    <glyph glyph-name="e" unicode="e" horiz-adv-x="519" 
d="M476 210h-346q-3 -15 -3 -27q0 -99 109 -99q76 0 140 60l62 -69q-94 -84 -211 -84q-100 0 -149 54t-49 141q0 130 79 223t200 93q92 0 138.5 -51.5t46.5 -134.5q0 -55 -17 -106zM300 415q-60 0 -99.5 -38t-54.5 -91h245q8 20 8 42q0 38 -25.5 62.5t-73.5 24.5z" />
    <glyph glyph-name="f" unicode="f" horiz-adv-x="331" 
d="M56 0l80 415h-97l15 78h98l13 65q17 81 60.5 114.5t108.5 33.5q45 0 87 -21l-45 -76q-15 11 -38 11q-33 0 -50 -21.5t-22 -48.5l-12 -57h125l-16 -78h-124l-81 -415h-102z" />
    <glyph glyph-name="g" unicode="g" horiz-adv-x="511" 
d="M150 164q-36 -18 -36 -46q0 -25 31 -36.5t75 -16t88.5 -13t75.5 -36t31 -74.5q0 -76 -70 -115.5t-177 -39.5q-97 0 -149.5 33.5t-52.5 97.5q0 17 7 50l92 52q-43 26 -43 80q0 69 70 116q-23 35 -23 82q0 84 68 144t161 60q67 0 115 -35l85 64l43 -66l-83 -59
q11 -28 11 -59q0 -85 -67 -144.5t-159 -59.5q-54 0 -93 21zM295 416q-52 0 -88.5 -36.5t-36.5 -82.5q0 -32 20 -50.5t56 -18.5q52 0 87 36t35 83q0 33 -19.5 51t-53.5 18zM312 -73q0 16 -9.5 26.5t-29.5 16.5t-38.5 9t-49 7t-48.5 8l-67 -56q0 -1 -2 -8.5t-2 -12.5
q0 -56 110 -56q63 0 99.5 17.5t36.5 48.5z" />
    <glyph glyph-name="h" unicode="h" horiz-adv-x="564" 
d="M372 502q88 0 123 -56t18 -144l-59 -302h-103l57 293q3 16 5 27.5t0.5 30.5t-8.5 30.5t-24.5 21t-44.5 9.5q-40 0 -70 -17.5t-48.5 -51t-29 -65t-18.5 -75.5l-39 -203h-103l136 697h103l-52 -258q59 63 157 63z" />
    <glyph glyph-name="i" unicode="i" horiz-adv-x="253" 
d="M139 589l22 108h108l-22 -108h-108zM27 0l96 493h103l-96 -493h-103z" />
    <glyph glyph-name="j" unicode="j" horiz-adv-x="254" 
d="M139 589l22 108h108l-22 -108h-108zM-15 -213q-32 0 -74 16l12 80q17 -6 37 -6q19 0 33.5 12t18.5 32l111 572h103l-114 -588q-12 -60 -46 -89t-81 -29z" />
    <glyph glyph-name="k" unicode="k" horiz-adv-x="543" 
d="M28 0l136 697h103l-84 -424l245 220h140l-219 -189l145 -304h-121l-106 240l-107 -96l-29 -144h-103z" />
    <glyph glyph-name="l" unicode="l" horiz-adv-x="270" 
d="M134 -9q-51 0 -76 32.5t-13 94.5l113 579h103l-113 -581q-4 -20 2.5 -27.5t24.5 -7.5q20 0 44 8l-11 -86q-39 -12 -74 -12z" />
    <glyph glyph-name="m" unicode="m" horiz-adv-x="844" 
d="M656 502q73 0 108 -40t35 -104q0 -26 -6 -53l-59 -305h-103l55 283q7 30 7 54q0 75 -70 75q-36 0 -63 -17.5t-44 -52t-26 -65.5t-18 -77l-40 -200h-103l56 285q6 34 6 53q0 74 -69 74q-30 0 -53.5 -13t-38.5 -32t-27.5 -49.5t-19 -56t-13.5 -61.5l-39 -200h-103l95 493
h99l-13 -59q55 68 145 68q48 0 82.5 -23.5t44.5 -72.5q67 96 175 96z" />
    <glyph glyph-name="n" unicode="n" horiz-adv-x="563" 
d="M370 502q74 0 111 -39t37 -105q0 -24 -6 -56l-59 -302h-103l57 293q7 30 7 48q0 71 -79 71q-40 0 -70 -17.5t-48.5 -51t-29 -65t-18.5 -75.5l-39 -203h-103l96 493h103l-12 -54q59 63 156 63z" />
    <glyph glyph-name="o" unicode="o" horiz-adv-x="549" 
d="M230 -9q-95 0 -149 57t-54 147q0 125 85 216t207 91q95 0 149.5 -57t54.5 -146q0 -125 -86 -216.5t-207 -91.5zM238 81q80 0 132 66t52 153q0 52 -27.5 82t-82.5 30q-81 0 -132.5 -65.5t-51.5 -152.5q0 -51 27.5 -82t82.5 -31z" />
    <glyph glyph-name="p" unicode="p" horiz-adv-x="578" 
d="M372 502q85 0 130.5 -51.5t45.5 -139.5q0 -127 -74.5 -223.5t-189.5 -96.5q-45 0 -82 18t-57 49l-53 -262h-105l136 697h105l-11 -50q59 59 155 59zM269 82q79 0 128 67.5t49 155.5q0 106 -103 106q-77 0 -127 -62t-53 -147q-3 -55 24 -87.5t82 -32.5z" />
    <glyph glyph-name="q" unicode="q" horiz-adv-x="578" 
d="M445 493h106l-136 -697h-106l52 254q-59 -59 -155 -59q-82 0 -129 51.5t-47 140.5q0 127 74.5 223t188.5 96q97 0 140 -66zM415 292q3 55 -24 87t-83 32q-79 0 -127.5 -66.5t-48.5 -154.5q0 -52 26 -80t77 -28q76 0 126.5 63t53.5 147z" />
    <glyph glyph-name="r" unicode="r" horiz-adv-x="400" 
d="M360 502q50 0 90 -27l-64 -87q-20 14 -55 14q-58 0 -98.5 -39.5t-55.5 -118.5l-47 -244h-103l96 493h104l-15 -75q25 42 65.5 63t82.5 21z" />
    <glyph glyph-name="s" unicode="s" horiz-adv-x="449" 
d="M194 -9q-79 0 -133 39.5t-64 98.5l90 31q6 -35 33 -58.5t75 -23.5q44 0 72 19.5t28 51.5q0 23 -23 39.5t-55.5 28.5t-65.5 26.5t-56 42t-23 66.5q0 66 54.5 108t136.5 42q131 0 177 -109l-84 -37q-25 62 -97 62q-36 0 -61 -14.5t-25 -40.5q0 -21 23 -36t55.5 -26
t65.5 -25.5t56 -44t23 -71.5q0 -75 -58 -122t-144 -47z" />
    <glyph glyph-name="t" unicode="t" horiz-adv-x="349" 
d="M227 415l-54 -281q-2 -14 -2 -19q0 -38 49 -38q28 0 64 12l-12 -85q-43 -13 -85 -13q-54 0 -87 26.5t-33 79.5q0 18 4 38l54 280h-81l16 78h79l24 123l118 76l-39 -199h123l-16 -78h-122z" />
    <glyph glyph-name="u" unicode="u" horiz-adv-x="563" 
d="M433 493h103l-96 -493h-103l12 54q-59 -63 -157 -63q-73 0 -109.5 39.5t-36.5 104.5q0 23 5 56l59 302h103l-56 -286q-6 -36 -6 -51q0 -75 77 -75q40 0 70 19t48.5 53t29.5 67.5t19 76.5z" />
    <glyph glyph-name="v" unicode="v" horiz-adv-x="491" 
d="M154 0l-105 493h111l61 -360l203 360h113l-297 -493h-86z" />
    <glyph glyph-name="w" unicode="w" horiz-adv-x="724" 
d="M650 493h111l-245 -493h-94l-41 348l-176 -348h-93l-54 493h108l25 -337l172 337h89l40 -334z" />
    <glyph glyph-name="x" unicode="x" horiz-adv-x="499" 
d="M-41 0l224 251l-122 242h120l80 -175l150 175h128l-225 -249l123 -244h-120l-80 177l-150 -177h-128z" />
    <glyph glyph-name="y" unicode="y" horiz-adv-x="503" 
d="M434 493h115l-411 -697h-114l128 218l-103 479h111l67 -352z" />
    <glyph glyph-name="z" unicode="z" horiz-adv-x="488" 
d="M502 493l-14 -76l-348 -330h282l-17 -87h-426l13 70l358 336h-278l18 87h412z" />
    <glyph glyph-name="braceleft" unicode="{" horiz-adv-x="300" 
d="M142 -74q-52 0 -73.5 38t-9.5 101l31 156q5 25 -2 41t-15.5 21.5t-28.5 13.5l8 70q35 11 55 29t27 55l32 160q25 129 131 129h73l-13 -66h-33q-57 0 -72 -73l-32 -160q-16 -83 -86 -110l-6 -6q64 -31 48 -111l-30 -156q-13 -65 40 -65h38l-13 -67h-69z" />
    <glyph glyph-name="bar" unicode="|" horiz-adv-x="303" 
d="M16 -253l196 1010h77l-196 -1010h-77z" />
    <glyph glyph-name="braceright" unicode="}" horiz-adv-x="300" 
d="M-36 -74l13 67h35q29 0 47 20.5t24 53.5l30 155q8 43 28 67.5t57 39.5l7 5q-64 31 -48 115l32 160q13 65 -42 65h-38l13 66h68q52 0 74.5 -36.5t10.5 -101.5l-31 -160q-5 -27 1.5 -43.5t15 -22t28.5 -13.5l-9 -69q-20 -7 -34 -14.5t-28 -25t-19 -42.5l-31 -155
q-26 -131 -130 -131h-74z" />
    <glyph glyph-name="asciitilde" unicode="~" horiz-adv-x="607" 
d="M380 170q-32 0 -54 12t-32 29t-18 34t-20 29t-30 12q-24 0 -44.5 -25.5t-27.5 -63.5h-78q14 74 55.5 116.5t98.5 42.5q41 0 66 -18.5t33 -40t21.5 -40t33.5 -18.5q24 0 46.5 30t30.5 71h77q-14 -78 -57 -124t-101 -46z" />
    <glyph glyph-name="uni00A0" unicode="&#xa0;" horiz-adv-x="278" 
 />
    <glyph glyph-name="exclamdown" unicode="&#xa1;" horiz-adv-x="307" 
d="M122 370l23 123h113l-24 -123h-112zM14 -204l108 491h79l-84 -491h-103z" />
    <glyph glyph-name="cent" unicode="&#xa2;" horiz-adv-x="495" 
d="M229 81q42 0 77.5 25t54.5 67l87 -43q-66 -120 -189 -137l-21 -105l-95 -1l22 111q-68 16 -102.5 68t-34.5 125q0 112 66 199.5t168 106.5l20 104h95l-20 -103q114 -22 138 -141l-103 -32q-3 42 -26.5 64.5t-62.5 22.5q-75 0 -123 -68.5t-48 -155.5q0 -48 23.5 -77.5
t73.5 -29.5z" />
    <glyph glyph-name="sterling" unicode="&#xa3;" horiz-adv-x="603" 
d="M413 624q-71 0 -107.5 -45.5t-36.5 -127.5q0 -17 4 -59h201l-15 -74h-179q1 -11 1 -31q0 -139 -97 -200h328l-17 -87h-473l16 92q79 30 118.5 75.5t39.5 117.5q0 20 -1 33h-111l15 74h91q-3 36 -3 64q0 118 64 186.5t166 68.5q80 0 129 -42.5t59 -113.5l-84 -21
q-14 90 -108 90z" />
    <glyph glyph-name="currency" unicode="&#xa4;" horiz-adv-x="683" 
d="M164 67l-55 57l56 55q-43 59 -43 133q0 72 43 132l-55 55l55 57l56 -57q59 44 134 44q74 0 132 -43l55 55l56 -55l-56 -55q44 -59 44 -133q0 -73 -44 -134l56 -55l-55 -56l-56 56q-60 -43 -134 -43q-73 0 -133 43zM354 158q62 0 107 45q46 46 46 109t-46 108
q-45 45 -108 45t-109 -46q-44 -46 -44 -109q0 -64 43 -107q46 -45 111 -45z" />
    <glyph glyph-name="yen" unicode="&#xa5;" horiz-adv-x="708" 
d="M254 0l23 118h-180l14 69h179l16 79h-178l14 70h137l-154 361h124l127 -324l257 324h128l-294 -361h130l-15 -70h-169l-16 -79h170l-15 -69h-168l-23 -118h-107z" />
    <glyph glyph-name="brokenbar" unicode="&#xa6;" horiz-adv-x="311" 
d="M135 361l71 366h85l-71 -366h-85zM36 -152l69 359h85l-69 -359h-85z" />
    <glyph glyph-name="section" unicode="&#xa7;" horiz-adv-x="596" 
d="M209 -207q-142 0 -188 122l97 48q24 -75 104 -75q49 0 86.5 33t37.5 77q0 12 -4 22t-15 20t-18 16t-26.5 15t-26.5 12t-30 13q-31 13 -49 21.5t-43 24t-39 31.5t-24.5 40.5t-10.5 53.5q0 104 88 179q-5 18 -5 41q0 95 71.5 157t172.5 62q142 0 188 -122l-97 -48
q-24 75 -103 75q-49 0 -86.5 -32.5t-37.5 -76.5q0 -14 8 -27.5t16 -21.5t29 -19t30.5 -15.5t36.5 -15.5q38 -15 60.5 -26.5t50 -32t41 -48.5t13.5 -64q0 -103 -87 -179q5 -18 5 -41q0 -95 -71.5 -157t-173.5 -62zM387 130q41 36 41 86q0 20 -9 35.5t-29.5 29t-36.5 21
t-46 19.5q-6 3 -23.5 10t-23 9.5t-16.5 8t-19 10.5t-16 11q-41 -38 -41 -86q0 -37 30.5 -59t91.5 -47q10 -4 29 -12t26.5 -11.5t19.5 -10t22 -14.5z" />
    <glyph glyph-name="dieresis" unicode="&#xa8;" horiz-adv-x="422" 
d="M139 589l22 108h87l-22 -108h-87zM330 589l21 108h87l-22 -108h-86z" />
    <glyph glyph-name="copyright" unicode="&#xa9;" horiz-adv-x="866" 
d="M453 -13q-155 0 -263.5 105.5t-108.5 255.5t109 256t263 106q153 0 261.5 -106t108.5 -256t-108.5 -255.5t-261.5 -105.5zM453 53q127 0 216 86.5t89 208.5q0 123 -89 209.5t-216 86.5q-128 0 -217.5 -86.5t-89.5 -209.5q0 -122 90 -208.5t217 -86.5zM463 131
q-94 0 -146 63t-52 153t51.5 154t145.5 64q129 0 177 -120l-81 -31q-11 33 -36.5 54t-59.5 21q-54 0 -82 -41.5t-28 -100.5t27.5 -99t82.5 -40q35 0 60 20t35 54l77 -30q-19 -57 -64.5 -89t-106.5 -32z" />
    <glyph glyph-name="ordfeminine" unicode="&#xaa;" horiz-adv-x="399" 
d="M179 348q-50 0 -79.5 30t-20.5 78q11 53 54 79.5t107 26.5h97q3 14 3 25q0 62 -70 62q-55 0 -103 -54l-44 33q71 78 161 78q67 0 97.5 -37.5t17.5 -101.5l-41 -211h-57l8 49q-57 -57 -130 -57zM202 407q31 0 60 16.5t48 44.5q13 24 16 38h-93q-76 0 -86 -50
q-4 -21 13 -35t42 -14z" />
    <glyph glyph-name="guillemotleft" unicode="&#xab;" horiz-adv-x="496" 
d="M187 79l-173 173l239 173l-16 -90l-118 -83l84 -83zM392 79l-173 173l239 173l-16 -90l-118 -83l84 -83z" />
    <glyph glyph-name="logicalnot" unicode="&#xac;" horiz-adv-x="640" 
d="M409 143l31 158h-361l17 92h460l-48 -250h-99z" />
    <glyph glyph-name="uni00AD" unicode="&#xad;" horiz-adv-x="495" 
d="M75 261l15 77h351l-15 -77h-351z" />
    <glyph glyph-name="registered" unicode="&#xae;" horiz-adv-x="866" 
d="M453 -13q-155 0 -263.5 105.5t-108.5 255.5t109 256t263 106q153 0 261.5 -106t108.5 -256t-108.5 -255.5t-261.5 -105.5zM453 53q127 0 216 86.5t89 208.5q0 123 -89 209.5t-216 86.5q-128 0 -217.5 -86.5t-89.5 -209.5q0 -122 90 -208.5t217 -86.5zM332 139v419h129
q65 0 105 -34t40 -89q0 -37 -22 -66t-60 -42l115 -188h-79l-103 181h-23h-34v-181h-68zM400 376h67q34 1 52 17t18 42q0 29 -20 45t-55 16h-62v-120z" />
    <glyph glyph-name="macron" unicode="&#xaf;" horiz-adv-x="416" 
d="M135 577l12 61h274l-12 -61h-274z" />
    <glyph glyph-name="degree" unicode="&#xb0;" horiz-adv-x="441" 
d="M258 419q-53 0 -87.5 35t-34.5 88q0 65 51.5 114.5t116.5 49.5q54 0 88.5 -35t34.5 -87q0 -66 -52 -115.5t-117 -49.5zM270 494q32 0 56.5 23.5t24.5 55.5q0 24 -16.5 41t-41.5 17q-31 0 -56 -23.5t-25 -55.5q0 -25 16.5 -41.5t41.5 -16.5z" />
    <glyph glyph-name="plusminus" unicode="&#xb1;" horiz-adv-x="649" 
d="M255 93l42 216h-228l16 79h228l41 216h79l-42 -216h228l-15 -79h-228l-42 -216h-79zM-6 -78l15 78h533l-16 -78h-532z" />
    <glyph glyph-name="acute" unicode="&#xb4;" horiz-adv-x="258" 
d="M81 555l137 142h113l-172 -142h-78z" />
    <glyph glyph-name="uni00B5" unicode="&#xb5;" horiz-adv-x="633" 
d="M33 -165l128 658h102l-57 -290q-3 -17 -3 -36q0 -81 79 -81q58 0 97.5 34.5t52.5 100.5l53 272h103l-96 -493h-103l14 63q-62 -72 -158 -72q-63 0 -90 32l-38 -188h-84z" />
    <glyph glyph-name="paragraph" unicode="&#xb6;" horiz-adv-x="631" 
d="M193 -121l84 428q-80 0 -135 44.5t-55 120.5q0 97 78 161t184 64h74l-159 -818h-71zM373 -121l159 818h74l-159 -818h-74z" />
    <glyph glyph-name="periodcentered" unicode="&#xb7;" horiz-adv-x="309" 
d="M168 292q-31 0 -48.5 23.5t-11.5 56.5q5 26 28 44t51 18q31 0 48.5 -22.5t10.5 -55.5q-5 -27 -27.5 -45.5t-50.5 -18.5z" />
    <glyph glyph-name="cedilla" unicode="&#xb8;" horiz-adv-x="278" 
d="M47 -255q-58 0 -98 37l39 45q20 -25 54 -25q23 0 39 13t16 34q0 56 -110 56l74 95h64l-44 -55q34 -8 57 -30.5t23 -60.5q0 -51 -32.5 -80t-81.5 -29z" />
    <glyph glyph-name="ordmasculine" unicode="&#xba;" horiz-adv-x="436" 
d="M275 352q-76 0 -114.5 51t-24.5 126q15 74 74 125.5t135 51.5q75 0 113.5 -51.5t24.5 -125.5q-14 -75 -73.5 -126t-134.5 -51zM287 413q50 0 82.5 32.5t42.5 83.5q10 52 -10 84t-70 32t-82.5 -32.5t-41.5 -83.5q-10 -51 9.5 -83.5t69.5 -32.5z" />
    <glyph glyph-name="guillemotright" unicode="&#xbb;" horiz-adv-x="497" 
d="M38 79l16 90l118 83l-84 83l16 90l173 -173zM243 79l16 90l118 83l-84 83l16 90l173 -173z" />
    <glyph glyph-name="questiondown" unicode="&#xbf;" horiz-adv-x="494" 
d="M353 493l-24 -123h-112l24 123h112zM302 289l-14 -70q-3 -16 -7.5 -30.5t-11.5 -26.5t-12.5 -21t-15.5 -18t-15 -14t-17 -12t-16.5 -10t-18 -9.5t-16.5 -8.5q-43 -24 -65.5 -50t-22.5 -67q0 -36 29.5 -57.5t79.5 -21.5q60 0 98.5 34.5t49.5 94.5l90 -9
q-19 -97 -84.5 -151.5t-154.5 -54.5q-90 0 -143.5 42.5t-53.5 121.5q0 66 32.5 108.5t89.5 74.5q2 1 13 7t14.5 8t13.5 8t14.5 9.5t12.5 10.5t12 13t9.5 14.5t8.5 17.5t5 20l8 47h88z" />
    <glyph glyph-name="Agrave" unicode="&#xc0;" horiz-adv-x="652" 
d="M466 759h-78l-172 142h112zM480 0l-29 164h-269l-93 -164h-125l409 697h82l137 -697h-112zM234 255h200l-48 269z" />
    <glyph glyph-name="Aacute" unicode="&#xc1;" horiz-adv-x="652" 
d="M639 901l-172 -142h-78l137 142h113zM373 697h82l137 -697h-112l-29 164h-269l-93 -164h-125zM234 255h200l-48 269z" />
    <glyph glyph-name="Acircumflex" unicode="&#xc2;" horiz-adv-x="652" 
d="M440 828l-89 -81h-86l190 169l118 -169h-76zM480 0l-29 164h-269l-93 -164h-125l409 697h82l137 -697h-112zM234 255h200l-48 269z" />
    <glyph glyph-name="Atilde" unicode="&#xc3;" horiz-adv-x="652" 
d="M381 840q-39 0 -55 -70h-60q12 66 44 100t78 34q25 0 43 -11.5t26.5 -26t20 -26t24.5 -11.5q17 0 32 20.5t21 51.5h63q-12 -67 -44 -101.5t-76 -34.5q-28 0 -47 11.5t-27 26t-19 26t-24 11.5zM373 697h82l137 -697h-112l-29 164h-269l-93 -164h-125zM234 255h200l-48 269
z" />
    <glyph glyph-name="Adieresis" unicode="&#xc4;" horiz-adv-x="652" 
d="M404 901l-22 -108h-87l22 108h87zM594 901l-22 -108h-86l21 108h87zM373 697h82l137 -697h-112l-29 164h-269l-93 -164h-125zM234 255h200l-48 269z" />
    <glyph glyph-name="Aring" unicode="&#xc5;" horiz-adv-x="652" 
d="M480 0l-29 164h-269l-93 -164h-125l405 691q-45 24 -45 83q0 51 37 86.5t88 35.5q41 0 67 -26t26 -69q0 -41 -24 -72.5t-61 -43.5l135 -685h-112zM440 841q-26 0 -43.5 -17.5t-17.5 -43.5q0 -21 12.5 -33.5t34.5 -12.5q26 0 43.5 17t17.5 44q0 22 -13 34t-34 12zM234 255
h200l-48 269z" />
    <glyph glyph-name="AE" unicode="&#xc6;" horiz-adv-x="957" 
d="M970 598h-350l-37 -191h321l-19 -99h-321l-41 -209h350l-19 -99h-460l33 170h-249l-95 -170h-119l408 697h618zM443 253l69 354h-91l-197 -354h219z" />
    <glyph glyph-name="Ccedilla" unicode="&#xc7;" horiz-adv-x="712" 
d="M343 93q157 0 235 138l94 -44q-109 -184 -312 -195l-37 -47q34 -8 57 -30.5t23 -60.5q0 -51 -32.5 -80t-81.5 -29q-58 0 -98 37l39 45q20 -25 54 -25q23 0 39 13t16 34q0 56 -110 56l68 87q-119 10 -178.5 83t-59.5 187q0 188 113 316.5t291 128.5q116 0 183 -53.5
t84 -145.5l-103 -32q-24 129 -174 129q-130 0 -209.5 -98t-79.5 -238q0 -81 44 -128.5t135 -47.5z" />
    <glyph glyph-name="Egrave" unicode="&#xc8;" horiz-adv-x="611" 
d="M386 759l-172 142h112l138 -142h-78zM46 0l136 697h462l-20 -99h-355l-37 -191h326l-19 -99h-326l-41 -209h354l-18 -99h-462z" />
    <glyph glyph-name="Eacute" unicode="&#xc9;" horiz-adv-x="611" 
d="M386 759l137 142h113l-172 -142h-78zM46 0l136 697h462l-20 -99h-355l-37 -191h326l-19 -99h-326l-41 -209h354l-18 -99h-462z" />
    <glyph glyph-name="Ecircumflex" unicode="&#xca;" horiz-adv-x="611" 
d="M262 747l190 169l118 -169h-76l-57 81l-89 -81h-86zM46 0l136 697h462l-20 -99h-355l-37 -191h326l-19 -99h-326l-41 -209h354l-18 -99h-462z" />
    <glyph glyph-name="Edieresis" unicode="&#xcb;" horiz-adv-x="611" 
d="M292 793l22 108h87l-22 -108h-87zM483 793l21 108h87l-22 -108h-86zM46 0l136 697h462l-20 -99h-355l-37 -191h326l-19 -99h-326l-41 -209h354l-18 -99h-462z" />
    <glyph glyph-name="Igrave" unicode="&#xcc;" horiz-adv-x="295" 
d="M209 759l-172 142h112l138 -142h-78zM46 0l136 697h107l-136 -697h-107z" />
    <glyph glyph-name="Iacute" unicode="&#xcd;" horiz-adv-x="295" 
d="M209 759l137 142h113l-172 -142h-78zM46 0l136 697h107l-136 -697h-107z" />
    <glyph glyph-name="Icircumflex" unicode="&#xce;" horiz-adv-x="295" 
d="M85 747l190 169l118 -169h-76l-57 81l-89 -81h-86zM46 0l136 697h107l-136 -697h-107z" />
    <glyph glyph-name="Idieresis" unicode="&#xcf;" horiz-adv-x="295" 
d="M116 793l22 108h87l-22 -108h-87zM307 793l21 108h87l-22 -108h-86zM46 0l136 697h107l-136 -697h-107z" />
    <glyph glyph-name="Eth" unicode="&#xd0;" horiz-adv-x="698" 
d="M377 697q148 0 225.5 -68t77.5 -195q0 -193 -118.5 -313.5t-316.5 -120.5h-199l61 314h-78l13 69h79l61 314h195zM250 99q153 0 238.5 93.5t85.5 243.5q0 85 -51 123.5t-162 38.5h-92l-42 -215h121l-13 -69h-121l-42 -215h78z" />
    <glyph glyph-name="Ntilde" unicode="&#xd1;" horiz-adv-x="717" 
d="M412 840q-39 0 -55 -70h-60q12 66 44 100t78 34q25 0 43 -11.5t26.5 -26t20 -26t24.5 -11.5q17 0 32 20.5t21 51.5h63q-12 -67 -44 -101.5t-76 -34.5q-28 0 -47 11.5t-27 26t-19 26t-24 11.5zM604 697h107l-136 -697h-112l-211 510l-99 -510h-107l136 697h111l212 -507z
" />
    <glyph glyph-name="Ograve" unicode="&#xd2;" horiz-adv-x="747" 
d="M434 759l-172 142h112l138 -142h-78zM329 -9q-133 0 -202 76.5t-69 198.5q0 180 114.5 310t285.5 130q133 0 202 -77t69 -199q0 -117 -51 -217.5t-143.5 -161t-205.5 -60.5zM339 93q123 0 203.5 99t80.5 231q0 83 -44 132t-131 49q-124 0 -204 -99t-80 -233
q0 -81 44 -130t131 -49z" />
    <glyph glyph-name="Oacute" unicode="&#xd3;" horiz-adv-x="747" 
d="M435 759l137 142h113l-172 -142h-78zM329 -9q-133 0 -202 76.5t-69 198.5q0 180 114.5 310t285.5 130q133 0 202 -77t69 -199q0 -117 -51 -217.5t-143.5 -161t-205.5 -60.5zM339 93q123 0 203.5 99t80.5 231q0 83 -44 132t-131 49q-124 0 -204 -99t-80 -233
q0 -81 44 -130t131 -49z" />
    <glyph glyph-name="Ocircumflex" unicode="&#xd4;" horiz-adv-x="747" 
d="M311 747l190 169l118 -169h-76l-57 81l-89 -81h-86zM329 -9q-133 0 -202 76.5t-69 198.5q0 180 114.5 310t285.5 130q133 0 202 -77t69 -199q0 -117 -51 -217.5t-143.5 -161t-205.5 -60.5zM339 93q123 0 203.5 99t80.5 231q0 83 -44 132t-131 49q-124 0 -204 -99
t-80 -233q0 -81 44 -130t131 -49z" />
    <glyph glyph-name="Otilde" unicode="&#xd5;" horiz-adv-x="747" 
d="M544 765q-28 0 -47 11.5t-27 26t-19 26t-24 11.5q-39 0 -55 -70h-60q12 66 44 100t78 34q25 0 43 -11.5t26.5 -26t20 -26t24.5 -11.5q17 0 32 20.5t21 51.5h63q-12 -67 -44 -101.5t-76 -34.5zM329 -9q-133 0 -202 76.5t-69 198.5q0 180 114.5 310t285.5 130
q133 0 202 -77t69 -199q0 -117 -51 -217.5t-143.5 -161t-205.5 -60.5zM339 93q123 0 203.5 99t80.5 231q0 83 -44 132t-131 49q-124 0 -204 -99t-80 -233q0 -81 44 -130t131 -49z" />
    <glyph glyph-name="Odieresis" unicode="&#xd6;" horiz-adv-x="747" 
d="M341 793l22 108h87l-22 -108h-87zM532 793l21 108h87l-22 -108h-86zM329 -9q-133 0 -202 76.5t-69 198.5q0 180 114.5 310t285.5 130q133 0 202 -77t69 -199q0 -117 -51 -217.5t-143.5 -161t-205.5 -60.5zM339 93q123 0 203.5 99t80.5 231q0 83 -44 132t-131 49
q-124 0 -204 -99t-80 -233q0 -81 44 -130t131 -49z" />
    <glyph glyph-name="multiply" unicode="&#xd7;" horiz-adv-x="533" 
d="M88 91l-51 59l180 151l-121 150l70 61l120 -151l180 150l50 -60l-179 -150l121 -151l-70 -59l-122 149z" />
    <glyph glyph-name="Oslash" unicode="&#xd8;" horiz-adv-x="747" 
d="M739 697l-69 -80q59 -72 59 -187q0 -117 -51 -217.5t-143.5 -161t-205.5 -60.5q-98 0 -164 44l-31 -35h-85l68 79q-59 72 -59 187q0 180 114.5 310t285.5 130q98 0 165 -45l31 36h85zM164 272q0 -64 27 -108l360 414q-41 26 -103 26q-124 0 -204 -99t-80 -233zM623 423
q0 65 -27 109l-359 -414q41 -25 102 -25q123 0 203.5 99t80.5 231z" />
    <glyph glyph-name="Ugrave" unicode="&#xd9;" horiz-adv-x="681" 
d="M402 759l-172 142h112l138 -142h-78zM295 -9q-110 0 -166 49t-56 142q0 32 8 74l86 441h107l-85 -437q-7 -35 -7 -64q0 -52 28.5 -76.5t94.5 -24.5q87 0 132 43t62 131l83 428h108l-87 -444q-51 -262 -308 -262z" />
    <glyph glyph-name="Uacute" unicode="&#xda;" horiz-adv-x="681" 
d="M402 759l137 142h113l-172 -142h-78zM295 -9q-110 0 -166 49t-56 142q0 32 8 74l86 441h107l-85 -437q-7 -35 -7 -64q0 -52 28.5 -76.5t94.5 -24.5q87 0 132 43t62 131l83 428h108l-87 -444q-51 -262 -308 -262z" />
    <glyph glyph-name="Ucircumflex" unicode="&#xdb;" horiz-adv-x="681" 
d="M278 747l190 169l118 -169h-76l-57 81l-89 -81h-86zM295 -9q-110 0 -166 49t-56 142q0 32 8 74l86 441h107l-85 -437q-7 -35 -7 -64q0 -52 28.5 -76.5t94.5 -24.5q87 0 132 43t62 131l83 428h108l-87 -444q-51 -262 -308 -262z" />
    <glyph glyph-name="Udieresis" unicode="&#xdc;" horiz-adv-x="681" 
d="M308 793l22 108h87l-22 -108h-87zM499 793l21 108h87l-22 -108h-86zM295 -9q-110 0 -166 49t-56 142q0 32 8 74l86 441h107l-85 -437q-7 -35 -7 -64q0 -52 28.5 -76.5t94.5 -24.5q87 0 132 43t62 131l83 428h108l-87 -444q-51 -262 -308 -262z" />
    <glyph glyph-name="Yacute" unicode="&#xdd;" horiz-adv-x="647" 
d="M385 759l137 142h113l-172 -142h-78zM222 0l53 270l-182 427h124l127 -324l257 324h129l-347 -427l-54 -270h-107z" />
    <glyph glyph-name="Thorn" unicode="&#xde;" horiz-adv-x="568" 
d="M46 0l136 697h98l-19 -97h127q89 0 136.5 -44t47.5 -119q0 -114 -76 -176t-203 -62h-111l-38 -199h-98zM200 288h106q79 0 123.5 35.5t44.5 102.5q0 89 -119 89h-111z" />
    <glyph glyph-name="germandbls" unicode="&#xdf;" horiz-adv-x="636" 
d="M397 -9q-76 0 -131.5 41t-63.5 98l87 30q6 -34 34.5 -58.5t74.5 -24.5q47 0 73 23.5t26 55.5q0 23 -23 37.5t-55.5 23t-65.5 20.5t-56 38t-23 67q0 44 25 74t60 45.5t70.5 28t60.5 29t25 40.5q0 26 -30 39t-76 13q-52 0 -89.5 -17t-57 -48t-28 -54.5t-14.5 -55.5
l-85 -437h-107l86 445q8 40 19 72.5t34 69.5t54 62.5t81 42t112 16.5q94 0 148.5 -35.5t54.5 -95.5q0 -48 -25 -82.5t-60.5 -51.5t-71 -30t-60.5 -28t-25 -36q0 -19 23 -30t56 -20t66 -21.5t56 -42.5t23 -75q0 -71 -57.5 -119.5t-144.5 -48.5z" />
    <glyph glyph-name="agrave" unicode="&#xe0;" horiz-adv-x="578" 
d="M385 555h-78l-172 142h112zM448 493h103l-96 -493h-102l11 60q-59 -69 -158 -69q-85 0 -130 51.5t-45 139.5q0 127 74 223.5t189 96.5q47 0 85 -19t57 -51zM415 289q3 55 -24 87.5t-82 32.5q-79 0 -127.5 -66t-48.5 -151q0 -106 103 -106q77 0 126.5 60t52.5 143z" />
    <glyph glyph-name="aacute" unicode="&#xe1;" horiz-adv-x="578" 
d="M557 697l-172 -142h-78l137 142h113zM436 432l12 61h103l-96 -493h-102l11 60q-59 -69 -158 -69q-85 0 -130 51.5t-45 139.5q0 127 74 223.5t189 96.5q47 0 85 -19t57 -51zM415 289q3 55 -24 87.5t-82 32.5q-79 0 -127.5 -66t-48.5 -151q0 -106 103 -106q77 0 126.5 60
t52.5 143z" />
    <glyph glyph-name="acircumflex" unicode="&#xe2;" horiz-adv-x="578" 
d="M358 624l-89 -81h-86l190 169l118 -169h-76zM448 493h103l-96 -493h-102l11 60q-59 -69 -158 -69q-85 0 -130 51.5t-45 139.5q0 127 74 223.5t189 96.5q47 0 85 -19t57 -51zM415 289q3 55 -24 87.5t-82 32.5q-79 0 -127.5 -66t-48.5 -151q0 -106 103 -106q77 0 126.5 60
t52.5 143z" />
    <glyph glyph-name="atilde" unicode="&#xe3;" horiz-adv-x="578" 
d="M300 636q-39 0 -55 -70h-60q12 66 44 100t78 34q25 0 43 -11.5t26.5 -26t20 -26t24.5 -11.5q17 0 32 20.5t21 51.5h63q-12 -67 -44 -101.5t-76 -34.5q-28 0 -47 11.5t-27 26t-19 26t-24 11.5zM448 493h103l-96 -493h-102l11 60q-59 -69 -158 -69q-85 0 -130 51.5
t-45 139.5q0 127 74 223.5t189 96.5q47 0 85 -19t57 -51zM415 289q3 55 -24 87.5t-82 32.5q-79 0 -127.5 -66t-48.5 -151q0 -106 103 -106q77 0 126.5 60t52.5 143z" />
    <glyph glyph-name="adieresis" unicode="&#xe4;" horiz-adv-x="578" 
d="M323 697l-22 -108h-87l22 108h87zM513 697l-22 -108h-86l21 108h87zM448 493h103l-96 -493h-102l11 60q-59 -69 -158 -69q-85 0 -130 51.5t-45 139.5q0 127 74 223.5t189 96.5q47 0 85 -19t57 -51zM415 289q3 55 -24 87.5t-82 32.5q-79 0 -127.5 -66t-48.5 -151
q0 -106 103 -106q77 0 126.5 60t52.5 143z" />
    <glyph glyph-name="aring" unicode="&#xe5;" horiz-adv-x="578" 
d="M346 531q-47 0 -73 34.5t-18 80.5q9 43 44.5 72.5t79.5 29.5q45 0 72.5 -34t17.5 -82q-8 -43 -44 -72t-79 -29zM316 642q-4 -20 7 -35t32 -15q19 0 35 13t20 32q4 21 -8 35.5t-32 14.5q-19 0 -34.5 -13t-19.5 -32zM448 493h103l-96 -493h-102l11 60q-59 -69 -158 -69
q-85 0 -130 51.5t-45 139.5q0 127 74 223.5t189 96.5q47 0 85 -19t57 -51zM415 289q3 55 -24 87.5t-82 32.5q-79 0 -127.5 -66t-48.5 -151q0 -106 103 -106q77 0 126.5 60t52.5 143z" />
    <glyph glyph-name="ae" unicode="&#xe6;" horiz-adv-x="835" 
d="M791 210h-333q-3 -15 -3 -29q0 -95 92 -95q80 0 144 57l62 -68q-93 -81 -214 -81q-65 0 -106.5 26.5t-57.5 71.5h-5q-50 -62 -100.5 -81.5t-108.5 -19.5q-68 0 -110.5 34.5t-42.5 93.5q0 53 21 88.5t59.5 53t79.5 24t94 6.5h112q7 40 7 49q0 72 -87 72q-86 0 -155 -69
l-64 68q91 91 216 91q133 0 169 -78q73 75 168 75q89 0 135 -48.5t46 -130.5q0 -52 -18 -110zM612 412q-54 0 -92 -37.5t-49 -89.5h236q8 26 8 45q0 39 -26.5 60.5t-76.5 21.5zM187 78q63 0 108 38.5t64 98.5h-101q-64 0 -104.5 -23.5t-40.5 -65.5q0 -48 74 -48z" />
    <glyph glyph-name="ccedilla" unicode="&#xe7;" horiz-adv-x="495" 
d="M229 81q42 0 77.5 25t54.5 67l87 -43q-37 -66 -95.5 -102t-127.5 -37l-37 -46q34 -8 57 -30.5t23 -60.5q0 -51 -32.5 -80t-81.5 -29q-58 0 -98 37l39 45q20 -25 54 -25q23 0 39 13t16 34q0 56 -110 56l72 92q-68 16 -103 68.5t-35 125.5q0 126 81.5 218.5t201.5 92.5
q74 0 122 -37t62 -108l-103 -32q-3 42 -26.5 64.5t-62.5 22.5q-75 0 -123 -68.5t-48 -155.5q0 -48 23.5 -77.5t73.5 -29.5z" />
    <glyph glyph-name="egrave" unicode="&#xe8;" horiz-adv-x="519" 
d="M363 555h-78l-172 142h112zM476 210h-346q-3 -15 -3 -27q0 -99 109 -99q76 0 140 60l62 -69q-94 -84 -211 -84q-100 0 -149 54t-49 141q0 130 79 223t200 93q92 0 138.5 -51.5t46.5 -134.5q0 -55 -17 -106zM300 415q-60 0 -99.5 -38t-54.5 -91h245q8 20 8 42
q0 38 -25.5 62.5t-73.5 24.5z" />
    <glyph glyph-name="eacute" unicode="&#xe9;" horiz-adv-x="519" 
d="M535 697l-172 -142h-78l137 142h113zM308 502q92 0 138.5 -51.5t46.5 -134.5q0 -55 -17 -106h-346q-3 -15 -3 -27q0 -99 109 -99q76 0 140 60l62 -69q-94 -84 -211 -84q-100 0 -149 54t-49 141q0 130 79 223t200 93zM300 415q-60 0 -99.5 -38t-54.5 -91h245q8 20 8 42
q0 38 -25.5 62.5t-73.5 24.5z" />
    <glyph glyph-name="ecircumflex" unicode="&#xea;" horiz-adv-x="519" 
d="M336 624l-89 -81h-86l190 169l118 -169h-76zM476 210h-346q-3 -15 -3 -27q0 -99 109 -99q76 0 140 60l62 -69q-94 -84 -211 -84q-100 0 -149 54t-49 141q0 130 79 223t200 93q92 0 138.5 -51.5t46.5 -134.5q0 -55 -17 -106zM300 415q-60 0 -99.5 -38t-54.5 -91h245
q8 20 8 42q0 38 -25.5 62.5t-73.5 24.5z" />
    <glyph glyph-name="edieresis" unicode="&#xeb;" horiz-adv-x="519" 
d="M301 697l-22 -108h-87l22 108h87zM491 697l-22 -108h-86l21 108h87zM476 210h-346q-3 -15 -3 -27q0 -99 109 -99q76 0 140 60l62 -69q-94 -84 -211 -84q-100 0 -149 54t-49 141q0 130 79 223t200 93q92 0 138.5 -51.5t46.5 -134.5q0 -55 -17 -106zM300 415
q-60 0 -99.5 -38t-54.5 -91h245q8 20 8 42q0 38 -25.5 62.5t-73.5 24.5z" />
    <glyph glyph-name="igrave" unicode="&#xec;" horiz-adv-x="253" 
d="M147 555l-172 142h112l138 -142h-78zM27 0l96 493h103l-96 -493h-103z" />
    <glyph glyph-name="iacute" unicode="&#xed;" horiz-adv-x="253" 
d="M148 555l137 142h113l-172 -142h-78zM27 0l96 493h103l-96 -493h-103z" />
    <glyph glyph-name="icircumflex" unicode="&#xee;" horiz-adv-x="253" 
d="M24 543l190 169l118 -169h-76l-57 81l-89 -81h-86zM27 0l96 493h103l-96 -493h-103z" />
    <glyph glyph-name="idieresis" unicode="&#xef;" horiz-adv-x="253" 
d="M54 589l22 108h87l-22 -108h-87zM245 589l21 108h87l-22 -108h-86zM27 0l96 493h103l-96 -493h-103z" />
    <glyph glyph-name="eth" unicode="&#xf0;" horiz-adv-x="587" 
d="M604 624l-54 -14q31 -53 31 -131q0 -52 -12 -112q-32 -165 -128 -269t-231 -104q-90 0 -139.5 48.5t-49.5 129.5q0 129 97.5 227.5t221.5 98.5q49 0 86.5 -20t54.5 -56q6 43 6 76q0 54 -25 88l-180 -48l-4 49l142 38q-52 31 -145 37l16 69q156 -15 226 -80l83 22z
M448 273q5 20 5 39q0 45 -26.5 73.5t-81.5 28.5q-97 0 -162.5 -74.5t-65.5 -159.5q0 -47 29.5 -72t77.5 -25q82 0 143.5 57.5t80.5 132.5z" />
    <glyph glyph-name="ntilde" unicode="&#xf1;" horiz-adv-x="563" 
d="M296 636q-39 0 -55 -70h-60q12 66 44 100t78 34q25 0 43 -11.5t26.5 -26t20 -26t24.5 -11.5q17 0 32 20.5t21 51.5h63q-12 -67 -44 -101.5t-76 -34.5q-28 0 -47 11.5t-27 26t-19 26t-24 11.5zM370 502q74 0 111 -39t37 -105q0 -24 -6 -56l-59 -302h-103l57 293q7 30 7 48
q0 71 -79 71q-40 0 -70 -17.5t-48.5 -51t-29 -65t-18.5 -75.5l-39 -203h-103l96 493h103l-12 -54q59 63 156 63z" />
    <glyph glyph-name="ograve" unicode="&#xf2;" horiz-adv-x="549" 
d="M296 555l-172 142h112l138 -142h-78zM230 -9q-95 0 -149 57t-54 147q0 125 85 216t207 91q95 0 149.5 -57t54.5 -146q0 -125 -86 -216.5t-207 -91.5zM238 81q80 0 132 66t52 153q0 52 -27.5 82t-82.5 30q-81 0 -132.5 -65.5t-51.5 -152.5q0 -51 27.5 -82t82.5 -31z" />
    <glyph glyph-name="oacute" unicode="&#xf3;" horiz-adv-x="549" 
d="M296 555l137 142h113l-172 -142h-78zM230 -9q-95 0 -149 57t-54 147q0 125 85 216t207 91q95 0 149.5 -57t54.5 -146q0 -125 -86 -216.5t-207 -91.5zM238 81q80 0 132 66t52 153q0 52 -27.5 82t-82.5 30q-81 0 -132.5 -65.5t-51.5 -152.5q0 -51 27.5 -82t82.5 -31z" />
    <glyph glyph-name="ocircumflex" unicode="&#xf4;" horiz-adv-x="549" 
d="M172 543l190 169l118 -169h-76l-57 81l-89 -81h-86zM230 -9q-95 0 -149 57t-54 147q0 125 85 216t207 91q95 0 149.5 -57t54.5 -146q0 -125 -86 -216.5t-207 -91.5zM238 81q80 0 132 66t52 153q0 52 -27.5 82t-82.5 30q-81 0 -132.5 -65.5t-51.5 -152.5q0 -51 27.5 -82
t82.5 -31z" />
    <glyph glyph-name="otilde" unicode="&#xf5;" horiz-adv-x="549" 
d="M406 561q-28 0 -47 11.5t-27 26t-19 26t-24 11.5q-39 0 -55 -70h-60q12 66 44 100t78 34q25 0 43 -11.5t26.5 -26t20 -26t24.5 -11.5q17 0 32 20.5t21 51.5h63q-12 -67 -44 -101.5t-76 -34.5zM230 -9q-95 0 -149 57t-54 147q0 125 85 216t207 91q95 0 149.5 -57
t54.5 -146q0 -125 -86 -216.5t-207 -91.5zM238 81q80 0 132 66t52 153q0 52 -27.5 82t-82.5 30q-81 0 -132.5 -65.5t-51.5 -152.5q0 -51 27.5 -82t82.5 -31z" />
    <glyph glyph-name="odieresis" unicode="&#xf6;" horiz-adv-x="549" 
d="M203 589l22 108h87l-22 -108h-87zM394 589l21 108h87l-22 -108h-86zM230 -9q-95 0 -149 57t-54 147q0 125 85 216t207 91q95 0 149.5 -57t54.5 -146q0 -125 -86 -216.5t-207 -91.5zM238 81q80 0 132 66t52 153q0 52 -27.5 82t-82.5 30q-81 0 -132.5 -65.5t-51.5 -152.5
q0 -51 27.5 -82t82.5 -31z" />
    <glyph glyph-name="divide" unicode="&#xf7;" horiz-adv-x="497" 
d="M227 426l24 123h112l-24 -123h-112zM52 268l16 86h402l-17 -86h-401zM158 71l24 123h112l-24 -123h-112z" />
    <glyph glyph-name="oslash" unicode="&#xf8;" horiz-adv-x="549" 
d="M549 538l-77 -96q51 -56 51 -143q0 -125 -86 -216.5t-207 -91.5q-60 0 -103 23l-48 -59h-79l78 97q-51 56 -51 143q0 125 85 216t207 91q60 0 103 -23l48 59h79zM128 194q0 -35 14 -63l220 273q-22 8 -50 8q-81 0 -132.5 -65.5t-51.5 -152.5zM422 300q0 37 -14 63
l-220 -273q21 -9 50 -9q80 0 132 66t52 153z" />
    <glyph glyph-name="ugrave" unicode="&#xf9;" horiz-adv-x="563" 
d="M374 555h-78l-172 142h112zM433 493h103l-96 -493h-103l12 54q-59 -63 -157 -63q-73 0 -109.5 39.5t-36.5 104.5q0 23 5 56l59 302h103l-56 -286q-6 -36 -6 -51q0 -75 77 -75q40 0 70 19t48.5 53t29.5 67.5t19 76.5z" />
    <glyph glyph-name="uacute" unicode="&#xfa;" horiz-adv-x="563" 
d="M546 697l-172 -142h-78l137 142h113zM395 297l38 196h103l-96 -493h-103l12 54q-59 -63 -157 -63q-73 0 -109.5 39.5t-36.5 104.5q0 23 5 56l59 302h103l-56 -286q-6 -36 -6 -51q0 -75 77 -75q40 0 70 19t48.5 53t29.5 67.5t19 76.5z" />
    <glyph glyph-name="ucircumflex" unicode="&#xfb;" horiz-adv-x="563" 
d="M347 624l-89 -81h-86l190 169l118 -169h-76zM433 493h103l-96 -493h-103l12 54q-59 -63 -157 -63q-73 0 -109.5 39.5t-36.5 104.5q0 23 5 56l59 302h103l-56 -286q-6 -36 -6 -51q0 -75 77 -75q40 0 70 19t48.5 53t29.5 67.5t19 76.5z" />
    <glyph glyph-name="udieresis" unicode="&#xfc;" horiz-adv-x="563" 
d="M311 697l-22 -108h-87l22 108h87zM501 697l-22 -108h-86l21 108h87zM433 493h103l-96 -493h-103l12 54q-59 -63 -157 -63q-73 0 -109.5 39.5t-36.5 104.5q0 23 5 56l59 302h103l-56 -286q-6 -36 -6 -51q0 -75 77 -75q40 0 70 19t48.5 53t29.5 67.5t19 76.5z" />
    <glyph glyph-name="yacute" unicode="&#xfd;" horiz-adv-x="503" 
d="M522 697l-172 -142h-78l137 142h113zM434 493h115l-411 -697h-114l128 218l-103 479h111l67 -352z" />
    <glyph glyph-name="thorn" unicode="&#xfe;" horiz-adv-x="578" 
d="M372 502q85 0 130.5 -51.5t45.5 -139.5q0 -127 -74.5 -223.5t-189.5 -96.5q-45 0 -82 18t-57 49l-53 -262h-105l176 901h105l-51 -254q59 59 155 59zM269 82q79 0 128 67.5t49 155.5q0 106 -103 106q-77 0 -127 -62t-53 -147q-3 -55 24 -87.5t82 -32.5z" />
    <glyph glyph-name="ydieresis" unicode="&#xff;" horiz-adv-x="503" 
d="M287 697l-22 -108h-87l22 108h87zM477 697l-22 -108h-86l21 108h87zM434 493h115l-411 -697h-114l128 218l-103 479h111l67 -352z" />
    <glyph glyph-name="Amacron" unicode="&#x100;" horiz-adv-x="652" 
d="M580 842l-12 -61h-274l12 61h274zM480 0l-29 164h-269l-93 -164h-125l409 697h82l137 -697h-112zM234 255h200l-48 269z" />
    <glyph glyph-name="amacron" unicode="&#x101;" horiz-adv-x="578" 
d="M499 638l-12 -61h-274l12 61h274zM448 493h103l-96 -493h-102l11 60q-59 -69 -158 -69q-85 0 -130 51.5t-45 139.5q0 127 74 223.5t189 96.5q47 0 85 -19t57 -51zM415 289q3 55 -24 87.5t-82 32.5q-79 0 -127.5 -66t-48.5 -151q0 -106 103 -106q77 0 126.5 60t52.5 143z
" />
    <glyph glyph-name="Abreve" unicode="&#x102;" horiz-adv-x="652" 
d="M423 769q-77 0 -111 35t-22 97h73q-7 -37 13.5 -54t57.5 -17q76 0 91 71h73q-13 -69 -56.5 -100.5t-118.5 -31.5zM373 697h82l137 -697h-112l-29 164h-269l-93 -164h-125zM234 255h200l-48 269z" />
    <glyph glyph-name="abreve" unicode="&#x103;" horiz-adv-x="578" 
d="M341 565q-77 0 -111 35t-22 97h73q-7 -37 13.5 -54t57.5 -17q76 0 91 71h73q-13 -69 -56.5 -100.5t-118.5 -31.5zM448 493h103l-96 -493h-102l11 60q-59 -69 -158 -69q-85 0 -130 51.5t-45 139.5q0 127 74 223.5t189 96.5q47 0 85 -19t57 -51zM415 289q3 55 -24 87.5
t-82 32.5q-79 0 -127.5 -66t-48.5 -151q0 -106 103 -106q77 0 126.5 60t52.5 143z" />
    <glyph glyph-name="Aogonek" unicode="&#x104;" horiz-adv-x="652" 
d="M555 -122l47 -44q-46 -51 -109 -51q-42 0 -67.5 22.5t-24.5 61.5q3 80 99 133h-20l-29 164h-269l-93 -164h-125l409 697h82l137 -697q-60 -25 -89 -54t-30 -55q-1 -17 9.5 -27t27.5 -10q25 0 45 24zM234 255h200l-48 269z" />
    <glyph glyph-name="aogonek" unicode="&#x105;" horiz-adv-x="578" 
d="M373 -146q25 0 45 24l47 -44q-46 -51 -109 -51q-42 0 -67.5 22.5t-24.5 61.5q3 80 99 133h-10l11 60q-59 -69 -158 -69q-85 0 -130 51.5t-45 139.5q0 127 74 223.5t189 96.5q47 0 85 -19t57 -51l12 61h103l-96 -493q-60 -25 -89 -54t-30 -55q-1 -17 9.5 -27t27.5 -10z
M236 86q77 0 126.5 60t52.5 143q3 55 -24 87.5t-82 32.5q-79 0 -127.5 -66t-48.5 -151q0 -106 103 -106z" />
    <glyph glyph-name="Cacute" unicode="&#x106;" horiz-adv-x="712" 
d="M445 759l137 142h113l-172 -142h-78zM333 -9q-137 0 -205.5 74.5t-68.5 196.5q0 188 113 316.5t291 128.5q116 0 183 -53.5t84 -145.5l-103 -32q-24 129 -174 129q-130 0 -209.5 -98t-79.5 -238q0 -81 44 -128.5t135 -47.5q157 0 235 138l94 -44q-116 -196 -339 -196z
" />
    <glyph glyph-name="cacute" unicode="&#x107;" horiz-adv-x="495" 
d="M270 555l137 142h113l-172 -142h-78zM223 -9q-96 0 -145.5 56t-49.5 144q0 126 81.5 218.5t201.5 92.5q74 0 122 -37t62 -108l-103 -32q-3 42 -26.5 64.5t-62.5 22.5q-75 0 -123 -68.5t-48 -155.5q0 -48 23.5 -77.5t73.5 -29.5q42 0 77.5 25t54.5 67l87 -43
q-37 -67 -96 -103t-129 -36z" />
    <glyph glyph-name="Cdotaccent" unicode="&#x10a;" horiz-adv-x="712" 
d="M436 793l22 108h108l-22 -108h-108zM333 -9q-137 0 -205.5 74.5t-68.5 196.5q0 188 113 316.5t291 128.5q116 0 183 -53.5t84 -145.5l-103 -32q-24 129 -174 129q-130 0 -209.5 -98t-79.5 -238q0 -81 44 -128.5t135 -47.5q157 0 235 138l94 -44q-116 -196 -339 -196z" />
    <glyph glyph-name="cdotaccent" unicode="&#x10b;" horiz-adv-x="495" 
d="M261 589l22 108h108l-22 -108h-108zM223 -9q-96 0 -145.5 56t-49.5 144q0 126 81.5 218.5t201.5 92.5q74 0 122 -37t62 -108l-103 -32q-3 42 -26.5 64.5t-62.5 22.5q-75 0 -123 -68.5t-48 -155.5q0 -48 23.5 -77.5t73.5 -29.5q42 0 77.5 25t54.5 67l87 -43
q-37 -67 -96 -103t-129 -36z" />
    <glyph glyph-name="Ccaron" unicode="&#x10c;" horiz-adv-x="712" 
d="M479 732l-122 169h76l56 -80l90 80h85zM333 -9q-137 0 -205.5 74.5t-68.5 196.5q0 188 113 316.5t291 128.5q116 0 183 -53.5t84 -145.5l-103 -32q-24 129 -174 129q-130 0 -209.5 -98t-79.5 -238q0 -81 44 -128.5t135 -47.5q157 0 235 138l94 -44q-116 -196 -339 -196z
" />
    <glyph glyph-name="ccaron" unicode="&#x10d;" horiz-adv-x="495" 
d="M304 528l-122 169h76l56 -80l90 80h85zM223 -9q-96 0 -145.5 56t-49.5 144q0 126 81.5 218.5t201.5 92.5q74 0 122 -37t62 -108l-103 -32q-3 42 -26.5 64.5t-62.5 22.5q-75 0 -123 -68.5t-48 -155.5q0 -48 23.5 -77.5t73.5 -29.5q42 0 77.5 25t54.5 67l87 -43
q-37 -67 -96 -103t-129 -36z" />
    <glyph glyph-name="Dcaron" unicode="&#x10e;" horiz-adv-x="698" 
d="M445 732l-122 169h76l56 -80l90 80h85zM46 0l136 697h195q148 0 225.5 -68t77.5 -195q0 -193 -118.5 -313.5t-316.5 -120.5h-199zM172 99h78q153 0 238.5 93.5t85.5 243.5q0 85 -51 123.5t-162 38.5h-92z" />
    <glyph glyph-name="dcaron" unicode="&#x10f;" horiz-adv-x="578" 
d="M488 697h103l-136 -697h-102l12 60q-58 -69 -159 -69q-85 0 -130 51.5t-45 139.5q0 127 74 223.5t189 96.5q47 0 84.5 -19t56.5 -51zM677 697h110l-147 -219h-63zM415 289q3 55 -24 87.5t-82 32.5q-79 0 -127.5 -66t-48.5 -151q0 -106 103 -106q77 0 126.5 60t52.5 143z
" />
    <glyph glyph-name="Dcroat" unicode="&#x110;" horiz-adv-x="698" 
d="M377 697q148 0 225.5 -68t77.5 -195q0 -193 -118.5 -313.5t-316.5 -120.5h-199l61 314h-78l13 69h79l61 314h195zM250 99q153 0 238.5 93.5t85.5 243.5q0 85 -51 123.5t-162 38.5h-92l-42 -215h121l-13 -69h-121l-42 -215h78z" />
    <glyph glyph-name="dcroat" unicode="&#x111;" horiz-adv-x="578" 
d="M636 642l-13 -69h-56l-112 -573h-102l12 60q-58 -69 -159 -69q-85 0 -130 51.5t-45 139.5q0 127 74 223.5t189 96.5q47 0 84.5 -19t56.5 -51l28 141h-146l13 69h147l11 55h103l-11 -55h56zM415 289q3 55 -24 87.5t-82 32.5q-79 0 -127.5 -66t-48.5 -151q0 -106 103 -106
q77 0 126.5 60t52.5 143z" />
    <glyph glyph-name="Emacron" unicode="&#x112;" horiz-adv-x="611" 
d="M291 781l12 61h274l-12 -61h-274zM46 0l136 697h462l-20 -99h-355l-37 -191h326l-19 -99h-326l-41 -209h354l-18 -99h-462z" />
    <glyph glyph-name="emacron" unicode="&#x113;" horiz-adv-x="519" 
d="M477 638l-12 -61h-274l12 61h274zM476 210h-346q-3 -15 -3 -27q0 -99 109 -99q76 0 140 60l62 -69q-94 -84 -211 -84q-100 0 -149 54t-49 141q0 130 79 223t200 93q92 0 138.5 -51.5t46.5 -134.5q0 -55 -17 -106zM300 415q-60 0 -99.5 -38t-54.5 -91h245q8 20 8 42
q0 38 -25.5 62.5t-73.5 24.5z" />
    <glyph glyph-name="Edotaccent" unicode="&#x116;" horiz-adv-x="611" 
d="M377 793l22 108h108l-22 -108h-108zM46 0l136 697h462l-20 -99h-355l-37 -191h326l-19 -99h-326l-41 -209h354l-18 -99h-462z" />
    <glyph glyph-name="edotaccent" unicode="&#x117;" horiz-adv-x="519" 
d="M406 697l-22 -108h-108l22 108h108zM476 210h-346q-3 -15 -3 -27q0 -99 109 -99q76 0 140 60l62 -69q-94 -84 -211 -84q-100 0 -149 54t-49 141q0 130 79 223t200 93q92 0 138.5 -51.5t46.5 -134.5q0 -55 -17 -106zM300 415q-60 0 -99.5 -38t-54.5 -91h245q8 20 8 42
q0 38 -25.5 62.5t-73.5 24.5z" />
    <glyph glyph-name="Eogonek" unicode="&#x118;" horiz-adv-x="611" 
d="M624 598h-355l-37 -191h326l-19 -99h-326l-41 -209h354l-18 -99h-1q-60 -25 -89 -54t-30 -55q-1 -17 9.5 -27t27.5 -10q25 0 45 24l47 -44q-46 -51 -109 -51q-42 0 -67.5 22.5t-24.5 61.5q3 80 99 133h-369l136 697h462z" />
    <glyph glyph-name="eogonek" unicode="&#x119;" horiz-adv-x="519" 
d="M476 210h-346q-3 -15 -3 -27q0 -99 109 -99q76 0 140 60l62 -69q-63 -55 -129 -73q-98 -46 -100 -101q-1 -17 9.5 -27t27.5 -10q25 0 45 24l47 -44q-46 -51 -109 -51q-42 0 -67.5 22.5t-24.5 61.5q3 64 70 115q-90 5 -134 58t-44 136q0 130 79 223t200 93
q92 0 138.5 -51.5t46.5 -134.5q0 -55 -17 -106zM300 415q-60 0 -99.5 -38t-54.5 -91h245q8 20 8 42q0 38 -25.5 62.5t-73.5 24.5z" />
    <glyph glyph-name="Ecaron" unicode="&#x11a;" horiz-adv-x="611" 
d="M420 732l-122 169h76l56 -80l90 80h85zM46 0l136 697h462l-20 -99h-355l-37 -191h326l-19 -99h-326l-41 -209h354l-18 -99h-462z" />
    <glyph glyph-name="ecaron" unicode="&#x11b;" horiz-adv-x="519" 
d="M505 697l-185 -169l-122 169h76l56 -80l90 80h85zM308 502q92 0 138.5 -51.5t46.5 -134.5q0 -55 -17 -106h-346q-3 -15 -3 -27q0 -99 109 -99q76 0 140 60l62 -69q-94 -84 -211 -84q-100 0 -149 54t-49 141q0 130 79 223t200 93zM300 415q-60 0 -99.5 -38t-54.5 -91h245
q8 20 8 42q0 38 -25.5 62.5t-73.5 24.5z" />
    <glyph glyph-name="Gbreve" unicode="&#x11e;" horiz-adv-x="754" 
d="M472 769q-77 0 -111 35t-22 97h73q-7 -37 13.5 -54t57.5 -17q76 0 91 71h73q-13 -69 -56.5 -100.5t-118.5 -31.5zM427 285l17 86h266l-72 -371h-85l11 97q-39 -51 -99.5 -78.5t-132.5 -27.5q-136 0 -205 75.5t-69 200.5q0 183 114 311.5t292 128.5q116 0 182 -54.5
t84 -144.5l-103 -32q-24 129 -173 129q-131 0 -210 -97t-79 -235q0 -180 177 -180q93 0 159.5 49.5t84.5 141.5l2 1h-161z" />
    <glyph glyph-name="gbreve" unicode="&#x11f;" horiz-adv-x="511" 
d="M311 565q-77 0 -111 35t-22 97h73q-7 -37 13.5 -54t57.5 -17q76 0 91 71h73q-13 -69 -56.5 -100.5t-118.5 -31.5zM150 164q-36 -18 -36 -46q0 -25 31 -36.5t75 -16t88.5 -13t75.5 -36t31 -74.5q0 -76 -70 -115.5t-177 -39.5q-97 0 -149.5 33.5t-52.5 97.5q0 17 7 50
l92 52q-43 26 -43 80q0 69 70 116q-23 35 -23 82q0 84 68 144t161 60q67 0 115 -35l85 64l43 -66l-83 -59q11 -28 11 -59q0 -85 -67 -144.5t-159 -59.5q-54 0 -93 21zM295 416q-52 0 -88.5 -36.5t-36.5 -82.5q0 -32 20 -50.5t56 -18.5q52 0 87 36t35 83q0 33 -19.5 51
t-53.5 18zM312 -73q0 16 -9.5 26.5t-29.5 16.5t-38.5 9t-49 7t-48.5 8l-67 -56q0 -1 -2 -8.5t-2 -12.5q0 -56 110 -56q63 0 99.5 17.5t36.5 48.5z" />
    <glyph glyph-name="Gdotaccent" unicode="&#x120;" horiz-adv-x="754" 
d="M559 901l-22 -108h-108l22 108h108zM427 285l17 86h266l-72 -371h-85l11 97q-39 -51 -99.5 -78.5t-132.5 -27.5q-136 0 -205 75.5t-69 200.5q0 183 114 311.5t292 128.5q116 0 182 -54.5t84 -144.5l-103 -32q-24 129 -173 129q-131 0 -210 -97t-79 -235q0 -180 177 -180
q93 0 159.5 49.5t84.5 141.5l2 1h-161z" />
    <glyph glyph-name="gdotaccent" unicode="&#x121;" horiz-adv-x="511" 
d="M398 697l-22 -108h-108l22 108h108zM150 164q-36 -18 -36 -46q0 -25 31 -36.5t75 -16t88.5 -13t75.5 -36t31 -74.5q0 -76 -70 -115.5t-177 -39.5q-97 0 -149.5 33.5t-52.5 97.5q0 17 7 50l92 52q-43 26 -43 80q0 69 70 116q-23 35 -23 82q0 84 68 144t161 60
q67 0 115 -35l85 64l43 -66l-83 -59q11 -28 11 -59q0 -85 -67 -144.5t-159 -59.5q-54 0 -93 21zM295 416q-52 0 -88.5 -36.5t-36.5 -82.5q0 -32 20 -50.5t56 -18.5q52 0 87 36t35 83q0 33 -19.5 51t-53.5 18zM312 -73q0 16 -9.5 26.5t-29.5 16.5t-38.5 9t-49 7t-48.5 8
l-67 -56q0 -1 -2 -8.5t-2 -12.5q0 -56 110 -56q63 0 99.5 17.5t36.5 48.5z" />
    <glyph glyph-name="uni0122" unicode="&#x122;" horiz-adv-x="754" 
d="M427 285l17 86h266l-72 -371h-85l11 97q-39 -51 -99.5 -78.5t-132.5 -27.5q-136 0 -205 75.5t-69 200.5q0 183 114 311.5t292 128.5q116 0 182 -54.5t84 -144.5l-103 -32q-24 129 -173 129q-131 0 -210 -97t-79 -235q0 -180 177 -180q93 0 159.5 49.5t84.5 141.5l2 1
h-161zM156 -224l107 170h110l-154 -170h-63z" />
    <glyph glyph-name="uni0123" unicode="&#x123;" horiz-adv-x="511" 
d="M436 705l-104 -152h-109l150 152h63zM150 164q-36 -18 -36 -46q0 -25 31 -36.5t75 -16t88.5 -13t75.5 -36t31 -74.5q0 -76 -70 -115.5t-177 -39.5q-97 0 -149.5 33.5t-52.5 97.5q0 17 7 50l92 52q-43 26 -43 80q0 69 70 116q-23 35 -23 82q0 84 68 144t161 60
q67 0 115 -35l85 64l43 -66l-83 -59q11 -28 11 -59q0 -85 -67 -144.5t-159 -59.5q-54 0 -93 21zM295 416q-52 0 -88.5 -36.5t-36.5 -82.5q0 -32 20 -50.5t56 -18.5q52 0 87 36t35 83q0 33 -19.5 51t-53.5 18zM312 -73q0 16 -9.5 26.5t-29.5 16.5t-38.5 9t-49 7t-48.5 8
l-67 -56q0 -1 -2 -8.5t-2 -12.5q0 -56 110 -56q63 0 99.5 17.5t36.5 48.5z" />
    <glyph glyph-name="Hbar" unicode="&#x126;" horiz-adv-x="726" 
d="M754 585l-12 -61h-56l-102 -524h-107l60 308h-323l-61 -308h-107l102 524h-55l12 61h55l22 112h107l-22 -112h324l22 112h107l-22 -112h56zM556 407l23 117h-324l-23 -117h324z" />
    <glyph glyph-name="hbar" unicode="&#x127;" horiz-adv-x="564" 
d="M372 502q88 0 123 -56t18 -144l-59 -302h-103l57 293q3 16 5 27.5t0.5 30.5t-8.5 30.5t-24.5 21t-44.5 9.5q-40 0 -70 -17.5t-48.5 -51t-29 -65t-18.5 -75.5l-39 -203h-103l112 573h-49l13 69h49l11 55h103l-11 -55h154l-13 -69h-155l-27 -134q59 63 157 63z" />
    <glyph glyph-name="Itilde" unicode="&#x128;" horiz-adv-x="295" 
d="M319 765q-28 0 -47 11.5t-27 26t-19 26t-24 11.5q-39 0 -55 -70h-60q12 66 44 100t78 34q25 0 43 -11.5t26.5 -26t20 -26t24.5 -11.5q17 0 32 20.5t21 51.5h63q-12 -67 -44 -101.5t-76 -34.5zM46 0l136 697h107l-136 -697h-107z" />
    <glyph glyph-name="itilde" unicode="&#x129;" horiz-adv-x="253" 
d="M257 561q-28 0 -47 11.5t-27 26t-19 26t-24 11.5q-39 0 -55 -70h-60q12 66 44 100t78 34q25 0 43 -11.5t26.5 -26t20 -26t24.5 -11.5q17 0 32 20.5t21 51.5h63q-12 -67 -44 -101.5t-76 -34.5zM27 0l96 493h103l-96 -493h-103z" />
    <glyph glyph-name="Imacron" unicode="&#x12a;" horiz-adv-x="295" 
d="M115 781l12 61h274l-12 -61h-274zM46 0l136 697h107l-136 -697h-107z" />
    <glyph glyph-name="imacron" unicode="&#x12b;" horiz-adv-x="253" 
d="M53 577l12 61h274l-12 -61h-274zM27 0l96 493h103l-96 -493h-103z" />
    <glyph glyph-name="Iogonek" unicode="&#x12e;" horiz-adv-x="295" 
d="M71 -146q25 0 45 24l47 -44q-46 -51 -109 -51q-42 0 -67.5 22.5t-24.5 61.5q3 80 99 133h-15l136 697h107l-136 -697q-60 -25 -89 -54t-30 -55q-1 -17 9.5 -27t27.5 -10z" />
    <glyph glyph-name="iogonek" unicode="&#x12f;" horiz-adv-x="253" 
d="M161 697h108l-22 -108h-108zM130 0q-60 -25 -89 -54t-30 -55q-1 -17 9.5 -27t27.5 -10q25 0 45 24l47 -44q-46 -51 -109 -51q-42 0 -67.5 22.5t-24.5 61.5q3 80 99 133h-11l96 493h103z" />
    <glyph glyph-name="Idotaccent" unicode="&#x130;" horiz-adv-x="295" 
d="M200 793l22 108h108l-22 -108h-108zM46 0l136 697h107l-136 -697h-107z" />
    <glyph glyph-name="dotlessi" unicode="&#x131;" horiz-adv-x="253" 
d="M27 0l96 493h103l-96 -493h-103z" />
    <glyph glyph-name="uni0136" unicode="&#x136;" horiz-adv-x="701" 
d="M766 697l-309 -262l181 -435h-114l-144 369l-185 -157l-42 -212h-107l136 697h107l-69 -351l404 351h142zM130 -224l107 170h110l-154 -170h-63z" />
    <glyph glyph-name="uni0137" unicode="&#x137;" horiz-adv-x="543" 
d="M28 0l136 697h103l-84 -424l245 220h140l-219 -189l145 -304h-121l-106 240l-107 -96l-29 -144h-103zM79 -224l107 170h110l-154 -170h-63z" />
    <glyph glyph-name="kgreenlandic" unicode="&#x138;" horiz-adv-x="542" 
d="M27 0l96 493h103l-45 -225l251 225h136l-220 -189l146 -304h-121l-106 240l-108 -96l-29 -144h-103z" />
    <glyph glyph-name="Lacute" unicode="&#x139;" horiz-adv-x="521" 
d="M209 759l137 142h113l-172 -142h-78zM46 0l136 697h107l-117 -598h305l-19 -99h-412z" />
    <glyph glyph-name="lacute" unicode="&#x13a;" horiz-adv-x="270" 
d="M183 759l137 142h113l-172 -142h-78zM134 -9q-51 0 -76 32.5t-13 94.5l113 579h103l-113 -581q-4 -20 2.5 -27.5t24.5 -7.5q20 0 44 8l-11 -86q-39 -12 -74 -12z" />
    <glyph glyph-name="uni013B" unicode="&#x13b;" horiz-adv-x="521" 
d="M46 0l136 697h107l-117 -598h305l-19 -99h-412zM84 -224l107 170h110l-154 -170h-63z" />
    <glyph glyph-name="uni013C" unicode="&#x13c;" horiz-adv-x="270" 
d="M134 -9q-51 0 -76 32.5t-13 94.5l113 579h103l-113 -581q-4 -20 2.5 -27.5t24.5 -7.5q20 0 44 8l-11 -86q-39 -12 -74 -12zM-52 -224l107 170h110l-154 -170h-63z" />
    <glyph glyph-name="Lcaron" unicode="&#x13d;" horiz-adv-x="521" 
d="M46 0l136 697h107l-117 -598h305l-19 -99h-412zM388 478l100 219h110l-147 -219h-63z" />
    <glyph glyph-name="lcaron" unicode="&#x13e;" horiz-adv-x="270" 
d="M134 -9q-51 0 -76 32.5t-13 94.5l113 579h103l-113 -581q-4 -20 2.5 -27.5t24.5 -7.5q20 0 44 8l-11 -86q-39 -12 -74 -12zM254 478l100 219h110l-147 -219h-63z" />
    <glyph glyph-name="Lslash" unicode="&#x141;" horiz-adv-x="521" 
d="M172 99h305l-19 -99h-412l43 221l-68 -47l19 107l70 48l72 368h107l-55 -284l145 100l-19 -105l-147 -102z" />
    <glyph glyph-name="lslash" unicode="&#x142;" horiz-adv-x="270" 
d="M193 347l-45 -231q-4 -20 2.5 -27.5t24.5 -7.5q20 0 44 8l-11 -86q-39 -12 -74 -12q-51 0 -76 32.5t-13 94.5l29 147l-69 -47l19 107l71 48l63 324h103l-47 -243l73 50l-19 -105z" />
    <glyph glyph-name="Nacute" unicode="&#x143;" horiz-adv-x="717" 
d="M670 901l-172 -142h-78l137 142h113zM604 697h107l-136 -697h-112l-211 510l-99 -510h-107l136 697h111l212 -507z" />
    <glyph glyph-name="nacute" unicode="&#x144;" horiz-adv-x="563" 
d="M553 697l-172 -142h-78l137 142h113zM370 502q74 0 111 -39t37 -105q0 -24 -6 -56l-59 -302h-103l57 293q7 30 7 48q0 71 -79 71q-40 0 -70 -17.5t-48.5 -51t-29 -65t-18.5 -75.5l-39 -203h-103l96 493h103l-12 -54q59 63 156 63z" />
    <glyph glyph-name="uni0145" unicode="&#x145;" horiz-adv-x="717" 
d="M604 697h107l-136 -697h-112l-211 510l-99 -510h-107l136 697h111l212 -507zM138 -224l107 170h110l-154 -170h-63z" />
    <glyph glyph-name="uni0146" unicode="&#x146;" horiz-adv-x="563" 
d="M370 502q74 0 111 -39t37 -105q0 -24 -6 -56l-59 -302h-103l57 293q7 30 7 48q0 71 -79 71q-40 0 -70 -17.5t-48.5 -51t-29 -65t-18.5 -75.5l-39 -203h-103l96 493h103l-12 -54q59 63 156 63zM62 -224l107 170h110l-154 -170h-63z" />
    <glyph glyph-name="Ncaron" unicode="&#x147;" horiz-adv-x="717" 
d="M639 901l-185 -169l-122 169h76l56 -80l90 80h85zM604 697h107l-136 -697h-112l-211 510l-99 -510h-107l136 697h111l212 -507z" />
    <glyph glyph-name="ncaron" unicode="&#x148;" horiz-adv-x="563" 
d="M523 697l-185 -169l-122 169h76l56 -80l90 80h85zM370 502q74 0 111 -39t37 -105q0 -24 -6 -56l-59 -302h-103l57 293q7 30 7 48q0 71 -79 71q-40 0 -70 -17.5t-48.5 -51t-29 -65t-18.5 -75.5l-39 -203h-103l96 493h103l-12 -54q59 63 156 63z" />
    <glyph glyph-name="napostrophe" unicode="&#x149;" horiz-adv-x="670" 
d="M163 697h120l-182 -281h-70zM477 502q74 0 111 -39t37 -105q0 -24 -6 -56l-59 -302h-103l57 293q7 30 7 48q0 71 -79 71q-40 0 -70 -17.5t-48.5 -51t-29 -65t-18.5 -75.5l-39 -203h-103l96 493h103l-12 -54q59 63 156 63z" />
    <glyph glyph-name="Eng" unicode="&#x14a;" horiz-adv-x="717" 
d="M604 697h107l-138 -706q-15 -75 -62.5 -122t-128.5 -47q-33 0 -71 8l9 67q19 -4 39 -4q45 0 73.5 22.5t34.5 54.5q3 16 -3 33l-212 508l-99 -511h-107l136 697h111l212 -509z" />
    <glyph glyph-name="eng" unicode="&#x14b;" horiz-adv-x="564" 
d="M371 502q73 0 110 -39.5t37 -104.5q0 -24 -6 -56l-77 -397q-24 -118 -125 -118q-34 0 -76 16l12 80q17 -6 37 -6q19 0 33.5 12t18.5 32l72 369q6 36 6 47q0 72 -78 72q-33 0 -59 -13t-43 -34t-31 -55t-22.5 -66t-17.5 -78l-32 -163h-103l96 493h103l-12 -56q60 65 157 65
z" />
    <glyph glyph-name="Omacron" unicode="&#x14c;" horiz-adv-x="747" 
d="M340 781l12 61h274l-12 -61h-274zM329 -9q-133 0 -202 76.5t-69 198.5q0 180 114.5 310t285.5 130q133 0 202 -77t69 -199q0 -117 -51 -217.5t-143.5 -161t-205.5 -60.5zM339 93q123 0 203.5 99t80.5 231q0 83 -44 132t-131 49q-124 0 -204 -99t-80 -233q0 -81 44 -130
t131 -49z" />
    <glyph glyph-name="omacron" unicode="&#x14d;" horiz-adv-x="549" 
d="M202 577l12 61h274l-12 -61h-274zM230 -9q-95 0 -149 57t-54 147q0 125 85 216t207 91q95 0 149.5 -57t54.5 -146q0 -125 -86 -216.5t-207 -91.5zM238 81q80 0 132 66t52 153q0 52 -27.5 82t-82.5 30q-81 0 -132.5 -65.5t-51.5 -152.5q0 -51 27.5 -82t82.5 -31z" />
    <glyph glyph-name="Ohungarumlaut" unicode="&#x150;" horiz-adv-x="747" 
d="M338 742l141 159h99l-162 -159h-78zM523 742l141 159h112l-175 -159h-78zM329 -9q-133 0 -202 76.5t-69 198.5q0 180 114.5 310t285.5 130q133 0 202 -77t69 -199q0 -117 -51 -217.5t-143.5 -161t-205.5 -60.5zM339 93q123 0 203.5 99t80.5 231q0 83 -44 132t-131 49
q-124 0 -204 -99t-80 -233q0 -81 44 -130t131 -49z" />
    <glyph glyph-name="ohungarumlaut" unicode="&#x151;" horiz-adv-x="549" 
d="M200 538l141 159h99l-162 -159h-78zM385 538l141 159h112l-175 -159h-78zM230 -9q-95 0 -149 57t-54 147q0 125 85 216t207 91q95 0 149.5 -57t54.5 -146q0 -125 -86 -216.5t-207 -91.5zM238 81q80 0 132 66t52 153q0 52 -27.5 82t-82.5 30q-81 0 -132.5 -65.5
t-51.5 -152.5q0 -51 27.5 -82t82.5 -31z" />
    <glyph glyph-name="OE" unicode="&#x152;" horiz-adv-x="1113" 
d="M329 -9q-133 0 -202 76.5t-69 198.5q0 180 114.5 310t285.5 130q144 0 208 -102l18 93h461l-20 -99h-354l-37 -191h326l-19 -99h-326l-41 -209h354l-19 -99h-461l17 85q-99 -94 -236 -94zM339 93q123 0 203.5 99t80.5 231q0 83 -44 132t-131 49q-124 0 -204 -99t-80 -233
q0 -81 44 -130t131 -49z" />
    <glyph glyph-name="oe" unicode="&#x153;" horiz-adv-x="904" 
d="M230 -9q-95 0 -149 57t-54 147q0 125 85 216t207 91q128 0 173 -100q82 100 201 100q92 0 138.5 -51.5t46.5 -134.5q0 -57 -17 -106h-346q-2 -10 -2 -27q0 -99 108 -99q76 0 140 60l62 -69q-94 -84 -211 -84q-132 0 -174 99q-82 -99 -208 -99zM530 285h247q7 20 7 43
q0 39 -25.5 63.5t-73.5 24.5q-59 0 -99 -38t-56 -93zM238 81q80 0 132 66t52 153q0 52 -27.5 82t-82.5 30q-80 0 -132 -65.5t-52 -152.5q0 -51 27.5 -82t82.5 -31z" />
    <glyph glyph-name="Racute" unicode="&#x154;" horiz-adv-x="621" 
d="M622 901l-172 -142h-78l137 142h113zM600 535q0 -91 -45.5 -149t-129.5 -79l128 -307h-114l-113 296h-51h-65l-58 -296h-106l136 697h216q101 0 151.5 -43t50.5 -119zM328 394q164 0 164 127q0 77 -120 77h-103l-40 -204h99z" />
    <glyph glyph-name="racute" unicode="&#x155;" horiz-adv-x="400" 
d="M472 697l-172 -142h-78l137 142h113zM212 418q25 42 65.5 63t82.5 21q50 0 90 -27l-64 -87q-20 14 -55 14q-58 0 -98.5 -39.5t-55.5 -118.5l-47 -244h-103l96 493h104z" />
    <glyph glyph-name="uni0156" unicode="&#x156;" horiz-adv-x="621" 
d="M600 535q0 -91 -45.5 -149t-129.5 -79l128 -307h-114l-113 296h-51h-65l-58 -296h-106l136 697h216q101 0 151.5 -43t50.5 -119zM229 394h99q164 0 164 127q0 77 -120 77h-103zM90 -224l107 170h110l-154 -170h-63z" />
    <glyph glyph-name="uni0157" unicode="&#x157;" horiz-adv-x="400" 
d="M360 502q50 0 90 -27l-64 -87q-20 14 -55 14q-58 0 -98.5 -39.5t-55.5 -118.5l-47 -244h-103l96 493h104l-15 -75q25 42 65.5 63t82.5 21zM-20 -224l107 170h110l-154 -170h-63z" />
    <glyph glyph-name="Rcaron" unicode="&#x158;" horiz-adv-x="621" 
d="M591 901l-185 -169l-122 169h76l56 -80l90 80h85zM600 535q0 -91 -45.5 -149t-129.5 -79l128 -307h-114l-113 296h-51h-65l-58 -296h-106l136 697h216q101 0 151.5 -43t50.5 -119zM229 394h99q164 0 164 127q0 77 -120 77h-103z" />
    <glyph glyph-name="rcaron" unicode="&#x159;" horiz-adv-x="400" 
d="M441 697l-185 -169l-122 169h76l56 -80l90 80h85zM360 502q50 0 90 -27l-64 -87q-20 14 -55 14q-58 0 -98.5 -39.5t-55.5 -118.5l-47 -244h-103l96 493h104l-15 -75q25 42 65.5 63t82.5 21z" />
    <glyph glyph-name="Sacute" unicode="&#x15a;" horiz-adv-x="560" 
d="M341 759l137 142h113l-172 -142h-78zM255 -8q-101 0 -169.5 54.5t-66.5 150.5l109 19q-4 -64 34 -96t100 -32q65 0 106.5 32t41.5 81q0 24 -9 42t-30.5 33.5t-37 23.5t-46.5 22q-41 19 -61.5 30t-48.5 33t-40.5 51t-12.5 67q0 89 67 146t166 57q70 0 124 -30.5t76 -91.5
l-97 -48q-12 36 -43.5 55.5t-70.5 19.5q-49 0 -81.5 -27.5t-32.5 -68.5q0 -21 9 -37.5t30 -30.5t36 -22t46 -22q41 -19 64 -31.5t50 -34.5t39 -51.5t12 -67.5q0 -97 -76 -161.5t-187 -64.5z" />
    <glyph glyph-name="sacute" unicode="&#x15b;" horiz-adv-x="449" 
d="M248 555l137 142h113l-172 -142h-78zM194 -9q-79 0 -133 39.5t-64 98.5l90 31q6 -35 33 -58.5t75 -23.5q44 0 72 19.5t28 51.5q0 23 -23 39.5t-55.5 28.5t-65.5 26.5t-56 42t-23 66.5q0 66 54.5 108t136.5 42q131 0 177 -109l-84 -37q-25 62 -97 62q-36 0 -61 -14.5
t-25 -40.5q0 -21 23 -36t55.5 -26t65.5 -25.5t56 -44t23 -71.5q0 -75 -58 -122t-144 -47z" />
    <glyph glyph-name="Scedilla" unicode="&#x15e;" horiz-adv-x="560" 
d="M353 403q41 -19 64 -31.5t50 -34.5t39 -51.5t12 -67.5q0 -90 -65 -152t-165 -72l-39 -49q34 -8 57 -30.5t23 -60.5q0 -51 -32.5 -80t-81.5 -29q-58 0 -98 37l39 45q20 -25 54 -25q23 0 39 13t16 34q0 56 -110 56l69 88q-90 9 -148.5 62.5t-56.5 141.5l109 19
q-4 -64 34 -96t100 -32q65 0 106.5 32t41.5 81q0 24 -9 42t-30.5 33.5t-37 23.5t-46.5 22q-41 19 -61.5 30t-48.5 33t-40.5 51t-12.5 67q0 89 67 146t166 57q70 0 124 -30.5t76 -91.5l-97 -48q-12 36 -43.5 55.5t-70.5 19.5q-49 0 -81.5 -27.5t-32.5 -68.5q0 -21 9 -37.5
t30 -30.5t36 -22t46 -22z" />
    <glyph glyph-name="scedilla" unicode="&#x15f;" horiz-adv-x="449" 
d="M173 363q0 -21 23 -36t55.5 -26t65.5 -25.5t56 -44t23 -71.5q0 -73 -55 -119.5t-138 -49.5l-37 -46q34 -8 57 -30.5t23 -60.5q0 -51 -32.5 -80t-81.5 -29q-58 0 -98 37l39 45q20 -25 54 -25q23 0 39 13t16 34q0 56 -110 56l71 91q-60 12 -99 48.5t-47 84.5l90 31
q6 -35 33 -58.5t75 -23.5q44 0 72 19.5t28 51.5q0 23 -23 39.5t-55.5 28.5t-65.5 26.5t-56 42t-23 66.5q0 66 54.5 108t136.5 42q131 0 177 -109l-84 -37q-25 62 -97 62q-36 0 -61 -14.5t-25 -40.5z" />
    <glyph glyph-name="Scaron" unicode="&#x160;" horiz-adv-x="560" 
d="M375 732l-122 169h76l56 -80l90 80h85zM255 -8q-101 0 -169.5 54.5t-66.5 150.5l109 19q-4 -64 34 -96t100 -32q65 0 106.5 32t41.5 81q0 24 -9 42t-30.5 33.5t-37 23.5t-46.5 22q-41 19 -61.5 30t-48.5 33t-40.5 51t-12.5 67q0 89 67 146t166 57q70 0 124 -30.5
t76 -91.5l-97 -48q-12 36 -43.5 55.5t-70.5 19.5q-49 0 -81.5 -27.5t-32.5 -68.5q0 -21 9 -37.5t30 -30.5t36 -22t46 -22q41 -19 64 -31.5t50 -34.5t39 -51.5t12 -67.5q0 -97 -76 -161.5t-187 -64.5z" />
    <glyph glyph-name="scaron" unicode="&#x161;" horiz-adv-x="449" 
d="M282 528l-122 169h76l56 -80l90 80h85zM194 -9q-79 0 -133 39.5t-64 98.5l90 31q6 -35 33 -58.5t75 -23.5q44 0 72 19.5t28 51.5q0 23 -23 39.5t-55.5 28.5t-65.5 26.5t-56 42t-23 66.5q0 66 54.5 108t136.5 42q131 0 177 -109l-84 -37q-25 62 -97 62q-36 0 -61 -14.5
t-25 -40.5q0 -21 23 -36t55.5 -26t65.5 -25.5t56 -44t23 -71.5q0 -75 -58 -122t-144 -47z" />
    <glyph glyph-name="uni0162" unicode="&#x162;" horiz-adv-x="588" 
d="M102 697h560l-20 -99h-226l-116 -598h-23l-44 -55q34 -8 57 -30.5t23 -60.5q0 -51 -32.5 -80t-81.5 -29q-58 0 -98 37l39 45q20 -25 54 -25q23 0 39 13t16 34q0 56 -110 56l74 95h-21l116 598h-226z" />
    <glyph glyph-name="uni0163" unicode="&#x163;" horiz-adv-x="349" 
d="M227 415l-54 -281q-2 -14 -2 -19q0 -38 49 -38q28 0 64 12l-12 -85q-43 -13 -85 -13h-2l-37 -46q34 -8 57 -30.5t23 -60.5q0 -51 -32.5 -80t-81.5 -29q-58 0 -98 37l39 45q20 -25 54 -25q23 0 39 13t16 34q0 56 -110 56l74 95h3q-64 23 -64 97q0 18 4 38l54 280h-81
l16 78h79l24 123l118 76l-39 -199h123l-16 -78h-122z" />
    <glyph glyph-name="Tcaron" unicode="&#x164;" horiz-adv-x="588" 
d="M389 732l-122 169h76l56 -80l90 80h85zM192 0l116 598h-226l20 99h560l-20 -99h-226l-116 -598h-108z" />
    <glyph glyph-name="tcaron" unicode="&#x165;" horiz-adv-x="349" 
d="M410 785h110l-147 -219h-63zM281 692l-39 -199h123l-16 -78h-122l-54 -281q-2 -14 -2 -19q0 -38 49 -38q28 0 64 12l-12 -85q-43 -13 -85 -13q-54 0 -87 26.5t-33 79.5q0 18 4 38l54 280h-81l16 78h79l24 123z" />
    <glyph glyph-name="Tbar" unicode="&#x166;" horiz-adv-x="588" 
d="M642 598h-226l-42 -215h98l-13 -69h-98l-61 -314h-108l61 314h-100l13 69h100l42 215h-226l20 99h560z" />
    <glyph glyph-name="tbar" unicode="&#x167;" horiz-adv-x="349" 
d="M349 415h-122l-26 -134h124l-13 -69h-124l-15 -78q-2 -14 -2 -19q0 -38 49 -38q28 0 64 12l-12 -85q-43 -13 -85 -13q-54 0 -87 26.5t-33 79.5q0 18 4 38l15 77h-80l13 69h80l26 134h-81l16 78h79l24 123l118 76l-39 -199h123z" />
    <glyph glyph-name="Utilde" unicode="&#x168;" horiz-adv-x="681" 
d="M511 765q-28 0 -47 11.5t-27 26t-19 26t-24 11.5q-39 0 -55 -70h-60q12 66 44 100t78 34q25 0 43 -11.5t26.5 -26t20 -26t24.5 -11.5q17 0 32 20.5t21 51.5h63q-12 -67 -44 -101.5t-76 -34.5zM295 -9q-110 0 -166 49t-56 142q0 32 8 74l86 441h107l-85 -437
q-7 -35 -7 -64q0 -52 28.5 -76.5t94.5 -24.5q87 0 132 43t62 131l83 428h108l-87 -444q-51 -262 -308 -262z" />
    <glyph glyph-name="utilde" unicode="&#x169;" horiz-adv-x="563" 
d="M288 636q-39 0 -55 -70h-60q12 66 44 100t78 34q25 0 43 -11.5t26.5 -26t20 -26t24.5 -11.5q17 0 32 20.5t21 51.5h63q-12 -67 -44 -101.5t-76 -34.5q-28 0 -47 11.5t-27 26t-19 26t-24 11.5zM433 493h103l-96 -493h-103l12 54q-59 -63 -157 -63q-73 0 -109.5 39.5
t-36.5 104.5q0 23 5 56l59 302h103l-56 -286q-6 -36 -6 -51q0 -75 77 -75q40 0 70 19t48.5 53t29.5 67.5t19 76.5z" />
    <glyph glyph-name="Umacron" unicode="&#x16a;" horiz-adv-x="681" 
d="M307 781l12 61h274l-12 -61h-274zM295 -9q-110 0 -166 49t-56 142q0 32 8 74l86 441h107l-85 -437q-7 -35 -7 -64q0 -52 28.5 -76.5t94.5 -24.5q87 0 132 43t62 131l83 428h108l-87 -444q-51 -262 -308 -262z" />
    <glyph glyph-name="umacron" unicode="&#x16b;" horiz-adv-x="563" 
d="M487 638l-12 -61h-274l12 61h274zM433 493h103l-96 -493h-103l12 54q-59 -63 -157 -63q-73 0 -109.5 39.5t-36.5 104.5q0 23 5 56l59 302h103l-56 -286q-6 -36 -6 -51q0 -75 77 -75q40 0 70 19t48.5 53t29.5 67.5t19 76.5z" />
    <glyph glyph-name="Uring" unicode="&#x16e;" horiz-adv-x="681" 
d="M430 679q-42 0 -67.5 26.5t-25.5 68.5q0 51 37 86.5t88 35.5q41 0 67 -26t26 -69q0 -52 -37 -87t-88 -35zM439 734q26 0 43.5 17t17.5 44q0 22 -13 34t-34 12q-26 0 -43.5 -17.5t-17.5 -43.5q0 -21 12.5 -33.5t34.5 -12.5zM295 -9q-110 0 -166 49t-56 142q0 32 8 74
l86 441h107l-85 -437q-7 -35 -7 -64q0 -52 28.5 -76.5t94.5 -24.5q87 0 132 43t62 131l83 428h108l-87 -444q-51 -262 -308 -262z" />
    <glyph glyph-name="uring" unicode="&#x16f;" horiz-adv-x="563" 
d="M334 531q-47 0 -73 34.5t-18 80.5q9 43 44.5 72.5t79.5 29.5q45 0 72.5 -34t17.5 -82q-8 -43 -44 -72t-79 -29zM304 642q-4 -20 7 -35t32 -15q19 0 35 13t20 32q4 21 -8 35.5t-32 14.5q-19 0 -34.5 -13t-19.5 -32zM433 493h103l-96 -493h-103l12 54q-59 -63 -157 -63
q-73 0 -109.5 39.5t-36.5 104.5q0 23 5 56l59 302h103l-56 -286q-6 -36 -6 -51q0 -75 77 -75q40 0 70 19t48.5 53t29.5 67.5t19 76.5z" />
    <glyph glyph-name="Uhungarumlaut" unicode="&#x170;" horiz-adv-x="681" 
d="M306 742l141 159h99l-162 -159h-78zM491 742l141 159h112l-175 -159h-78zM295 -9q-110 0 -166 49t-56 142q0 32 8 74l86 441h107l-85 -437q-7 -35 -7 -64q0 -52 28.5 -76.5t94.5 -24.5q87 0 132 43t62 131l83 428h108l-87 -444q-51 -262 -308 -262z" />
    <glyph glyph-name="uhungarumlaut" unicode="&#x171;" horiz-adv-x="563" 
d="M440 697l-162 -159h-78l141 159h99zM463 538h-78l141 159h112zM395 297l38 196h103l-96 -493h-103l12 54q-59 -63 -157 -63q-73 0 -109.5 39.5t-36.5 104.5q0 23 5 56l59 302h103l-56 -286q-6 -36 -6 -51q0 -75 77 -75q40 0 70 19t48.5 53t29.5 67.5t19 76.5z" />
    <glyph glyph-name="Uogonek" unicode="&#x172;" horiz-adv-x="681" 
d="M582 697h108l-87 -444q-43 -223 -238 -256q-56 -25 -83 -53t-28 -53q-1 -17 9.5 -27t27.5 -10q25 0 45 24l47 -44q-46 -51 -109 -51q-42 0 -67.5 22.5t-24.5 61.5q3 73 85 125q-96 6 -145 54.5t-49 135.5q0 32 8 74l86 441h107l-85 -437q-7 -35 -7 -64q0 -52 28.5 -76.5
t94.5 -24.5q87 0 132 43t62 131z" />
    <glyph glyph-name="uogonek" unicode="&#x173;" horiz-adv-x="563" 
d="M358 -146q25 0 45 24l47 -44q-46 -51 -109 -51q-42 0 -67.5 22.5t-24.5 61.5q3 80 99 133h-11l12 54q-59 -63 -157 -63q-73 0 -109.5 39.5t-36.5 104.5q0 23 5 56l59 302h103l-56 -286q-6 -36 -6 -51q0 -75 77 -75q40 0 70 19t48.5 53t29.5 67.5t19 76.5l38 196h103
l-96 -493q-60 -25 -89 -54t-30 -55q-1 -17 9.5 -27t27.5 -10z" />
    <glyph glyph-name="Wcircumflex" unicode="&#x174;" horiz-adv-x="981" 
d="M603 828l-89 -81h-86l190 169l118 -169h-76zM933 697h117l-341 -697h-106l-65 486l-255 -486h-105l-71 697h106l49 -533l257 494h92l65 -494z" />
    <glyph glyph-name="wcircumflex" unicode="&#x175;" horiz-adv-x="724" 
d="M433 624l-89 -81h-86l190 169l118 -169h-76zM650 493h111l-245 -493h-94l-41 348l-176 -348h-93l-54 493h108l25 -337l172 337h89l40 -334z" />
    <glyph glyph-name="Ycircumflex" unicode="&#x176;" horiz-adv-x="647" 
d="M261 747l190 169l118 -169h-76l-57 81l-89 -81h-86zM222 0l53 270l-182 427h124l127 -324l257 324h129l-347 -427l-54 -270h-107z" />
    <glyph glyph-name="ycircumflex" unicode="&#x177;" horiz-adv-x="503" 
d="M323 624l-89 -81h-86l190 169l118 -169h-76zM434 493h115l-411 -697h-114l128 218l-103 479h111l67 -352z" />
    <glyph glyph-name="Ydieresis" unicode="&#x178;" horiz-adv-x="647" 
d="M291 793l22 108h87l-22 -108h-87zM482 793l21 108h87l-22 -108h-86zM222 0l53 270l-182 427h124l127 -324l257 324h129l-347 -427l-54 -270h-107z" />
    <glyph glyph-name="Zacute" unicode="&#x179;" horiz-adv-x="627" 
d="M625 901l-172 -142h-78l137 142h113zM677 697l-15 -79l-511 -519h409l-19 -99h-558l14 76l515 522h-389l19 99h535z" />
    <glyph glyph-name="zacute" unicode="&#x17a;" horiz-adv-x="488" 
d="M515 697l-172 -142h-78l137 142h113zM72 406l18 87h412l-14 -76l-348 -330h282l-17 -87h-426l13 70l358 336h-278z" />
    <glyph glyph-name="Zdotaccent" unicode="&#x17b;" horiz-adv-x="627" 
d="M496 901l-22 -108h-108l22 108h108zM677 697l-15 -79l-511 -519h409l-19 -99h-558l14 76l515 522h-389l19 99h535z" />
    <glyph glyph-name="zdotaccent" unicode="&#x17c;" horiz-adv-x="488" 
d="M386 697l-22 -108h-108l22 108h108zM502 493l-14 -76l-348 -330h282l-17 -87h-426l13 70l358 336h-278l18 87h412z" />
    <glyph glyph-name="Zcaron" unicode="&#x17d;" horiz-adv-x="627" 
d="M595 901l-185 -169l-122 169h76l56 -80l90 80h85zM677 697l-15 -79l-511 -519h409l-19 -99h-558l14 76l515 522h-389l19 99h535z" />
    <glyph glyph-name="zcaron" unicode="&#x17e;" horiz-adv-x="488" 
d="M484 697l-185 -169l-122 169h76l56 -80l90 80h85zM502 493l-14 -76l-348 -330h282l-17 -87h-426l13 70l358 336h-278l18 87h412z" />
    <glyph glyph-name="florin" unicode="&#x192;" horiz-adv-x="470" 
d="M404 712q59 0 111 -52l-65 -61q-25 26 -53 26q-26 0 -47.5 -19.5t-27.5 -54.5l-11 -58h119l-15 -78h-119l-83 -426q-21 -104 -83.5 -155.5t-174.5 -51.5l11 79q73 0 110 32.5t53 112.5l80 409h-88l15 78h88l13 67q13 68 60.5 110t106.5 42z" />
    <glyph glyph-name="Ohorn" unicode="&#x1a0;" horiz-adv-x="747" 
d="M776 697h78l-9 -46q-25 -123 -123 -150q7 -32 7 -71q0 -117 -51 -217.5t-143.5 -161t-205.5 -60.5q-133 0 -202 76.5t-69 198.5q0 180 114.5 310t285.5 130q179 0 243 -139q50 16 65 84zM339 93q123 0 203.5 99t80.5 231q0 83 -44 132t-131 49q-124 0 -204 -99t-80 -233
q0 -81 44 -130t131 -49z" />
    <glyph glyph-name="ohorn" unicode="&#x1a1;" horiz-adv-x="549" 
d="M584 552h78l-9 -46q-25 -132 -136 -153q6 -25 6 -54q0 -125 -86 -216.5t-207 -91.5q-95 0 -149 57t-54 147q0 125 85 216t207 91q118 0 171 -84q36 3 56.5 28.5t27.5 59.5zM238 81q80 0 132 66t52 153q0 52 -27.5 82t-82.5 30q-81 0 -132.5 -65.5t-51.5 -152.5
q0 -51 27.5 -82t82.5 -31z" />
    <glyph glyph-name="Uhorn" unicode="&#x1af;" horiz-adv-x="681" 
d="M753 697h78l-9 -46q-31 -153 -172 -157l-47 -241q-51 -262 -308 -262q-110 0 -166 49t-56 142q0 32 8 74l86 441h107l-85 -437q-7 -35 -7 -64q0 -52 28.5 -76.5t94.5 -24.5q87 0 132 43t62 131l83 428h108l-26 -133q34 4 53.5 29t25.5 58z" />
    <glyph glyph-name="uhorn" unicode="&#x1b0;" horiz-adv-x="563" 
d="M565 627h78l-9 -46q-23 -114 -109 -146l-85 -435h-103l12 54q-59 -63 -157 -63q-73 0 -109.5 39.5t-36.5 104.5q0 23 5 56l59 302h103l-56 -286q-6 -36 -6 -51q0 -75 77 -75q40 0 70 19t48.5 53t29.5 67.5t19 76.5l38 196h31q39 0 61.5 26t29.5 62z" />
    <glyph glyph-name="uni01CD" unicode="&#x1cd;" horiz-adv-x="652" 
d="M608 901l-185 -169l-122 169h76l56 -80l90 80h85zM373 697h82l137 -697h-112l-29 164h-269l-93 -164h-125zM234 255h200l-48 269z" />
    <glyph glyph-name="uni01CE" unicode="&#x1ce;" horiz-adv-x="578" 
d="M527 697l-185 -169l-122 169h76l56 -80l90 80h85zM448 493h103l-96 -493h-102l11 60q-59 -69 -158 -69q-85 0 -130 51.5t-45 139.5q0 127 74 223.5t189 96.5q47 0 85 -19t57 -51zM415 289q3 55 -24 87.5t-82 32.5q-79 0 -127.5 -66t-48.5 -151q0 -106 103 -106
q77 0 126.5 60t52.5 143z" />
    <glyph glyph-name="uni01CF" unicode="&#x1cf;" horiz-adv-x="295" 
d="M244 732l-122 169h76l56 -80l90 80h85zM46 0l136 697h107l-136 -697h-107z" />
    <glyph glyph-name="uni01D0" unicode="&#x1d0;" horiz-adv-x="253" 
d="M182 528l-122 169h76l56 -80l90 80h85zM27 0l96 493h103l-96 -493h-103z" />
    <glyph glyph-name="uni01D1" unicode="&#x1d1;" horiz-adv-x="747" 
d="M469 732l-122 169h76l56 -80l90 80h85zM329 -9q-133 0 -202 76.5t-69 198.5q0 180 114.5 310t285.5 130q133 0 202 -77t69 -199q0 -117 -51 -217.5t-143.5 -161t-205.5 -60.5zM339 93q123 0 203.5 99t80.5 231q0 83 -44 132t-131 49q-124 0 -204 -99t-80 -233
q0 -81 44 -130t131 -49z" />
    <glyph glyph-name="uni01D2" unicode="&#x1d2;" horiz-adv-x="549" 
d="M331 528l-122 169h76l56 -80l90 80h85zM230 -9q-95 0 -149 57t-54 147q0 125 85 216t207 91q95 0 149.5 -57t54.5 -146q0 -125 -86 -216.5t-207 -91.5zM238 81q80 0 132 66t52 153q0 52 -27.5 82t-82.5 30q-81 0 -132.5 -65.5t-51.5 -152.5q0 -51 27.5 -82t82.5 -31z" />
    <glyph glyph-name="uni01D3" unicode="&#x1d3;" horiz-adv-x="681" 
d="M436 732l-122 169h76l56 -80l90 80h85zM295 -9q-110 0 -166 49t-56 142q0 32 8 74l86 441h107l-85 -437q-7 -35 -7 -64q0 -52 28.5 -76.5t94.5 -24.5q87 0 132 43t62 131l83 428h108l-87 -444q-51 -262 -308 -262z" />
    <glyph glyph-name="uni01D4" unicode="&#x1d4;" horiz-adv-x="563" 
d="M515 697l-185 -169l-122 169h76l56 -80l90 80h85zM433 493h103l-96 -493h-103l12 54q-59 -63 -157 -63q-73 0 -109.5 39.5t-36.5 104.5q0 23 5 56l59 302h103l-56 -286q-6 -36 -6 -51q0 -75 77 -75q40 0 70 19t48.5 53t29.5 67.5t19 76.5z" />
    <glyph glyph-name="uni01D5" unicode="&#x1d5;" horiz-adv-x="681" 
d="M347 985l12 61h274l-12 -61h-274zM308 793l22 108h87l-22 -108h-87zM499 793l21 108h87l-22 -108h-86zM295 -9q-110 0 -166 49t-56 142q0 32 8 74l86 441h107l-85 -437q-7 -35 -7 -64q0 -52 28.5 -76.5t94.5 -24.5q87 0 132 43t62 131l83 428h108l-87 -444
q-51 -262 -308 -262z" />
    <glyph glyph-name="uni01D6" unicode="&#x1d6;" horiz-adv-x="563" 
d="M527 842l-12 -61h-274l12 61h274zM311 697l-22 -108h-87l22 108h87zM479 589h-86l21 108h87zM433 493h103l-96 -493h-103l12 54q-59 -63 -157 -63q-73 0 -109.5 39.5t-36.5 104.5q0 23 5 56l59 302h103l-56 -286q-6 -36 -6 -51q0 -75 77 -75q40 0 70 19t48.5 53
t29.5 67.5t19 76.5z" />
    <glyph glyph-name="uni01D7" unicode="&#x1d7;" horiz-adv-x="681" 
d="M442 963l137 142h113l-172 -142h-78zM308 793l22 108h87l-22 -108h-87zM499 793l21 108h87l-22 -108h-86zM295 -9q-110 0 -166 49t-56 142q0 32 8 74l86 441h107l-85 -437q-7 -35 -7 -64q0 -52 28.5 -76.5t94.5 -24.5q87 0 132 43t62 131l83 428h108l-87 -444
q-51 -262 -308 -262z" />
    <glyph glyph-name="uni01D8" unicode="&#x1d8;" horiz-adv-x="563" 
d="M586 901l-172 -142h-78l137 142h113zM311 697l-22 -108h-87l22 108h87zM393 589l21 108h87l-22 -108h-86zM395 297l38 196h103l-96 -493h-103l12 54q-59 -63 -157 -63q-73 0 -109.5 39.5t-36.5 104.5q0 23 5 56l59 302h103l-56 -286q-6 -36 -6 -51q0 -75 77 -75
q40 0 70 19t48.5 53t29.5 67.5t19 76.5z" />
    <glyph glyph-name="uni01D9" unicode="&#x1d9;" horiz-adv-x="681" 
d="M476 936l-122 169h76l56 -80l90 80h85zM308 793l22 108h87l-22 -108h-87zM499 793l21 108h87l-22 -108h-86zM295 -9q-110 0 -166 49t-56 142q0 32 8 74l86 441h107l-85 -437q-7 -35 -7 -64q0 -52 28.5 -76.5t94.5 -24.5q87 0 132 43t62 131l83 428h108l-87 -444
q-51 -262 -308 -262z" />
    <glyph glyph-name="uni01DA" unicode="&#x1da;" horiz-adv-x="563" 
d="M555 901l-185 -169l-122 169h76l56 -80l90 80h85zM311 697l-22 -108h-87l22 108h87zM479 589h-86l21 108h87zM395 297l38 196h103l-96 -493h-103l12 54q-59 -63 -157 -63q-73 0 -109.5 39.5t-36.5 104.5q0 23 5 56l59 302h103l-56 -286q-6 -36 -6 -51q0 -75 77 -75
q40 0 70 19t48.5 53t29.5 67.5t19 76.5z" />
    <glyph glyph-name="uni01DB" unicode="&#x1db;" horiz-adv-x="681" 
d="M442 963l-172 142h112l138 -142h-78zM308 793l22 108h87l-22 -108h-87zM499 793l21 108h87l-22 -108h-86zM295 -9q-110 0 -166 49t-56 142q0 32 8 74l86 441h107l-85 -437q-7 -35 -7 -64q0 -52 28.5 -76.5t94.5 -24.5q87 0 132 43t62 131l83 428h108l-87 -444
q-51 -262 -308 -262z" />
    <glyph glyph-name="uni01DC" unicode="&#x1dc;" horiz-adv-x="563" 
d="M414 759h-78l-172 142h112zM289 589h-87l22 108h87zM393 589l21 108h87l-22 -108h-86zM433 493h103l-96 -493h-103l12 54q-59 -63 -157 -63q-73 0 -109.5 39.5t-36.5 104.5q0 23 5 56l59 302h103l-56 -286q-6 -36 -6 -51q0 -75 77 -75q40 0 70 19t48.5 53t29.5 67.5
t19 76.5z" />
    <glyph glyph-name="uni0218" unicode="&#x218;" horiz-adv-x="560" 
d="M255 -8q-101 0 -169.5 54.5t-66.5 150.5l109 19q-4 -64 34 -96t100 -32q65 0 106.5 32t41.5 81q0 24 -9 42t-30.5 33.5t-37 23.5t-46.5 22q-41 19 -61.5 30t-48.5 33t-40.5 51t-12.5 67q0 89 67 146t166 57q70 0 124 -30.5t76 -91.5l-97 -48q-12 36 -43.5 55.5
t-70.5 19.5q-49 0 -81.5 -27.5t-32.5 -68.5q0 -21 9 -37.5t30 -30.5t36 -22t46 -22q41 -19 64 -31.5t50 -34.5t39 -51.5t12 -67.5q0 -97 -76 -161.5t-187 -64.5zM89 -224l107 170h110l-154 -170h-63z" />
    <glyph glyph-name="uni0219" unicode="&#x219;" horiz-adv-x="449" 
d="M194 -9q-79 0 -133 39.5t-64 98.5l90 31q6 -35 33 -58.5t75 -23.5q44 0 72 19.5t28 51.5q0 23 -23 39.5t-55.5 28.5t-65.5 26.5t-56 42t-23 66.5q0 66 54.5 108t136.5 42q131 0 177 -109l-84 -37q-25 62 -97 62q-36 0 -61 -14.5t-25 -40.5q0 -21 23 -36t55.5 -26
t65.5 -25.5t56 -44t23 -71.5q0 -75 -58 -122t-144 -47zM6 -224l107 170h110l-154 -170h-63z" />
    <glyph glyph-name="uni021A" unicode="&#x21a;" horiz-adv-x="588" 
d="M192 0l116 598h-226l20 99h560l-20 -99h-226l-116 -598h-108zM73 -224l107 170h110l-154 -170h-63z" />
    <glyph glyph-name="uni021B" unicode="&#x21b;" horiz-adv-x="349" 
d="M227 415l-54 -281q-2 -14 -2 -19q0 -38 49 -38q28 0 64 12l-12 -85q-43 -13 -85 -13q-54 0 -87 26.5t-33 79.5q0 18 4 38l54 280h-81l16 78h79l24 123l118 76l-39 -199h123l-16 -78h-122zM-12 -224l107 170h110l-154 -170h-63z" />
    <glyph glyph-name="uni0237" unicode="&#x237;" horiz-adv-x="254" 
d="M-15 -213q-32 0 -74 16l12 80q17 -6 37 -6q19 0 33.5 12t18.5 32l111 572h103l-114 -588q-12 -60 -46 -89t-81 -29z" />
    <glyph glyph-name="circumflex" unicode="&#x2c6;" horiz-adv-x="328" 
d="M68 543l186 169l121 -169h-76l-56 81l-90 -81h-85z" />
    <glyph glyph-name="caron" unicode="&#x2c7;" horiz-adv-x="332" 
d="M224 537l-124 160h80l57 -76l88 76h83z" />
    <glyph glyph-name="breve" unicode="&#x2d8;" horiz-adv-x="403" 
d="M266 565q-77 0 -111 35t-22 97h73q-7 -37 13.5 -54t57.5 -17q76 0 91 71h73q-13 -69 -56.5 -100.5t-118.5 -31.5z" />
    <glyph glyph-name="dotaccent" unicode="&#x2d9;" horiz-adv-x="253" 
d="M139 589l22 108h108l-22 -108h-108z" />
    <glyph glyph-name="ring" unicode="&#x2da;" horiz-adv-x="311" 
d="M216 531q-43 0 -68.5 27t-24.5 71q1 50 37.5 84.5t87.5 34.5q42 0 67.5 -27t24.5 -70q-1 -51 -37.5 -85.5t-86.5 -34.5zM225 586q25 0 42.5 16.5t18.5 41.5q1 23 -12 36t-35 13q-25 0 -42.5 -16.5t-18.5 -41.5q-1 -23 12 -36t35 -13z" />
    <glyph glyph-name="ogonek" unicode="&#x2db;" horiz-adv-x="279" 
d="M64 -219q-42 0 -67.5 22.5t-24.5 61.5q1 44 32 79.5t75 57.5l84 -4q-60 -25 -89 -54t-30 -55q-1 -17 9.5 -27t27.5 -10q25 0 45 24l47 -44q-46 -51 -109 -51z" />
    <glyph glyph-name="tilde" unicode="&#x2dc;" horiz-adv-x="436" 
d="M349 561q-27 0 -46.5 11.5t-27.5 26t-19 26t-24 11.5q-20 0 -35.5 -20t-21.5 -50h-58q12 66 44 100t78 34q25 0 43 -11.5t26.5 -26t20 -26t24.5 -11.5q17 0 32.5 20.5t21.5 51.5h62q-12 -67 -44 -101.5t-76 -34.5z" />
    <glyph glyph-name="hungarumlaut" unicode="&#x2dd;" horiz-adv-x="442" 
d="M78 538l141 159h95l-158 -159h-78zM263 538l141 159h112l-175 -159h-78z" />
    <glyph glyph-name="uni02F5" unicode="&#x2f5;" horiz-adv-x="541" 
d="M213 334l-114 159h109l80 -159h-75zM425 334l-114 159h108l80 -159h-74z" />
    <glyph glyph-name="uni02F6" unicode="&#x2f6;" horiz-adv-x="545" 
d="M76 334l142 159h112l-176 -159h-78zM287 334l142 159h112l-176 -159h-78z" />
    <glyph glyph-name="gravecomb" unicode="&#x300;" 
d="M-31 555l-172 142h112l138 -142h-78z" />
    <glyph glyph-name="acutecomb" unicode="&#x301;" 
d="M-177 555l137 142h113l-172 -142h-78z" />
    <glyph glyph-name="uni0302" unicode="&#x302;" 
d="M-261 543l190 169l118 -169h-76l-57 81l-89 -81h-86z" />
    <glyph glyph-name="tildecomb" unicode="&#x303;" 
d="M-87 561q-28 0 -47 11.5t-27 26t-19 26t-24 11.5q-39 0 -55 -70h-60q12 66 44 100t78 34q25 0 43 -11.5t26.5 -26t20 -26t24.5 -11.5q17 0 32 20.5t21 51.5h63q-12 -67 -44 -101.5t-76 -34.5z" />
    <glyph glyph-name="uni0304" unicode="&#x304;" 
d="M-281 577l12 61h274l-12 -61h-274z" />
    <glyph glyph-name="uni0306" unicode="&#x306;" 
d="M-137 565q-77 0 -111 35t-22 97h73q-7 -37 13.5 -54t57.5 -17q76 0 91 71h73q-13 -69 -56.5 -100.5t-118.5 -31.5z" />
    <glyph glyph-name="uni0307" unicode="&#x307;" 
d="M-114 589l22 108h108l-22 -108h-108z" />
    <glyph glyph-name="uni0308" unicode="&#x308;" 
d="M-283 589l22 108h87l-22 -108h-87zM-92 589l21 108h87l-22 -108h-86z" />
    <glyph glyph-name="hookabovecomb" unicode="&#x309;" 
d="M-108 531l-10 48q80 11 80 48q0 34 -71 34h-18l12 57h12q59 0 94.5 -22.5t35.5 -63.5q0 -22 -8.5 -38.5t-19.5 -26.5t-31.5 -17.5t-35.5 -11t-40 -7.5z" />
    <glyph glyph-name="uni030A" unicode="&#x30a;" 
d="M-94 531q-47 0 -73 34.5t-18 80.5q9 43 44.5 72.5t79.5 29.5q45 0 72.5 -34t17.5 -82q-8 -43 -44 -72t-79 -29zM-85 592q19 0 35 13t20 32q4 21 -8 35.5t-32 14.5q-19 0 -34.5 -13t-19.5 -32q-4 -20 7 -35t32 -15z" />
    <glyph glyph-name="uni030B" unicode="&#x30b;" 
d="M-364 538l141 159h99l-162 -159h-78zM-179 538l141 159h112l-175 -159h-78z" />
    <glyph glyph-name="uni030C" unicode="&#x30c;" 
d="M-110 528l-122 169h76l56 -80l90 80h85z" />
    <glyph glyph-name="uni030F" unicode="&#x30f;" 
d="M-171 538l-175 159h112l141 -159h-78zM-32 538l-158 159h95l142 -159h-79z" />
    <glyph glyph-name="uni0312" unicode="&#x312;" 
d="M-161 553l150 152h63l-104 -152h-109z" />
    <glyph glyph-name="uni031B" unicode="&#x31b;" 
d="M-152 494l8 69q39 0 61.5 26t29.5 62l10 46h78l-9 -46q-14 -73 -58 -115t-120 -42z" />
    <glyph glyph-name="dotbelowcomb" unicode="&#x323;" 
d="M-262 -173l21 108h108l-21 -108h-108z" />
    <glyph glyph-name="uni0326" unicode="&#x326;" 
d="M-294 -224l107 170h110l-154 -170h-63z" />
    <glyph glyph-name="uni0327" unicode="&#x327;" 
d="M-231 -255q-58 0 -98 37l39 45q20 -25 54 -25q23 0 39 13t16 34q0 56 -110 56l74 95h64l-44 -55q34 -8 57 -30.5t23 -60.5q0 -51 -32.5 -80t-81.5 -29z" />
    <glyph glyph-name="uni0328" unicode="&#x328;" 
d="M-215 -219q-42 0 -67.5 22.5t-24.5 61.5q1 44 32 79.5t75 57.5l84 -4q-60 -25 -89 -54t-30 -55q-1 -17 9.5 -27t27.5 -10q25 0 45 24l47 -44q-46 -51 -109 -51z" />
    <glyph glyph-name="uni0335" unicode="&#x335;" 
d="M-375 256l13 69h306l-13 -69h-306z" />
    <glyph glyph-name="uni0336" unicode="&#x336;" 
d="M-719 250l12 61h649l-12 -61h-649z" />
    <glyph glyph-name="uni0337" unicode="&#x337;" 
d="M-261 217l19 107l263 179l-19 -105z" />
    <glyph glyph-name="uni0338" unicode="&#x338;" 
d="M-473 0l470 583h79l-470 -583h-79z" />
    <glyph glyph-name="uni0394" unicode="&#x394;" horiz-adv-x="607" 
d="M-36 0l414 697h27l142 -697h-583zM110 87h330l-81 432z" />
    <glyph glyph-name="uni03A9" unicode="&#x3a9;" horiz-adv-x="781" 
d="M746 419q0 -100 -53.5 -191.5t-138.5 -144.5h144l-16 -83h-280l15 91q112 41 176 129t64 199q0 84 -51 132.5t-141 48.5q-128 0 -213 -94t-85 -225t132 -194l-14 -87h-280l16 83h156q-46 37 -71.5 95t-25.5 124q0 154 117.5 269.5t275.5 115.5q124 0 198.5 -74.5
t74.5 -193.5z" />
    <glyph glyph-name="uni03BC" unicode="&#x3bc;" horiz-adv-x="577" 
d="M-4 -165l128 658h102l-57 -290q-11 -55 9 -86t67 -31q58 0 97.5 34.5t52.5 100.5l53 272h103l-96 -493h-103l13 63q-62 -72 -158 -72q-62 0 -89 32l-39 -188h-83z" />
    <glyph glyph-name="pi" unicode="&#x3c0;" horiz-adv-x="501" 
d="M373 -9q-36 0 -58.5 12t-29 30t-9 39t3.5 38l57 296h-134l-79 -406h-87l79 406h-44l17 87h408l-17 -87h-56l-57 -291q-9 -48 20 -48q12 0 29 10l18 -73q-22 -13 -61 -13z" />
    <glyph glyph-name="Wgrave" unicode="&#x1e80;" horiz-adv-x="981" 
d="M630 759h-78l-172 142h112zM933 697h117l-341 -697h-106l-65 486l-255 -486h-105l-71 697h106l49 -533l257 494h92l65 -494z" />
    <glyph glyph-name="wgrave" unicode="&#x1e81;" horiz-adv-x="724" 
d="M460 555h-78l-172 142h112zM650 493h111l-245 -493h-94l-41 348l-176 -348h-93l-54 493h108l25 -337l172 337h89l40 -334z" />
    <glyph glyph-name="Wacute" unicode="&#x1e82;" horiz-adv-x="981" 
d="M802 901l-172 -142h-78l137 142h113zM933 697h117l-341 -697h-106l-65 486l-255 -486h-105l-71 697h106l49 -533l257 494h92l65 -494z" />
    <glyph glyph-name="wacute" unicode="&#x1e83;" horiz-adv-x="724" 
d="M632 697l-172 -142h-78l137 142h113zM650 493h111l-245 -493h-94l-41 348l-176 -348h-93l-54 493h108l25 -337l172 337h89l40 -334z" />
    <glyph glyph-name="Wdieresis" unicode="&#x1e84;" horiz-adv-x="981" 
d="M567 901l-22 -108h-87l22 108h87zM757 901l-22 -108h-86l21 108h87zM933 697h117l-341 -697h-106l-65 486l-255 -486h-105l-71 697h106l49 -533l257 494h92l65 -494z" />
    <glyph glyph-name="wdieresis" unicode="&#x1e85;" horiz-adv-x="724" 
d="M398 697l-22 -108h-87l22 108h87zM588 697l-22 -108h-86l21 108h87zM650 493h111l-245 -493h-94l-41 348l-176 -348h-93l-54 493h108l25 -337l172 337h89l40 -334z" />
    <glyph glyph-name="uni1E9E" unicode="&#x1e9e;" horiz-adv-x="686" 
d="M426 -9q-84 0 -138.5 39.5t-63.5 99.5l98 41q10 -36 37.5 -58.5t71.5 -22.5q39 0 63 18t24 47q0 24 -22 38.5t-53 23.5t-62 19.5t-53 35t-22 62.5q0 39 21 72t61 70l124 117h-109q-78 0 -121.5 -41t-59.5 -125l-83 -428h-107l84 436q8 41 18.5 73t33 69.5t53 62t81.5 41
t117 16.5h279l-11 -60l-237 -229q-36 -36 -36 -57q0 -20 23 -33t55 -23.5t64.5 -24t55.5 -43t23 -72.5q0 -78 -62 -121t-147 -43z" />
    <glyph glyph-name="uni1EA0" unicode="&#x1ea0;" horiz-adv-x="652" 
d="M592 0h-112l-29 164h-269l-93 -164h-125l409 697h82zM234 255h200l-48 269zM192 -173l21 108h108l-21 -108h-108z" />
    <glyph glyph-name="uni1EA1" unicode="&#x1ea1;" horiz-adv-x="578" 
d="M448 493h103l-96 -493h-102l11 60q-59 -69 -158 -69q-85 0 -130 51.5t-45 139.5q0 127 74 223.5t189 96.5q47 0 85 -19t57 -51zM415 289q3 55 -24 87.5t-82 32.5q-79 0 -127.5 -66t-48.5 -151q0 -106 103 -106q77 0 126.5 60t52.5 143zM154 -173l21 108h108l-21 -108
h-108z" />
    <glyph glyph-name="uni1EA2" unicode="&#x1ea2;" horiz-adv-x="652" 
d="M487 831q0 34 -71 34h-18l12 57h12q59 0 94.5 -22.5t35.5 -63.5q0 -22 -8.5 -38.5t-19.5 -26.5t-31.5 -17.5t-35.5 -11t-40 -7.5l-10 48q80 11 80 48zM480 0l-29 164h-269l-93 -164h-125l409 697h82l137 -697h-112zM234 255h200l-48 269z" />
    <glyph glyph-name="uni1EA3" unicode="&#x1ea3;" horiz-adv-x="578" 
d="M406 627q0 34 -71 34h-18l12 57h12q59 0 94.5 -22.5t35.5 -63.5q0 -22 -8.5 -38.5t-19.5 -26.5t-31.5 -17.5t-35.5 -11t-40 -7.5l-10 48q80 11 80 48zM448 493h103l-96 -493h-102l11 60q-59 -69 -158 -69q-85 0 -130 51.5t-45 139.5q0 127 74 223.5t189 96.5q47 0 85 -19
t57 -51zM415 289q3 55 -24 87.5t-82 32.5q-79 0 -127.5 -66t-48.5 -151q0 -106 103 -106q77 0 126.5 60t52.5 143z" />
    <glyph glyph-name="uni1EA4" unicode="&#x1ea4;" horiz-adv-x="652" 
d="M681 1117l-172 -142h-78l137 142h113zM440 828l-89 -81h-86l190 169l118 -169h-76zM373 697h82l137 -697h-112l-29 164h-269l-93 -164h-125zM234 255h200l-48 269z" />
    <glyph glyph-name="uni1EA5" unicode="&#x1ea5;" horiz-adv-x="578" 
d="M599 913l-172 -142h-78l137 142h113zM358 624l-89 -81h-86l190 169l118 -169h-76zM436 432l12 61h103l-96 -493h-102l11 60q-59 -69 -158 -69q-85 0 -130 51.5t-45 139.5q0 127 74 223.5t189 96.5q47 0 85 -19t57 -51zM415 289q3 55 -24 87.5t-82 32.5q-79 0 -127.5 -66
t-48.5 -151q0 -106 103 -106q77 0 126.5 60t52.5 143z" />
    <glyph glyph-name="uni1EA6" unicode="&#x1ea6;" horiz-adv-x="652" 
d="M508 975h-78l-172 142h112zM265 747l190 169l118 -169h-76l-57 81l-89 -81h-86zM480 0l-29 164h-269l-93 -164h-125l409 697h82l137 -697h-112zM234 255h200l-48 269z" />
    <glyph glyph-name="uni1EA7" unicode="&#x1ea7;" horiz-adv-x="578" 
d="M427 771h-78l-172 142h112zM183 543l190 169l118 -169h-76l-57 81l-89 -81h-86zM448 493h103l-96 -493h-102l11 60q-59 -69 -158 -69q-85 0 -130 51.5t-45 139.5q0 127 74 223.5t189 96.5q47 0 85 -19t57 -51zM415 289q3 55 -24 87.5t-82 32.5q-79 0 -127.5 -66
t-48.5 -151q0 -106 103 -106q77 0 126.5 60t52.5 143z" />
    <glyph glyph-name="uni1EA8" unicode="&#x1ea8;" horiz-adv-x="652" 
d="M529 1047q0 34 -71 34h-18l12 57h12q59 0 94.5 -22.5t35.5 -63.5q0 -22 -8.5 -38.5t-19.5 -26.5t-31.5 -17.5t-35.5 -11t-40 -7.5l-10 48q80 11 80 48zM440 828l-89 -81h-86l190 169l118 -169h-76zM373 697h82l137 -697h-112l-29 164h-269l-93 -164h-125zM234 255h200
l-48 269z" />
    <glyph glyph-name="uni1EA9" unicode="&#x1ea9;" horiz-adv-x="578" 
d="M448 843q0 34 -71 34h-18l12 57h12q59 0 94.5 -22.5t35.5 -63.5q0 -22 -8.5 -38.5t-19.5 -26.5t-31.5 -17.5t-35.5 -11t-40 -7.5l-10 48q80 11 80 48zM358 624l-89 -81h-86l190 169l118 -169h-76zM448 493h103l-96 -493h-102l11 60q-59 -69 -158 -69q-85 0 -130 51.5
t-45 139.5q0 127 74 223.5t189 96.5q47 0 85 -19t57 -51zM415 289q3 55 -24 87.5t-82 32.5q-79 0 -127.5 -66t-48.5 -151q0 -106 103 -106q77 0 126.5 60t52.5 143z" />
    <glyph glyph-name="uni1EAA" unicode="&#x1eaa;" horiz-adv-x="652" 
d="M597 1117h63q-12 -67 -44 -101.5t-76 -34.5q-28 0 -47 11.5t-27 26t-19 26t-24 11.5q-39 0 -55 -70h-60q12 66 44 100t78 34q25 0 43 -11.5t26.5 -26t20 -26t24.5 -11.5q17 0 32 20.5t21 51.5zM497 747l-57 81l-89 -81h-86l190 169l118 -169h-76zM373 697h82l137 -697
h-112l-29 164h-269l-93 -164h-125zM234 255h200l-48 269z" />
    <glyph glyph-name="uni1EAB" unicode="&#x1eab;" horiz-adv-x="578" 
d="M342 852q-39 0 -55 -70h-60q12 66 44 100t78 34q25 0 43 -11.5t26.5 -26t20 -26t24.5 -11.5q17 0 32 20.5t21 51.5h63q-12 -67 -44 -101.5t-76 -34.5q-28 0 -47 11.5t-27 26t-19 26t-24 11.5zM358 624l-89 -81h-86l190 169l118 -169h-76zM436 432l12 61h103l-96 -493
h-102l11 60q-59 -69 -158 -69q-85 0 -130 51.5t-45 139.5q0 127 74 223.5t189 96.5q47 0 85 -19t57 -51zM415 289q3 55 -24 87.5t-82 32.5q-79 0 -127.5 -66t-48.5 -151q0 -106 103 -106q77 0 126.5 60t52.5 143z" />
    <glyph glyph-name="uni1EAC" unicode="&#x1eac;" horiz-adv-x="652" 
d="M440 828l-89 -81h-86l190 169l118 -169h-76zM592 0h-112l-29 164h-269l-93 -164h-125l409 697h82zM234 255h200l-48 269zM192 -173l21 108h108l-21 -108h-108z" />
    <glyph glyph-name="uni1EAD" unicode="&#x1ead;" horiz-adv-x="578" 
d="M358 624l-89 -81h-86l190 169l118 -169h-76zM448 493h103l-96 -493h-102l11 60q-59 -69 -158 -69q-85 0 -130 51.5t-45 139.5q0 127 74 223.5t189 96.5q47 0 85 -19t57 -51zM415 289q3 55 -24 87.5t-82 32.5q-79 0 -127.5 -66t-48.5 -151q0 -106 103 -106q77 0 126.5 60
t52.5 143zM154 -173l21 108h108l-21 -108h-108z" />
    <glyph glyph-name="uni1EAE" unicode="&#x1eae;" horiz-adv-x="652" 
d="M678 1105l-172 -142h-78l137 142h113zM434 830q76 0 91 71h73q-13 -69 -56.5 -100.5t-118.5 -31.5q-77 0 -111 35t-22 97h73q-7 -37 13.5 -54t57.5 -17zM373 697h82l137 -697h-112l-29 164h-269l-93 -164h-125zM234 255h200l-48 269z" />
    <glyph glyph-name="uni1EAF" unicode="&#x1eaf;" horiz-adv-x="578" 
d="M597 901l-172 -142h-78l137 142h113zM341 565q-77 0 -111 35t-22 97h73q-7 -37 13.5 -54t57.5 -17q76 0 91 71h73q-13 -69 -56.5 -100.5t-118.5 -31.5zM436 432l12 61h103l-96 -493h-102l11 60q-59 -69 -158 -69q-85 0 -130 51.5t-45 139.5q0 127 74 223.5t189 96.5
q47 0 85 -19t57 -51zM415 289q3 55 -24 87.5t-82 32.5q-79 0 -127.5 -66t-48.5 -151q0 -106 103 -106q77 0 126.5 60t52.5 143z" />
    <glyph glyph-name="uni1EB0" unicode="&#x1eb0;" horiz-adv-x="652" 
d="M506 963h-78l-172 142h112zM434 830q76 0 91 71h73q-13 -69 -56.5 -100.5t-118.5 -31.5q-77 0 -111 35t-22 97h73q-7 -37 13.5 -54t57.5 -17zM373 697h82l137 -697h-112l-29 164h-269l-93 -164h-125zM234 255h200l-48 269z" />
    <glyph glyph-name="uni1EB1" unicode="&#x1eb1;" horiz-adv-x="578" 
d="M425 759h-78l-172 142h112zM352 626q76 0 91 71h73q-13 -69 -56.5 -100.5t-118.5 -31.5q-77 0 -111 35t-22 97h73q-7 -37 13.5 -54t57.5 -17zM448 493h103l-96 -493h-102l11 60q-59 -69 -158 -69q-85 0 -130 51.5t-45 139.5q0 127 74 223.5t189 96.5q47 0 85 -19t57 -51z
M415 289q3 55 -24 87.5t-82 32.5q-79 0 -127.5 -66t-48.5 -151q0 -106 103 -106q77 0 126.5 60t52.5 143z" />
    <glyph glyph-name="uni1EB2" unicode="&#x1eb2;" horiz-adv-x="652" 
d="M527 1035q0 34 -71 34h-18l12 57h12q59 0 94.5 -22.5t35.5 -63.5q0 -22 -8.5 -38.5t-19.5 -26.5t-31.5 -17.5t-35.5 -11t-40 -7.5l-10 48q80 11 80 48zM423 769q-77 0 -111 35t-22 97h73q-7 -37 13.5 -54t57.5 -17q76 0 91 71h73q-13 -69 -56.5 -100.5t-118.5 -31.5z
M373 697h82l137 -697h-112l-29 164h-269l-93 -164h-125zM234 255h200l-48 269z" />
    <glyph glyph-name="uni1EB3" unicode="&#x1eb3;" horiz-adv-x="578" 
d="M445 831q0 34 -71 34h-18l12 57h12q59 0 94.5 -22.5t35.5 -63.5q0 -22 -8.5 -38.5t-19.5 -26.5t-31.5 -17.5t-35.5 -11t-40 -7.5l-10 48q80 11 80 48zM341 565q-77 0 -111 35t-22 97h73q-7 -37 13.5 -54t57.5 -17q76 0 91 71h73q-13 -69 -56.5 -100.5t-118.5 -31.5z
M448 493h103l-96 -493h-102l11 60q-59 -69 -158 -69q-85 0 -130 51.5t-45 139.5q0 127 74 223.5t189 96.5q47 0 85 -19t57 -51zM415 289q3 55 -24 87.5t-82 32.5q-79 0 -127.5 -66t-48.5 -151q0 -106 103 -106q77 0 126.5 60t52.5 143z" />
    <glyph glyph-name="uni1EB4" unicode="&#x1eb4;" horiz-adv-x="652" 
d="M595 1105h63q-12 -67 -44 -101.5t-76 -34.5q-28 0 -47 11.5t-27 26t-19 26t-24 11.5q-39 0 -55 -70h-60q12 66 44 100t78 34q25 0 43 -11.5t26.5 -26t20 -26t24.5 -11.5q17 0 32 20.5t21 51.5zM434 830q76 0 91 71h73q-13 -69 -56.5 -100.5t-118.5 -31.5q-77 0 -111 35
t-22 97h73q-7 -37 13.5 -54t57.5 -17zM373 697h82l137 -697h-112l-29 164h-269l-93 -164h-125zM234 255h200l-48 269z" />
    <glyph glyph-name="uni1EB5" unicode="&#x1eb5;" horiz-adv-x="578" 
d="M339 840q-39 0 -55 -70h-60q12 66 44 100t78 34q25 0 43 -11.5t26.5 -26t20 -26t24.5 -11.5q17 0 32 20.5t21 51.5h63q-12 -67 -44 -101.5t-76 -34.5q-28 0 -47 11.5t-27 26t-19 26t-24 11.5zM341 565q-77 0 -111 35t-22 97h73q-7 -37 13.5 -54t57.5 -17q76 0 91 71h73
q-13 -69 -56.5 -100.5t-118.5 -31.5zM436 432l12 61h103l-96 -493h-102l11 60q-59 -69 -158 -69q-85 0 -130 51.5t-45 139.5q0 127 74 223.5t189 96.5q47 0 85 -19t57 -51zM415 289q3 55 -24 87.5t-82 32.5q-79 0 -127.5 -66t-48.5 -151q0 -106 103 -106q77 0 126.5 60
t52.5 143z" />
    <glyph glyph-name="uni1EB6" unicode="&#x1eb6;" horiz-adv-x="652" 
d="M423 769q-77 0 -111 35t-22 97h73q-7 -37 13.5 -54t57.5 -17q76 0 91 71h73q-13 -69 -56.5 -100.5t-118.5 -31.5zM373 697h82l137 -697h-112l-29 164h-269l-93 -164h-125zM234 255h200l-48 269zM192 -173l21 108h108l-21 -108h-108z" />
    <glyph glyph-name="uni1EB7" unicode="&#x1eb7;" horiz-adv-x="578" 
d="M341 565q-77 0 -111 35t-22 97h73q-7 -37 13.5 -54t57.5 -17q76 0 91 71h73q-13 -69 -56.5 -100.5t-118.5 -31.5zM448 493h103l-96 -493h-102l11 60q-59 -69 -158 -69q-85 0 -130 51.5t-45 139.5q0 127 74 223.5t189 96.5q47 0 85 -19t57 -51zM415 289q3 55 -24 87.5
t-82 32.5q-79 0 -127.5 -66t-48.5 -151q0 -106 103 -106q77 0 126.5 60t52.5 143zM154 -173l21 108h108l-21 -108h-108z" />
    <glyph glyph-name="uni1EB8" unicode="&#x1eb8;" horiz-adv-x="611" 
d="M46 0l136 697h462l-20 -99h-355l-37 -191h326l-19 -99h-326l-41 -209h354l-18 -99h-462zM189 -173l21 108h108l-21 -108h-108z" />
    <glyph glyph-name="uni1EB9" unicode="&#x1eb9;" horiz-adv-x="519" 
d="M476 210h-346q-3 -15 -3 -27q0 -99 109 -99q76 0 140 60l62 -69q-94 -84 -211 -84q-100 0 -149 54t-49 141q0 130 79 223t200 93q92 0 138.5 -51.5t46.5 -134.5q0 -55 -17 -106zM300 415q-60 0 -99.5 -38t-54.5 -91h245q8 20 8 42q0 38 -25.5 62.5t-73.5 24.5zM135 -173
l21 108h108l-21 -108h-108z" />
    <glyph glyph-name="uni1EBA" unicode="&#x1eba;" horiz-adv-x="611" 
d="M414 735l-10 48q80 11 80 48q0 34 -71 34h-18l12 57h12q59 0 94.5 -22.5t35.5 -63.5q0 -22 -8.5 -38.5t-19.5 -26.5t-31.5 -17.5t-35.5 -11t-40 -7.5zM46 0l136 697h462l-20 -99h-355l-37 -191h326l-19 -99h-326l-41 -209h354l-18 -99h-462z" />
    <glyph glyph-name="uni1EBB" unicode="&#x1ebb;" horiz-adv-x="519" 
d="M384 627q0 34 -71 34h-18l12 57h12q59 0 94.5 -22.5t35.5 -63.5q0 -22 -8.5 -38.5t-19.5 -26.5t-31.5 -17.5t-35.5 -11t-40 -7.5l-10 48q80 11 80 48zM476 210h-346q-3 -15 -3 -27q0 -99 109 -99q76 0 140 60l62 -69q-94 -84 -211 -84q-100 0 -149 54t-49 141
q0 130 79 223t200 93q92 0 138.5 -51.5t46.5 -134.5q0 -55 -17 -106zM300 415q-60 0 -99.5 -38t-54.5 -91h245q8 20 8 42q0 38 -25.5 62.5t-73.5 24.5z" />
    <glyph glyph-name="uni1EBC" unicode="&#x1ebc;" horiz-adv-x="611" 
d="M495 765q-28 0 -47 11.5t-27 26t-19 26t-24 11.5q-39 0 -55 -70h-60q12 66 44 100t78 34q25 0 43 -11.5t26.5 -26t20 -26t24.5 -11.5q17 0 32 20.5t21 51.5h63q-12 -67 -44 -101.5t-76 -34.5zM46 0l136 697h462l-20 -99h-355l-37 -191h326l-19 -99h-326l-41 -209h354
l-18 -99h-462z" />
    <glyph glyph-name="uni1EBD" unicode="&#x1ebd;" horiz-adv-x="519" 
d="M278 636q-39 0 -55 -70h-60q12 66 44 100t78 34q25 0 43 -11.5t26.5 -26t20 -26t24.5 -11.5q17 0 32 20.5t21 51.5h63q-12 -67 -44 -101.5t-76 -34.5q-28 0 -47 11.5t-27 26t-19 26t-24 11.5zM308 502q92 0 138.5 -51.5t46.5 -134.5q0 -55 -17 -106h-346q-3 -15 -3 -27
q0 -99 109 -99q76 0 140 60l62 -69q-94 -84 -211 -84q-100 0 -149 54t-49 141q0 130 79 223t200 93zM300 415q-60 0 -99.5 -38t-54.5 -91h245q8 20 8 42q0 38 -25.5 62.5t-73.5 24.5z" />
    <glyph glyph-name="uni1EBE" unicode="&#x1ebe;" horiz-adv-x="611" 
d="M428 975l137 142h113l-172 -142h-78zM262 747l190 169l118 -169h-76l-57 81l-89 -81h-86zM46 0l136 697h462l-20 -99h-355l-37 -191h326l-19 -99h-326l-41 -209h354l-18 -99h-462z" />
    <glyph glyph-name="uni1EBF" unicode="&#x1ebf;" horiz-adv-x="519" 
d="M577 913l-172 -142h-78l137 142h113zM336 624l-89 -81h-86l190 169l118 -169h-76zM308 502q92 0 138.5 -51.5t46.5 -134.5q0 -55 -17 -106h-346q-3 -15 -3 -27q0 -99 109 -99q76 0 140 60l62 -69q-94 -84 -211 -84q-100 0 -149 54t-49 141q0 130 79 223t200 93zM300 415
q-60 0 -99.5 -38t-54.5 -91h245q8 20 8 42q0 38 -25.5 62.5t-73.5 24.5z" />
    <glyph glyph-name="uni1EC0" unicode="&#x1ec0;" horiz-adv-x="611" 
d="M428 975l-172 142h112l138 -142h-78zM262 747l190 169l118 -169h-76l-57 81l-89 -81h-86zM46 0l136 697h462l-20 -99h-355l-37 -191h326l-19 -99h-326l-41 -209h354l-18 -99h-462z" />
    <glyph glyph-name="uni1EC1" unicode="&#x1ec1;" horiz-adv-x="519" 
d="M405 771h-78l-172 142h112zM161 543l190 169l118 -169h-76l-57 81l-89 -81h-86zM476 210h-346q-3 -15 -3 -27q0 -99 109 -99q76 0 140 60l62 -69q-94 -84 -211 -84q-100 0 -149 54t-49 141q0 130 79 223t200 93q92 0 138.5 -51.5t46.5 -134.5q0 -55 -17 -106zM300 415
q-60 0 -99.5 -38t-54.5 -91h245q8 20 8 42q0 38 -25.5 62.5t-73.5 24.5z" />
    <glyph glyph-name="uni1EC2" unicode="&#x1ec2;" horiz-adv-x="611" 
d="M456 951l-10 48q80 11 80 48q0 34 -71 34h-18l12 57h12q59 0 94.5 -22.5t35.5 -63.5q0 -22 -8.5 -38.5t-19.5 -26.5t-31.5 -17.5t-35.5 -11t-40 -7.5zM262 747l190 169l118 -169h-76l-57 81l-89 -81h-86zM46 0l136 697h462l-20 -99h-355l-37 -191h326l-19 -99h-326
l-41 -209h354l-18 -99h-462z" />
    <glyph glyph-name="uni1EC3" unicode="&#x1ec3;" horiz-adv-x="519" 
d="M426 843q0 34 -71 34h-18l12 57h12q59 0 94.5 -22.5t35.5 -63.5q0 -22 -8.5 -38.5t-19.5 -26.5t-31.5 -17.5t-35.5 -11t-40 -7.5l-10 48q80 11 80 48zM336 624l-89 -81h-86l190 169l118 -169h-76zM476 210h-346q-3 -15 -3 -27q0 -99 109 -99q76 0 140 60l62 -69
q-94 -84 -211 -84q-100 0 -149 54t-49 141q0 130 79 223t200 93q92 0 138.5 -51.5t46.5 -134.5q0 -55 -17 -106zM300 415q-60 0 -99.5 -38t-54.5 -91h245q8 20 8 42q0 38 -25.5 62.5t-73.5 24.5z" />
    <glyph glyph-name="uni1EC4" unicode="&#x1ec4;" horiz-adv-x="611" 
d="M537 981q-28 0 -47 11.5t-27 26t-19 26t-24 11.5q-39 0 -55 -70h-60q12 66 44 100t78 34q25 0 43 -11.5t26.5 -26t20 -26t24.5 -11.5q17 0 32 20.5t21 51.5h63q-12 -67 -44 -101.5t-76 -34.5zM262 747l190 169l118 -169h-76l-57 81l-89 -81h-86zM46 0l136 697h462
l-20 -99h-355l-37 -191h326l-19 -99h-326l-41 -209h354l-18 -99h-462z" />
    <glyph glyph-name="uni1EC5" unicode="&#x1ec5;" horiz-adv-x="519" 
d="M494 913h63q-12 -67 -44 -101.5t-76 -34.5q-28 0 -47 11.5t-27 26t-19 26t-24 11.5q-39 0 -55 -70h-60q12 66 44 100t78 34q25 0 43 -11.5t26.5 -26t20 -26t24.5 -11.5q17 0 32 20.5t21 51.5zM393 543l-57 81l-89 -81h-86l190 169l118 -169h-76zM308 502
q92 0 138.5 -51.5t46.5 -134.5q0 -55 -17 -106h-346q-3 -15 -3 -27q0 -99 109 -99q76 0 140 60l62 -69q-94 -84 -211 -84q-100 0 -149 54t-49 141q0 130 79 223t200 93zM300 415q-60 0 -99.5 -38t-54.5 -91h245q8 20 8 42q0 38 -25.5 62.5t-73.5 24.5z" />
    <glyph glyph-name="uni1EC6" unicode="&#x1ec6;" horiz-adv-x="611" 
d="M262 747l190 169l118 -169h-76l-57 81l-89 -81h-86zM46 0l136 697h462l-20 -99h-355l-37 -191h326l-19 -99h-326l-41 -209h354l-18 -99h-462zM189 -173l21 108h108l-21 -108h-108z" />
    <glyph glyph-name="uni1EC7" unicode="&#x1ec7;" horiz-adv-x="519" 
d="M336 624l-89 -81h-86l190 169l118 -169h-76zM476 210h-346q-3 -15 -3 -27q0 -99 109 -99q76 0 140 60l62 -69q-94 -84 -211 -84q-100 0 -149 54t-49 141q0 130 79 223t200 93q92 0 138.5 -51.5t46.5 -134.5q0 -55 -17 -106zM300 415q-60 0 -99.5 -38t-54.5 -91h245
q8 20 8 42q0 38 -25.5 62.5t-73.5 24.5zM135 -173l21 108h108l-21 -108h-108z" />
    <glyph glyph-name="uni1EC8" unicode="&#x1ec8;" horiz-adv-x="295" 
d="M238 735l-10 48q80 11 80 48q0 34 -71 34h-18l12 57h12q59 0 94.5 -22.5t35.5 -63.5q0 -22 -8.5 -38.5t-19.5 -26.5t-31.5 -17.5t-35.5 -11t-40 -7.5zM46 0l136 697h107l-136 -697h-107z" />
    <glyph glyph-name="uni1EC9" unicode="&#x1ec9;" horiz-adv-x="253" 
d="M176 531l-10 48q80 11 80 48q0 34 -71 34h-18l12 57h12q59 0 94.5 -22.5t35.5 -63.5q0 -22 -8.5 -38.5t-19.5 -26.5t-31.5 -17.5t-35.5 -11t-40 -7.5zM27 0l96 493h103l-96 -493h-103z" />
    <glyph glyph-name="uni1ECA" unicode="&#x1eca;" horiz-adv-x="295" 
d="M46 0l136 697h107l-136 -697h-107zM12 -173l21 108h108l-21 -108h-108z" />
    <glyph glyph-name="uni1ECB" unicode="&#x1ecb;" horiz-adv-x="253" 
d="M139 589l22 108h108l-22 -108h-108zM27 0l96 493h103l-96 -493h-103zM-9 -173l21 108h108l-21 -108h-108z" />
    <glyph glyph-name="uni1ECC" unicode="&#x1ecc;" horiz-adv-x="747" 
d="M329 -9q-133 0 -202 76.5t-69 198.5q0 180 114.5 310t285.5 130q133 0 202 -77t69 -199q0 -117 -51 -217.5t-143.5 -161t-205.5 -60.5zM339 93q123 0 203.5 99t80.5 231q0 83 -44 132t-131 49q-124 0 -204 -99t-80 -233q0 -81 44 -130t131 -49zM238 -173l21 108h108
l-21 -108h-108z" />
    <glyph glyph-name="uni1ECD" unicode="&#x1ecd;" horiz-adv-x="549" 
d="M230 -9q-95 0 -149 57t-54 147q0 125 85 216t207 91q95 0 149.5 -57t54.5 -146q0 -125 -86 -216.5t-207 -91.5zM238 81q80 0 132 66t52 153q0 52 -27.5 82t-82.5 30q-81 0 -132.5 -65.5t-51.5 -152.5q0 -51 27.5 -82t82.5 -31zM139 -173l21 108h108l-21 -108h-108z" />
    <glyph glyph-name="uni1ECE" unicode="&#x1ece;" horiz-adv-x="747" 
d="M463 735l-10 48q80 11 80 48q0 34 -71 34h-18l12 57h12q59 0 94.5 -22.5t35.5 -63.5q0 -22 -8.5 -38.5t-19.5 -26.5t-31.5 -17.5t-35.5 -11t-40 -7.5zM329 -9q-133 0 -202 76.5t-69 198.5q0 180 114.5 310t285.5 130q133 0 202 -77t69 -199q0 -117 -51 -217.5
t-143.5 -161t-205.5 -60.5zM339 93q123 0 203.5 99t80.5 231q0 83 -44 132t-131 49q-124 0 -204 -99t-80 -233q0 -81 44 -130t131 -49z" />
    <glyph glyph-name="uni1ECF" unicode="&#x1ecf;" horiz-adv-x="549" 
d="M325 531l-10 48q80 11 80 48q0 34 -71 34h-18l12 57h12q59 0 94.5 -22.5t35.5 -63.5q0 -22 -8.5 -38.5t-19.5 -26.5t-31.5 -17.5t-35.5 -11t-40 -7.5zM230 -9q-95 0 -149 57t-54 147q0 125 85 216t207 91q95 0 149.5 -57t54.5 -146q0 -125 -86 -216.5t-207 -91.5zM238 81
q80 0 132 66t52 153q0 52 -27.5 82t-82.5 30q-81 0 -132.5 -65.5t-51.5 -152.5q0 -51 27.5 -82t82.5 -31z" />
    <glyph glyph-name="uni1ED0" unicode="&#x1ed0;" horiz-adv-x="747" 
d="M477 975l137 142h113l-172 -142h-78zM311 747l190 169l118 -169h-76l-57 81l-89 -81h-86zM329 -9q-133 0 -202 76.5t-69 198.5q0 180 114.5 310t285.5 130q133 0 202 -77t69 -199q0 -117 -51 -217.5t-143.5 -161t-205.5 -60.5zM339 93q123 0 203.5 99t80.5 231
q0 83 -44 132t-131 49q-124 0 -204 -99t-80 -233q0 -81 44 -130t131 -49z" />
    <glyph glyph-name="uni1ED1" unicode="&#x1ed1;" horiz-adv-x="549" 
d="M338 771l137 142h113l-172 -142h-78zM172 543l190 169l118 -169h-76l-57 81l-89 -81h-86zM230 -9q-95 0 -149 57t-54 147q0 125 85 216t207 91q95 0 149.5 -57t54.5 -146q0 -125 -86 -216.5t-207 -91.5zM238 81q80 0 132 66t52 153q0 52 -27.5 82t-82.5 30
q-81 0 -132.5 -65.5t-51.5 -152.5q0 -51 27.5 -82t82.5 -31z" />
    <glyph glyph-name="uni1ED2" unicode="&#x1ed2;" horiz-adv-x="747" 
d="M476 975l-172 142h112l138 -142h-78zM311 747l190 169l118 -169h-76l-57 81l-89 -81h-86zM329 -9q-133 0 -202 76.5t-69 198.5q0 180 114.5 310t285.5 130q133 0 202 -77t69 -199q0 -117 -51 -217.5t-143.5 -161t-205.5 -60.5zM339 93q123 0 203.5 99t80.5 231
q0 83 -44 132t-131 49q-124 0 -204 -99t-80 -233q0 -81 44 -130t131 -49z" />
    <glyph glyph-name="uni1ED3" unicode="&#x1ed3;" horiz-adv-x="549" 
d="M338 771l-172 142h112l138 -142h-78zM172 543l190 169l118 -169h-76l-57 81l-89 -81h-86zM230 -9q-95 0 -149 57t-54 147q0 125 85 216t207 91q95 0 149.5 -57t54.5 -146q0 -125 -86 -216.5t-207 -91.5zM238 81q80 0 132 66t52 153q0 52 -27.5 82t-82.5 30
q-81 0 -132.5 -65.5t-51.5 -152.5q0 -51 27.5 -82t82.5 -31z" />
    <glyph glyph-name="uni1ED4" unicode="&#x1ed4;" horiz-adv-x="747" 
d="M505 951l-10 48q80 11 80 48q0 34 -71 34h-18l12 57h12q59 0 94.5 -22.5t35.5 -63.5q0 -22 -8.5 -38.5t-19.5 -26.5t-31.5 -17.5t-35.5 -11t-40 -7.5zM311 747l190 169l118 -169h-76l-57 81l-89 -81h-86zM329 -9q-133 0 -202 76.5t-69 198.5q0 180 114.5 310t285.5 130
q133 0 202 -77t69 -199q0 -117 -51 -217.5t-143.5 -161t-205.5 -60.5zM339 93q123 0 203.5 99t80.5 231q0 83 -44 132t-131 49q-124 0 -204 -99t-80 -233q0 -81 44 -130t131 -49z" />
    <glyph glyph-name="uni1ED5" unicode="&#x1ed5;" horiz-adv-x="549" 
d="M367 747l-10 48q80 11 80 48q0 34 -71 34h-18l12 57h12q59 0 94.5 -22.5t35.5 -63.5q0 -22 -8.5 -38.5t-19.5 -26.5t-31.5 -17.5t-35.5 -11t-40 -7.5zM172 543l190 169l118 -169h-76l-57 81l-89 -81h-86zM230 -9q-95 0 -149 57t-54 147q0 125 85 216t207 91
q95 0 149.5 -57t54.5 -146q0 -125 -86 -216.5t-207 -91.5zM238 81q80 0 132 66t52 153q0 52 -27.5 82t-82.5 30q-81 0 -132.5 -65.5t-51.5 -152.5q0 -51 27.5 -82t82.5 -31z" />
    <glyph glyph-name="uni1ED6" unicode="&#x1ed6;" horiz-adv-x="747" 
d="M586 981q-28 0 -47 11.5t-27 26t-19 26t-24 11.5q-39 0 -55 -70h-60q12 66 44 100t78 34q25 0 43 -11.5t26.5 -26t20 -26t24.5 -11.5q17 0 32 20.5t21 51.5h63q-12 -67 -44 -101.5t-76 -34.5zM311 747l190 169l118 -169h-76l-57 81l-89 -81h-86zM329 -9q-133 0 -202 76.5
t-69 198.5q0 180 114.5 310t285.5 130q133 0 202 -77t69 -199q0 -117 -51 -217.5t-143.5 -161t-205.5 -60.5zM339 93q123 0 203.5 99t80.5 231q0 83 -44 132t-131 49q-124 0 -204 -99t-80 -233q0 -81 44 -130t131 -49z" />
    <glyph glyph-name="uni1ED7" unicode="&#x1ed7;" horiz-adv-x="549" 
d="M448 777q-28 0 -47 11.5t-27 26t-19 26t-24 11.5q-39 0 -55 -70h-60q12 66 44 100t78 34q25 0 43 -11.5t26.5 -26t20 -26t24.5 -11.5q17 0 32 20.5t21 51.5h63q-12 -67 -44 -101.5t-76 -34.5zM172 543l190 169l118 -169h-76l-57 81l-89 -81h-86zM230 -9q-95 0 -149 57
t-54 147q0 125 85 216t207 91q95 0 149.5 -57t54.5 -146q0 -125 -86 -216.5t-207 -91.5zM238 81q80 0 132 66t52 153q0 52 -27.5 82t-82.5 30q-81 0 -132.5 -65.5t-51.5 -152.5q0 -51 27.5 -82t82.5 -31z" />
    <glyph glyph-name="uni1ED8" unicode="&#x1ed8;" horiz-adv-x="747" 
d="M311 747l190 169l118 -169h-76l-57 81l-89 -81h-86zM329 -9q-133 0 -202 76.5t-69 198.5q0 180 114.5 310t285.5 130q133 0 202 -77t69 -199q0 -117 -51 -217.5t-143.5 -161t-205.5 -60.5zM339 93q123 0 203.5 99t80.5 231q0 83 -44 132t-131 49q-124 0 -204 -99
t-80 -233q0 -81 44 -130t131 -49zM238 -173l21 108h108l-21 -108h-108z" />
    <glyph glyph-name="uni1ED9" unicode="&#x1ed9;" horiz-adv-x="549" 
d="M172 543l190 169l118 -169h-76l-57 81l-89 -81h-86zM230 -9q-95 0 -149 57t-54 147q0 125 85 216t207 91q95 0 149.5 -57t54.5 -146q0 -125 -86 -216.5t-207 -91.5zM238 81q80 0 132 66t52 153q0 52 -27.5 82t-82.5 30q-81 0 -132.5 -65.5t-51.5 -152.5q0 -51 27.5 -82
t82.5 -31zM139 -173l21 108h108l-21 -108h-108z" />
    <glyph glyph-name="uni1EDA" unicode="&#x1eda;" horiz-adv-x="747" 
d="M685 901l-172 -142h-78l137 142h113zM776 697h78l-9 -46q-25 -123 -123 -150q7 -32 7 -71q0 -117 -51 -217.5t-143.5 -161t-205.5 -60.5q-133 0 -202 76.5t-69 198.5q0 180 114.5 310t285.5 130q179 0 243 -139q50 16 65 84zM339 93q123 0 203.5 99t80.5 231
q0 83 -44 132t-131 49q-124 0 -204 -99t-80 -233q0 -81 44 -130t131 -49z" />
    <glyph glyph-name="uni1EDB" unicode="&#x1edb;" horiz-adv-x="549" 
d="M546 697l-172 -142h-78l137 142h113zM584 552h78l-9 -46q-25 -132 -136 -153q6 -25 6 -54q0 -125 -86 -216.5t-207 -91.5q-95 0 -149 57t-54 147q0 125 85 216t207 91q118 0 171 -84q36 3 56.5 28.5t27.5 59.5zM238 81q80 0 132 66t52 153q0 52 -27.5 82t-82.5 30
q-81 0 -132.5 -65.5t-51.5 -152.5q0 -51 27.5 -82t82.5 -31z" />
    <glyph glyph-name="uni1EDC" unicode="&#x1edc;" horiz-adv-x="747" 
d="M512 759h-78l-172 142h112zM776 697h78l-9 -46q-25 -123 -123 -150q7 -32 7 -71q0 -117 -51 -217.5t-143.5 -161t-205.5 -60.5q-133 0 -202 76.5t-69 198.5q0 180 114.5 310t285.5 130q179 0 243 -139q50 16 65 84zM339 93q123 0 203.5 99t80.5 231q0 83 -44 132t-131 49
q-124 0 -204 -99t-80 -233q0 -81 44 -130t131 -49z" />
    <glyph glyph-name="uni1EDD" unicode="&#x1edd;" horiz-adv-x="549" 
d="M374 555h-78l-172 142h112zM584 552h78l-9 -46q-25 -132 -136 -153q6 -25 6 -54q0 -125 -86 -216.5t-207 -91.5q-95 0 -149 57t-54 147q0 125 85 216t207 91q118 0 171 -84q36 3 56.5 28.5t27.5 59.5zM238 81q80 0 132 66t52 153q0 52 -27.5 82t-82.5 30
q-81 0 -132.5 -65.5t-51.5 -152.5q0 -51 27.5 -82t82.5 -31z" />
    <glyph glyph-name="uni1EDE" unicode="&#x1ede;" horiz-adv-x="747" 
d="M533 831q0 34 -71 34h-18l12 57h12q59 0 94.5 -22.5t35.5 -63.5q0 -22 -8.5 -38.5t-19.5 -26.5t-31.5 -17.5t-35.5 -11t-40 -7.5l-10 48q80 11 80 48zM776 697h78l-9 -46q-25 -123 -123 -150q7 -32 7 -71q0 -117 -51 -217.5t-143.5 -161t-205.5 -60.5q-133 0 -202 76.5
t-69 198.5q0 180 114.5 310t285.5 130q179 0 243 -139q50 16 65 84zM339 93q123 0 203.5 99t80.5 231q0 83 -44 132t-131 49q-124 0 -204 -99t-80 -233q0 -81 44 -130t131 -49z" />
    <glyph glyph-name="uni1EDF" unicode="&#x1edf;" horiz-adv-x="549" 
d="M395 627q0 34 -71 34h-18l12 57h12q59 0 94.5 -22.5t35.5 -63.5q0 -22 -8.5 -38.5t-19.5 -26.5t-31.5 -17.5t-35.5 -11t-40 -7.5l-10 48q80 11 80 48zM584 552h78l-9 -46q-25 -132 -136 -153q6 -25 6 -54q0 -125 -86 -216.5t-207 -91.5q-95 0 -149 57t-54 147
q0 125 85 216t207 91q118 0 171 -84q36 3 56.5 28.5t27.5 59.5zM238 81q80 0 132 66t52 153q0 52 -27.5 82t-82.5 30q-81 0 -132.5 -65.5t-51.5 -152.5q0 -51 27.5 -82t82.5 -31z" />
    <glyph glyph-name="uni1EE0" unicode="&#x1ee0;" horiz-adv-x="747" 
d="M427 840q-39 0 -55 -70h-60q12 66 44 100t78 34q25 0 43 -11.5t26.5 -26t20 -26t24.5 -11.5q17 0 32 20.5t21 51.5h63q-12 -67 -44 -101.5t-76 -34.5q-28 0 -47 11.5t-27 26t-19 26t-24 11.5zM776 697h78l-9 -46q-25 -123 -123 -150q7 -32 7 -71q0 -117 -51 -217.5
t-143.5 -161t-205.5 -60.5q-133 0 -202 76.5t-69 198.5q0 180 114.5 310t285.5 130q179 0 243 -139q50 16 65 84zM339 93q123 0 203.5 99t80.5 231q0 83 -44 132t-131 49q-124 0 -204 -99t-80 -233q0 -81 44 -130t131 -49z" />
    <glyph glyph-name="uni1EE1" unicode="&#x1ee1;" horiz-adv-x="549" 
d="M289 636q-39 0 -55 -70h-60q12 66 44 100t78 34q25 0 43 -11.5t26.5 -26t20 -26t24.5 -11.5q17 0 32 20.5t21 51.5h63q-12 -67 -44 -101.5t-76 -34.5q-28 0 -47 11.5t-27 26t-19 26t-24 11.5zM584 552h78l-9 -46q-25 -132 -136 -153q6 -25 6 -54q0 -125 -86 -216.5
t-207 -91.5q-95 0 -149 57t-54 147q0 125 85 216t207 91q118 0 171 -84q36 3 56.5 28.5t27.5 59.5zM238 81q80 0 132 66t52 153q0 52 -27.5 82t-82.5 30q-81 0 -132.5 -65.5t-51.5 -152.5q0 -51 27.5 -82t82.5 -31z" />
    <glyph glyph-name="uni1EE2" unicode="&#x1ee2;" horiz-adv-x="747" 
d="M776 697h78l-9 -46q-25 -123 -123 -150q7 -32 7 -71q0 -117 -51 -217.5t-143.5 -161t-205.5 -60.5q-133 0 -202 76.5t-69 198.5q0 180 114.5 310t285.5 130q179 0 243 -139q50 16 65 84zM339 93q123 0 203.5 99t80.5 231q0 83 -44 132t-131 49q-124 0 -204 -99t-80 -233
q0 -81 44 -130t131 -49zM238 -173l21 108h108l-21 -108h-108z" />
    <glyph glyph-name="uni1EE3" unicode="&#x1ee3;" horiz-adv-x="549" 
d="M584 552h78l-9 -46q-25 -132 -136 -153q6 -25 6 -54q0 -125 -86 -216.5t-207 -91.5q-95 0 -149 57t-54 147q0 125 85 216t207 91q118 0 171 -84q36 3 56.5 28.5t27.5 59.5zM238 81q80 0 132 66t52 153q0 52 -27.5 82t-82.5 30q-81 0 -132.5 -65.5t-51.5 -152.5
q0 -51 27.5 -82t82.5 -31zM139 -173l21 108h108l-21 -108h-108z" />
    <glyph glyph-name="uni1EE4" unicode="&#x1ee4;" horiz-adv-x="681" 
d="M295 -9q-110 0 -166 49t-56 142q0 32 8 74l86 441h107l-85 -437q-7 -35 -7 -64q0 -52 28.5 -76.5t94.5 -24.5q87 0 132 43t62 131l83 428h108l-87 -444q-51 -262 -308 -262zM205 -173l21 108h108l-21 -108h-108z" />
    <glyph glyph-name="uni1EE5" unicode="&#x1ee5;" horiz-adv-x="563" 
d="M433 493h103l-96 -493h-103l12 54q-59 -63 -157 -63q-73 0 -109.5 39.5t-36.5 104.5q0 23 5 56l59 302h103l-56 -286q-6 -36 -6 -51q0 -75 77 -75q40 0 70 19t48.5 53t29.5 67.5t19 76.5zM145 -173l21 108h108l-21 -108h-108z" />
    <glyph glyph-name="uni1EE6" unicode="&#x1ee6;" horiz-adv-x="681" 
d="M430 735l-10 48q80 11 80 48q0 34 -71 34h-18l12 57h12q59 0 94.5 -22.5t35.5 -63.5q0 -22 -8.5 -38.5t-19.5 -26.5t-31.5 -17.5t-35.5 -11t-40 -7.5zM295 -9q-110 0 -166 49t-56 142q0 32 8 74l86 441h107l-85 -437q-7 -35 -7 -64q0 -52 28.5 -76.5t94.5 -24.5
q87 0 132 43t62 131l83 428h108l-87 -444q-51 -262 -308 -262z" />
    <glyph glyph-name="uni1EE7" unicode="&#x1ee7;" horiz-adv-x="563" 
d="M394 627q0 34 -71 34h-18l12 57h12q59 0 94.5 -22.5t35.5 -63.5q0 -22 -8.5 -38.5t-19.5 -26.5t-31.5 -17.5t-35.5 -11t-40 -7.5l-10 48q80 11 80 48zM433 493h103l-96 -493h-103l12 54q-59 -63 -157 -63q-73 0 -109.5 39.5t-36.5 104.5q0 23 5 56l59 302h103l-56 -286
q-6 -36 -6 -51q0 -75 77 -75q40 0 70 19t48.5 53t29.5 67.5t19 76.5z" />
    <glyph glyph-name="uni1EE8" unicode="&#x1ee8;" horiz-adv-x="681" 
d="M652 901l-172 -142h-78l137 142h113zM753 697h78l-9 -46q-31 -153 -172 -157l-47 -241q-51 -262 -308 -262q-110 0 -166 49t-56 142q0 32 8 74l86 441h107l-85 -437q-7 -35 -7 -64q0 -52 28.5 -76.5t94.5 -24.5q87 0 132 43t62 131l83 428h108l-26 -133q34 4 53.5 29
t25.5 58z" />
    <glyph glyph-name="uni1EE9" unicode="&#x1ee9;" horiz-adv-x="563" 
d="M546 697l-172 -142h-78l137 142h113zM565 627h78l-9 -46q-23 -114 -109 -146l-85 -435h-103l12 54q-59 -63 -157 -63q-73 0 -109.5 39.5t-36.5 104.5q0 23 5 56l59 302h103l-56 -286q-6 -36 -6 -51q0 -75 77 -75q40 0 70 19t48.5 53t29.5 67.5t19 76.5l38 196h31
q39 0 61.5 26t29.5 62z" />
    <glyph glyph-name="uni1EEA" unicode="&#x1eea;" horiz-adv-x="681" 
d="M480 759h-78l-172 142h112zM753 697h78l-9 -46q-31 -153 -172 -157l-47 -241q-51 -262 -308 -262q-110 0 -166 49t-56 142q0 32 8 74l86 441h107l-85 -437q-7 -35 -7 -64q0 -52 28.5 -76.5t94.5 -24.5q87 0 132 43t62 131l83 428h108l-26 -133q34 4 53.5 29t25.5 58z" />
    <glyph glyph-name="uni1EEB" unicode="&#x1eeb;" horiz-adv-x="563" 
d="M374 555h-78l-172 142h112zM565 627h78l-9 -46q-23 -114 -109 -146l-85 -435h-103l12 54q-59 -63 -157 -63q-73 0 -109.5 39.5t-36.5 104.5q0 23 5 56l59 302h103l-56 -286q-6 -36 -6 -51q0 -75 77 -75q40 0 70 19t48.5 53t29.5 67.5t19 76.5l38 196h31q39 0 61.5 26
t29.5 62z" />
    <glyph glyph-name="uni1EEC" unicode="&#x1eec;" horiz-adv-x="681" 
d="M500 831q0 34 -71 34h-18l12 57h12q59 0 94.5 -22.5t35.5 -63.5q0 -22 -8.5 -38.5t-19.5 -26.5t-31.5 -17.5t-35.5 -11t-40 -7.5l-10 48q80 11 80 48zM753 697h78l-9 -46q-31 -153 -172 -157l-47 -241q-51 -262 -308 -262q-110 0 -166 49t-56 142q0 32 8 74l86 441h107
l-85 -437q-7 -35 -7 -64q0 -52 28.5 -76.5t94.5 -24.5q87 0 132 43t62 131l83 428h108l-26 -133q34 4 53.5 29t25.5 58z" />
    <glyph glyph-name="uni1EED" unicode="&#x1eed;" horiz-adv-x="563" 
d="M394 627q0 34 -71 34h-18l12 57h12q59 0 94.5 -22.5t35.5 -63.5q0 -22 -8.5 -38.5t-19.5 -26.5t-31.5 -17.5t-35.5 -11t-40 -7.5l-10 48q80 11 80 48zM565 627h78l-9 -46q-23 -114 -109 -146l-85 -435h-103l12 54q-59 -63 -157 -63q-73 0 -109.5 39.5t-36.5 104.5
q0 23 5 56l59 302h103l-56 -286q-6 -36 -6 -51q0 -75 77 -75q40 0 70 19t48.5 53t29.5 67.5t19 76.5l38 196h31q39 0 61.5 26t29.5 62z" />
    <glyph glyph-name="uni1EEE" unicode="&#x1eee;" horiz-adv-x="681" 
d="M394 840q-39 0 -55 -70h-60q12 66 44 100t78 34q25 0 43 -11.5t26.5 -26t20 -26t24.5 -11.5q17 0 32 20.5t21 51.5h63q-12 -67 -44 -101.5t-76 -34.5q-28 0 -47 11.5t-27 26t-19 26t-24 11.5zM753 697h78l-9 -46q-31 -153 -172 -157l-47 -241q-51 -262 -308 -262
q-110 0 -166 49t-56 142q0 32 8 74l86 441h107l-85 -437q-7 -35 -7 -64q0 -52 28.5 -76.5t94.5 -24.5q87 0 132 43t62 131l83 428h108l-26 -133q34 4 53.5 29t25.5 58z" />
    <glyph glyph-name="uni1EEF" unicode="&#x1eef;" horiz-adv-x="563" 
d="M288 636q-39 0 -55 -70h-60q12 66 44 100t78 34q25 0 43 -11.5t26.5 -26t20 -26t24.5 -11.5q17 0 32 20.5t21 51.5h63q-12 -67 -44 -101.5t-76 -34.5q-28 0 -47 11.5t-27 26t-19 26t-24 11.5zM565 627h78l-9 -46q-23 -114 -109 -146l-85 -435h-103l12 54
q-59 -63 -157 -63q-73 0 -109.5 39.5t-36.5 104.5q0 23 5 56l59 302h103l-56 -286q-6 -36 -6 -51q0 -75 77 -75q40 0 70 19t48.5 53t29.5 67.5t19 76.5l38 196h31q39 0 61.5 26t29.5 62z" />
    <glyph glyph-name="uni1EF0" unicode="&#x1ef0;" horiz-adv-x="681" 
d="M753 697h78l-9 -46q-31 -153 -172 -157l-47 -241q-51 -262 -308 -262q-110 0 -166 49t-56 142q0 32 8 74l86 441h107l-85 -437q-7 -35 -7 -64q0 -52 28.5 -76.5t94.5 -24.5q87 0 132 43t62 131l83 428h108l-26 -133q34 4 53.5 29t25.5 58zM205 -173l21 108h108l-21 -108
h-108z" />
    <glyph glyph-name="uni1EF1" unicode="&#x1ef1;" horiz-adv-x="563" 
d="M565 627h78l-9 -46q-23 -114 -109 -146l-85 -435h-103l12 54q-59 -63 -157 -63q-73 0 -109.5 39.5t-36.5 104.5q0 23 5 56l59 302h103l-56 -286q-6 -36 -6 -51q0 -75 77 -75q40 0 70 19t48.5 53t29.5 67.5t19 76.5l38 196h31q39 0 61.5 26t29.5 62zM145 -173l21 108h108
l-21 -108h-108z" />
    <glyph glyph-name="Ygrave" unicode="&#x1ef2;" horiz-adv-x="647" 
d="M384 759l-172 142h112l138 -142h-78zM222 0l53 270l-182 427h124l127 -324l257 324h129l-347 -427l-54 -270h-107z" />
    <glyph glyph-name="ygrave" unicode="&#x1ef3;" horiz-adv-x="503" 
d="M350 555h-78l-172 142h112zM434 493h115l-411 -697h-114l128 218l-103 479h111l67 -352z" />
    <glyph glyph-name="uni1EF4" unicode="&#x1ef4;" horiz-adv-x="647" 
d="M222 0l53 270l-182 427h124l127 -324l257 324h129l-347 -427l-54 -270h-107zM188 -173l21 108h108l-21 -108h-108z" />
    <glyph glyph-name="uni1EF5" unicode="&#x1ef5;" horiz-adv-x="503" 
d="M434 493h115l-411 -697h-114l128 218l-103 479h111l67 -352zM265 -204l21 108h108l-21 -108h-108z" />
    <glyph glyph-name="uni1EF6" unicode="&#x1ef6;" horiz-adv-x="647" 
d="M413 735l-10 48q80 11 80 48q0 34 -71 34h-18l12 57h12q59 0 94.5 -22.5t35.5 -63.5q0 -22 -8.5 -38.5t-19.5 -26.5t-31.5 -17.5t-35.5 -11t-40 -7.5zM222 0l53 270l-182 427h124l127 -324l257 324h129l-347 -427l-54 -270h-107z" />
    <glyph glyph-name="uni1EF7" unicode="&#x1ef7;" horiz-adv-x="503" 
d="M370 627q0 34 -71 34h-18l12 57h12q59 0 94.5 -22.5t35.5 -63.5q0 -22 -8.5 -38.5t-19.5 -26.5t-31.5 -17.5t-35.5 -11t-40 -7.5l-10 48q80 11 80 48zM434 493h115l-411 -697h-114l128 218l-103 479h111l67 -352z" />
    <glyph glyph-name="uni1EF8" unicode="&#x1ef8;" horiz-adv-x="647" 
d="M494 765q-28 0 -47 11.5t-27 26t-19 26t-24 11.5q-39 0 -55 -70h-60q12 66 44 100t78 34q25 0 43 -11.5t26.5 -26t20 -26t24.5 -11.5q17 0 32 20.5t21 51.5h63q-12 -67 -44 -101.5t-76 -34.5zM222 0l53 270l-182 427h124l127 -324l257 324h129l-347 -427l-54 -270h-107z
" />
    <glyph glyph-name="uni1EF9" unicode="&#x1ef9;" horiz-adv-x="503" 
d="M264 636q-39 0 -55 -70h-60q12 66 44 100t78 34q25 0 43 -11.5t26.5 -26t20 -26t24.5 -11.5q17 0 32 20.5t21 51.5h63q-12 -67 -44 -101.5t-76 -34.5q-28 0 -47 11.5t-27 26t-19 26t-24 11.5zM434 493h115l-411 -697h-114l128 218l-103 479h111l67 -352z" />
    <glyph glyph-name="endash" unicode="&#x2013;" horiz-adv-x="515" 
d="M75 261l15 77h371l-15 -77h-371z" />
    <glyph glyph-name="emdash" unicode="&#x2014;" horiz-adv-x="1010" 
d="M3 261l15 77h1010l-15 -77h-1010z" />
    <glyph glyph-name="uni2015" unicode="&#x2015;" horiz-adv-x="614" 
d="M3 261l15 77h614l-15 -77h-614z" />
    <glyph glyph-name="quoteleft" unicode="&#x2018;" horiz-adv-x="281" 
d="M64 415l183 282h69l-132 -282h-120z" />
    <glyph glyph-name="quoteright" unicode="&#x2019;" horiz-adv-x="280" 
d="M84 416l132 281h120l-182 -281h-70z" />
    <glyph glyph-name="quotesinglbase" unicode="&#x201a;" horiz-adv-x="281" 
d="M-26 -151l132 281h120l-182 -281h-70z" />
    <glyph glyph-name="quotedblleft" unicode="&#x201c;" horiz-adv-x="465" 
d="M64 415l183 282h69l-132 -282h-120zM248 415l182 282h70l-131 -282h-121z" />
    <glyph glyph-name="quotedblright" unicode="&#x201d;" horiz-adv-x="464" 
d="M84 416l132 281h120l-182 -281h-70zM268 416l132 281h120l-182 -281h-70z" />
    <glyph glyph-name="quotedblbase" unicode="&#x201e;" horiz-adv-x="474" 
d="M-26 -151l132 281h120l-182 -281h-70zM167 -151l132 281h120l-183 -281h-69z" />
    <glyph glyph-name="dagger" unicode="&#x2020;" horiz-adv-x="388" 
d="M79 -101l100 512h-113l18 94h113l38 192h93l-37 -192h114l-18 -94h-114l-101 -512h-93z" />
    <glyph glyph-name="daggerdbl" unicode="&#x2021;" horiz-adv-x="435" 
d="M103 -101l37 192h-113l18 94h113l45 226h-113l18 94h113l38 192h93l-37 -192h113l-18 -94h-113l-45 -226h113l-18 -94h-113l-38 -192h-93z" />
    <glyph glyph-name="bullet" unicode="&#x2022;" horiz-adv-x="384" 
d="M172 120q-50 0 -79 36.5t-19 88.5q9 45 47.5 77.5t86.5 32.5q50 0 78.5 -37.5t18.5 -89.5q-8 -44 -47.5 -76t-85.5 -32z" />
    <glyph glyph-name="uni2023" unicode="&#x2023;" horiz-adv-x="443" 
d="M73 80l69 358l273 -179z" />
    <glyph glyph-name="twodotenleader" unicode="&#x2025;" horiz-adv-x="515" 
d="M55 0l24 123h104l-24 -123h-104zM259 0l24 123h104l-24 -123h-104z" />
    <glyph glyph-name="ellipsis" unicode="&#x2026;" horiz-adv-x="719" 
d="M55 0l24 123h104l-24 -123h-104zM259 0l24 123h104l-24 -123h-104zM463 0l24 123h104l-24 -123h-104z" />
    <glyph glyph-name="perthousand" unicode="&#x2030;" horiz-adv-x="1085" 
d="M225 386q-60 0 -92.5 35t-32.5 92q0 80 49.5 136t124.5 56q58 0 91.5 -35.5t33.5 -92.5q0 -78 -50.5 -134.5t-123.5 -56.5zM81 0l547 697h76l-548 -697h-75zM235 456q38 0 65.5 32.5t27.5 75.5q0 31 -18 51t-47 20q-38 0 -65.5 -32t-27.5 -76q0 -31 17 -51t48 -20z
M510 -9q-60 0 -92.5 35t-32.5 92q0 80 49.5 136t124.5 56q58 0 91.5 -35.5t33.5 -92.5q0 -77 -50.5 -134t-123.5 -57zM851 -9q-60 0 -92.5 35t-32.5 92q0 80 49.5 136t124.5 56q58 0 92 -35.5t34 -92.5q0 -78 -51 -134.5t-124 -56.5zM520 61q38 0 65.5 32.5t27.5 75.5
q0 31 -18 51t-47 20q-38 0 -65.5 -32.5t-27.5 -76.5q0 -31 17 -50.5t48 -19.5zM861 61q38 0 65.5 32.5t27.5 75.5q0 31 -17.5 51t-47.5 20q-38 0 -65 -32.5t-27 -76.5q0 -31 17 -50.5t47 -19.5z" />
    <glyph glyph-name="uni2031" unicode="&#x2031;" horiz-adv-x="1426" 
d="M225 386q-60 0 -92.5 35t-32.5 92q0 80 49.5 136t124.5 56q58 0 91.5 -35.5t33.5 -92.5q0 -78 -50.5 -134.5t-123.5 -56.5zM81 0l547 697h76l-547 -697h-76zM235 456q38 0 65.5 32.5t27.5 75.5q0 31 -18 51t-47 20q-38 0 -65.5 -32t-27.5 -76q0 -31 17 -51t48 -20z
M510 -9q-60 0 -92.5 35t-32.5 92q0 80 49.5 136t124.5 56q58 0 91.5 -35.5t33.5 -92.5q0 -77 -50.5 -134t-123.5 -57zM851 -9q-60 0 -92.5 35t-32.5 92q0 80 49.5 136t124.5 56q58 0 92 -35.5t34 -92.5q0 -78 -51 -134.5t-124 -56.5zM1193 -9q-61 0 -93.5 35t-32.5 92
q0 80 50 136t125 56q58 0 91.5 -35.5t33.5 -92.5q0 -78 -50.5 -134.5t-123.5 -56.5zM520 61q38 0 65.5 32.5t27.5 75.5q0 31 -18 51t-47 20q-38 0 -65.5 -32.5t-27.5 -76.5q0 -31 17 -50.5t48 -19.5zM861 61q38 0 65.5 32.5t27.5 75.5q0 31 -17.5 51t-47.5 20
q-38 0 -65 -32.5t-27 -76.5q0 -31 17 -50.5t47 -19.5zM1203 61q37 0 64.5 32.5t27.5 75.5q0 31 -17.5 51t-46.5 20q-38 0 -65.5 -32.5t-27.5 -76.5q0 -31 17 -50.5t48 -19.5z" />
    <glyph glyph-name="guilsinglleft" unicode="&#x2039;" horiz-adv-x="291" 
d="M187 79l-173 173l239 173l-16 -90l-118 -83l84 -83z" />
    <glyph glyph-name="guilsinglright" unicode="&#x203a;" horiz-adv-x="292" 
d="M38 79l16 90l118 83l-84 83l16 90l173 -173z" />
    <glyph glyph-name="fraction" unicode="&#x2044;" horiz-adv-x="155" 
d="M-165 0l411 697h73l-411 -697h-73z" />
    <glyph glyph-name="Euro" unicode="&#x20ac;" horiz-adv-x="725" 
d="M405 93q109 0 180 68l70 -74q-107 -96 -260 -96q-130 0 -199 69t-75 183h-64l14 70h52q5 44 15 82h-50l14 69h60q49 111 144.5 177t219.5 66q125 0 195 -65l-70 -83q-46 46 -135 46q-78 0 -139 -38t-99 -103h287l-15 -69h-303q-13 -41 -17 -82h304l-15 -70h-290
q6 -70 49 -110t127 -40z" />
    <glyph glyph-name="uni20B1" unicode="&#x20b1;" horiz-adv-x="668" 
d="M682 521l-11 -49h-46q-21 -82 -90.5 -130t-175.5 -48h-114l-57 -294h-107l92 472h-60l9 49h61l34 176h216q202 0 202 -156q0 -13 -1 -20h48zM304 597l-15 -76h239v7q0 69 -111 69h-113zM373 394q111 0 143 78h-237l-15 -78h109z" />
    <glyph glyph-name="uni20B3" unicode="&#x20b3;" horiz-adv-x="774" 
d="M27 0l82 141h-60l14 69h87l47 80h-117l14 69h144l197 338h83l65 -338h141l-15 -69h-112l16 -80h81l-15 -69h-52l27 -141h-112l-25 141h-285l-80 -141h-125zM356 359h121l-28 165zM271 210h233l-14 80h-174z" />
    <glyph glyph-name="uni20B4" unicode="&#x20b4;" horiz-adv-x="718" 
d="M95 387l13 69h344q62 37 62 90q0 31 -22.5 48t-58.5 17q-84 0 -142 -82l-80 62q87 115 226 115q78 0 129 -43t51 -105q0 -56 -40 -102h120l-15 -69h-587zM305 -8q-88 0 -143.5 45t-55.5 113q0 57 32 102h-74l13 69h589l-15 -69h-400q-41 -38 -41 -83q0 -35 28 -58t77 -23
q57 0 105.5 31t71.5 87l98 -37q-38 -86 -116.5 -131.5t-168.5 -45.5z" />
    <glyph glyph-name="uni20B8" unicode="&#x20b8;" horiz-adv-x="684" 
d="M133 609l18 88h558l-17 -88h-559zM241 0l86 441h-226l17 88h559l-18 -88h-225l-86 -441h-107z" />
    <glyph glyph-name="uni20BD" unicode="&#x20bd;" horiz-adv-x="664" 
d="M111 0l27 137h-89l17 84h88l16 81h-89l18 92h89l59 303h207q95 0 151.5 -44.5t56.5 -122.5q0 -27 -4 -44q-17 -90 -91 -137t-185 -47h-106l-15 -81h162l-16 -84h-163l-26 -137h-107zM294 394h101q140 0 159 107q3 12 3 23q0 73 -117 73h-106z" />
    <glyph glyph-name="uni2116" unicode="&#x2116;" horiz-adv-x="1205" 
d="M618 697h103l-136 -697h-107l-208 523l-102 -523h-103l136 697h107l209 -521zM921 161q-78 0 -124.5 49.5t-46.5 124.5q0 101 72.5 175.5t172.5 74.5q79 0 126 -48.5t47 -123.5q0 -101 -72.5 -176.5t-174.5 -75.5zM990 511q-67 0 -110.5 -55.5t-43.5 -126.5
q0 -43 22.5 -68.5t68.5 -25.5q66 0 110.5 56t44.5 127q0 42 -23.5 67.5t-68.5 25.5zM684 0l15 78h396l-16 -78h-395z" />
    <glyph glyph-name="trademark" unicode="&#x2122;" horiz-adv-x="745" 
d="M177 432l40 205h-74l12 60h212l-13 -60h-72l-40 -205h-65zM369 432l52 265h105l13 -166l77 166h105l-52 -265h-65l39 198l-100 -192h-41l-29 192l-39 -198h-65z" />
    <glyph glyph-name="uni2126" unicode="&#x2126;" horiz-adv-x="820" 
d="M765 419q0 -100 -53 -191.5t-138 -144.5h144l-17 -83h-280l16 91q111 41 175 129t64 199q0 84 -50.5 132.5t-141.5 48.5q-128 0 -212.5 -94t-84.5 -225t132 -194l-15 -87h-280l17 83h156q-46 37 -72 95t-26 124q0 154 118 269.5t275 115.5q125 0 199 -74.5t74 -193.5z
" />
    <glyph glyph-name="arrowleft" unicode="&#x2190;" horiz-adv-x="1097" 
d="M1115 338l-15 -77h-847l303 -190l-47 -62l-471 293l558 292l22 -80l-350 -177z" />
    <glyph glyph-name="arrowright" unicode="&#x2192;" horiz-adv-x="1097" 
d="M609 590l470 -293l-557 -292l-22 80l350 177l-847 -1l15 77h847l-303 190z" />
    <glyph glyph-name="partialdiff" unicode="&#x2202;" horiz-adv-x="640" 
d="M235 -6q-90 0 -140 48.5t-50 129.5q0 129 97.5 227.5t221.5 98.5q86 0 135 -69q13 45 13 85q0 55 -29.5 85t-85.5 30q-96 0 -148 -88l-72 31q38 64 99 98.5t136 34.5q98 0 146 -59.5t48 -164.5q0 -124 -44.5 -234t-131 -181.5t-195.5 -71.5zM248 83q88 0 159 72.5
t71 156.5q0 45 -26.5 73.5t-81.5 28.5q-97 0 -163 -74.5t-66 -159.5q0 -47 30 -72t77 -25z" />
    <glyph glyph-name="uni2206" unicode="&#x2206;" horiz-adv-x="644" 
d="M-18 0l414 697h27l143 -697h-584zM128 87h330l-81 432z" />
    <glyph glyph-name="product" unicode="&#x220f;" horiz-adv-x="658" 
d="M73 0l119 610h-44l17 87h505l-17 -87h-45l-119 -610h-87l119 610h-242l-119 -610h-87z" />
    <glyph glyph-name="summation" unicode="&#x2211;" horiz-adv-x="636" 
d="M667 697l-20 -98h-361l200 -251l-295 -250h359l-19 -98h-533l9 52l339 296l-222 297l10 52h533z" />
    <glyph glyph-name="minus" unicode="&#x2212;" horiz-adv-x="611" 
d="M114 268l16 86h392l-16 -86h-392z" />
    <glyph glyph-name="radical" unicode="&#x221a;" horiz-adv-x="600" 
d="M179 -103l-64 373h-78l17 86h139l32 -236l340 577h94z" />
    <glyph glyph-name="infinity" unicode="&#x221e;" horiz-adv-x="946" 
d="M258 175q-78 0 -122 41.5t-44 109.5q0 95 65.5 159t163.5 64q55 0 104 -32t80 -85q113 117 229 117q77 0 120.5 -41.5t43.5 -109.5q0 -96 -65.5 -159.5t-161.5 -63.5q-56 0 -105 31t-82 85q-110 -116 -226 -116zM278 259q36 0 83 28.5t88 81.5q-20 47 -54 71.5t-68 24.5
q-61 0 -102 -38.5t-41 -94.5q0 -35 24.5 -54t69.5 -19zM664 259q60 0 101.5 39t41.5 93q0 35 -25 54.5t-69 19.5q-37 0 -84 -29t-90 -81q22 -46 56 -71t69 -25z" />
    <glyph glyph-name="integral" unicode="&#x222b;" horiz-adv-x="457" 
d="M-61 -228l12 87q89 0 129.5 35t54.5 107l110 563q13 65 61.5 106.5t107.5 41.5q60 0 104 -44l-64 -61q-20 18 -47 18q-26 0 -49 -19.5t-29 -52.5l-108 -563q-21 -107 -95 -162.5t-187 -55.5z" />
    <glyph glyph-name="approxequal" unicode="&#x2248;" horiz-adv-x="608" 
d="M415 349q-40 0 -64 18.5t-31.5 40t-21.5 40t-36 18.5q-25 0 -45 -25t-29 -64h-76q13 74 54.5 116t99.5 42q33 0 55 -12t32.5 -29t18.5 -34t19 -29t28 -12q24 0 46.5 29.5t31.5 71.5h77q-15 -78 -58 -124.5t-101 -46.5zM370 112q-40 0 -64 18.5t-31.5 40t-22 40
t-36.5 18.5q-25 0 -45 -25.5t-28 -64.5h-78q15 75 56.5 117.5t98.5 42.5q41 0 66 -18.5t32.5 -40t21 -40t33.5 -18.5q25 0 47 29.5t30 71.5h78q-15 -79 -58 -125t-100 -46z" />
    <glyph glyph-name="notequal" unicode="&#x2260;" horiz-adv-x="614" 
d="M15 0l142 183h-89l16 86h142l98 126h-216l17 86h269l169 216h74l-169 -216h110l-17 -86h-161l-99 -126h236l-17 -86h-287l-143 -183h-75z" />
    <glyph glyph-name="lessequal" unicode="&#x2264;" horiz-adv-x="663" 
d="M531 89l-466 297l578 298l27 -68l-446 -230l357 -229zM-1 -78l16 78h541l-16 -78h-541z" />
    <glyph glyph-name="greaterequal" unicode="&#x2265;" horiz-adv-x="663" 
d="M74 89l-27 68l447 229l-358 230l50 68l466 -298zM-5 -78l16 78h541l-15 -78h-542z" />
    <glyph glyph-name="lozenge" unicode="&#x25ca;" horiz-adv-x="589" 
d="M178 0l-120 348l254 349h140l120 -349l-255 -348h-139zM250 55h13l206 293l-90 294h-13l-207 -294z" />
    <glyph glyph-name="uniF8FF" unicode="&#xf8ff;" horiz-adv-x="890" 
d="M465 -30q-158 0 -270 111.5t-112 270.5q0 158 112 269.5t270 111.5t270 -111.5t112 -269.5q0 -159 -112 -270.5t-270 -111.5zM465 5q144 0 245.5 101.5t101.5 245.5q0 143 -101.5 244.5t-245.5 101.5t-245 -101.5t-101 -244.5q0 -144 101 -245.5t245 -101.5zM266 202
q-7 0 -12 5t-5 12v265q0 7 5 12.5t12 5.5q8 0 13 -5t5 -13v-265q0 -17 -18 -17zM465 202q-17 0 -17 17v265q0 18 17 18t17 -18v-265q0 -17 -17 -17zM663 202q-7 0 -11 5l-133 132q-4 5 -4 13t4 12l133 132q4 6 11 6t12.5 -5.5t5.5 -12.5t-5 -12l-120 -120l120 -121
q5 -5 5 -12t-5.5 -12t-12.5 -5zM333 334q-17 0 -17 18q0 17 17 17h66q18 0 18 -17q0 -18 -18 -18h-66z" />
    <glyph glyph-name="i.loclTRK" horiz-adv-x="253" 
d="M139 589l22 108h108l-22 -108h-108zM27 0l96 493h103l-96 -493h-103z" />
    <glyph glyph-name="g.ss01" horiz-adv-x="576" 
d="M188 -215q-148 0 -203 115l87 49q11 -33 42.5 -53.5t80.5 -20.5q127 0 159 148l10 50q-59 -62 -154 -62q-88 0 -134.5 54t-46.5 140q0 117 76.5 207t185.5 90q98 0 141 -69l12 60h104l-92 -475q-23 -115 -93 -174t-175 -59zM238 106q71 0 120.5 54t52.5 127
q3 55 -23.5 88.5t-80.5 33.5q-74 0 -124 -58.5t-50 -132.5q0 -50 26 -81t79 -31z" />
    <glyph glyph-name="gbreve.ss01" horiz-adv-x="576" 
d="M342 565q-77 0 -111 35t-22 97h73q-7 -37 13.5 -54t57.5 -17q76 0 91 71h73q-13 -69 -56.5 -100.5t-118.5 -31.5zM188 -215q-148 0 -203 115l87 49q11 -33 42.5 -53.5t80.5 -20.5q127 0 159 148l10 50q-59 -62 -154 -62q-88 0 -134.5 54t-46.5 140q0 117 76.5 207
t185.5 90q98 0 141 -69l12 60h104l-92 -475q-23 -115 -93 -174t-175 -59zM238 106q71 0 120.5 54t52.5 127q3 55 -23.5 88.5t-80.5 33.5q-74 0 -124 -58.5t-50 -132.5q0 -50 26 -81t79 -31z" />
    <glyph glyph-name="uni0123.ss01" horiz-adv-x="576" 
d="M254 553l150 152h63l-104 -152h-109zM188 -215q-148 0 -203 115l87 49q11 -33 42.5 -53.5t80.5 -20.5q127 0 159 148l10 50q-59 -62 -154 -62q-88 0 -134.5 54t-46.5 140q0 117 76.5 207t185.5 90q98 0 141 -69l12 60h104l-92 -475q-23 -115 -93 -174t-175 -59zM238 106
q71 0 120.5 54t52.5 127q3 55 -23.5 88.5t-80.5 33.5q-74 0 -124 -58.5t-50 -132.5q0 -50 26 -81t79 -31z" />
    <glyph glyph-name="gdotaccent.ss01" horiz-adv-x="576" 
d="M299 589l22 108h108l-22 -108h-108zM188 -215q-148 0 -203 115l87 49q11 -33 42.5 -53.5t80.5 -20.5q127 0 159 148l10 50q-59 -62 -154 -62q-88 0 -134.5 54t-46.5 140q0 117 76.5 207t185.5 90q98 0 141 -69l12 60h104l-92 -475q-23 -115 -93 -174t-175 -59zM238 106
q71 0 120.5 54t52.5 127q3 55 -23.5 88.5t-80.5 33.5q-74 0 -124 -58.5t-50 -132.5q0 -50 26 -81t79 -31z" />
    <glyph glyph-name="g.ss02" horiz-adv-x="525" 
d="M149 171q-38 -22 -38 -55q0 -13 7 -21t23.5 -11t26.5 -3.5t32 -0.5h98q59 0 99 -29t40 -85q0 -88 -70 -134.5t-184 -46.5q-98 0 -156 35t-58 98q0 34 15 64l77 34q-47 34 -47 86q0 79 83 125q-16 32 -16 69q0 87 67 146.5t161 59.5q70 0 114 -36l89 67l40 -66l-86 -62
q9 -24 9 -53q0 -88 -66.5 -147t-159.5 -59q-58 0 -100 25zM304 420q-50 0 -86 -38t-36 -87q0 -30 19.5 -48t55.5 -18q50 0 84.5 37.5t34.5 86.5q0 31 -18.5 49t-53.5 18zM262 -6h-137l-57 -44q-3 -14 -3 -23q0 -61 124 -61q65 0 107 22.5t42 67.5q0 38 -76 38z" />
    <glyph glyph-name="gbreve.ss02" horiz-adv-x="525" 
d="M319 565q-77 0 -111 35t-22 97h73q-7 -37 13.5 -54t57.5 -17q76 0 91 71h73q-13 -69 -56.5 -100.5t-118.5 -31.5zM149 171q-38 -22 -38 -55q0 -13 7 -21t23.5 -11t26.5 -3.5t32 -0.5h98q59 0 99 -29t40 -85q0 -88 -70 -134.5t-184 -46.5q-98 0 -156 35t-58 98q0 34 15 64
l77 34q-47 34 -47 86q0 79 83 125q-16 32 -16 69q0 87 67 146.5t161 59.5q70 0 114 -36l89 67l40 -66l-86 -62q9 -24 9 -53q0 -88 -66.5 -147t-159.5 -59q-58 0 -100 25zM304 420q-50 0 -86 -38t-36 -87q0 -30 19.5 -48t55.5 -18q50 0 84.5 37.5t34.5 86.5q0 31 -18.5 49
t-53.5 18zM262 -6h-137l-57 -44q-3 -14 -3 -23q0 -61 124 -61q65 0 107 22.5t42 67.5q0 38 -76 38z" />
    <glyph glyph-name="uni0123.ss02" horiz-adv-x="525" 
d="M444 705l-104 -152h-109l150 152h63zM149 171q-38 -22 -38 -55q0 -13 7 -21t23.5 -11t26.5 -3.5t32 -0.5h98q59 0 99 -29t40 -85q0 -88 -70 -134.5t-184 -46.5q-98 0 -156 35t-58 98q0 34 15 64l77 34q-47 34 -47 86q0 79 83 125q-16 32 -16 69q0 87 67 146.5t161 59.5
q70 0 114 -36l89 67l40 -66l-86 -62q9 -24 9 -53q0 -88 -66.5 -147t-159.5 -59q-58 0 -100 25zM304 420q-50 0 -86 -38t-36 -87q0 -30 19.5 -48t55.5 -18q50 0 84.5 37.5t34.5 86.5q0 31 -18.5 49t-53.5 18zM262 -6h-137l-57 -44q-3 -14 -3 -23q0 -61 124 -61q65 0 107 22.5
t42 67.5q0 38 -76 38z" />
    <glyph glyph-name="gdotaccent.ss02" horiz-adv-x="525" 
d="M406 697l-22 -108h-108l22 108h108zM149 171q-38 -22 -38 -55q0 -13 7 -21t23.5 -11t26.5 -3.5t32 -0.5h98q59 0 99 -29t40 -85q0 -88 -70 -134.5t-184 -46.5q-98 0 -156 35t-58 98q0 34 15 64l77 34q-47 34 -47 86q0 79 83 125q-16 32 -16 69q0 87 67 146.5t161 59.5
q70 0 114 -36l89 67l40 -66l-86 -62q9 -24 9 -53q0 -88 -66.5 -147t-159.5 -59q-58 0 -100 25zM304 420q-50 0 -86 -38t-36 -87q0 -30 19.5 -48t55.5 -18q50 0 84.5 37.5t34.5 86.5q0 31 -18.5 49t-53.5 18zM262 -6h-137l-57 -44q-3 -14 -3 -23q0 -61 124 -61q65 0 107 22.5
t42 67.5q0 38 -76 38z" />
    <glyph glyph-name="T_h" horiz-adv-x="1041" 
d="M192 0l116 598h-226l20 99h641l-53 -267q62 72 155 72q90 0 125.5 -60t19.5 -145l-58 -297h-105l57 290q11 57 -4 88t-68 31q-58 0 -100 -43.5t-55 -110.5l-50 -255h-105l116 598h-202l-116 -598h-108z" />
    <glyph glyph-name="zero.lf" horiz-adv-x="571" 
d="M245 -9q-242 0 -169 365q10 52 22.5 94.5t36 92.5t53 84t76.5 57t104 23q54 0 92 -21t58 -55.5t27.5 -83t4.5 -99.5t-14 -109q-14 -70 -36 -128.5t-56 -110t-85 -80.5t-114 -29zM252 89q32 0 58.5 16t44 40t32.5 61.5t24 71.5t18 79q11 56 15 94.5t0 78t-25 59.5t-60 20
q-34 0 -61.5 -16t-45.5 -40t-33 -62t-23.5 -71.5t-17.5 -79.5q-7 -36 -10.5 -61t-6 -57t1.5 -53.5t13.5 -41t28.5 -29t47 -9.5z" />
    <glyph glyph-name="one.lf" horiz-adv-x="373" 
d="M270 697h99l-135 -697h-103l97 505h-165l15 82h98q74 0 86 67z" />
    <glyph glyph-name="two.lf" horiz-adv-x="559" 
d="M544 530q0 -63 -32.5 -129t-86 -121.5t-114 -101.5t-126.5 -81h309l-19 -97h-486l16 89q437 238 437 427q0 90 -97 90q-126 0 -161 -161l-99 16q21 105 91.5 174.5t177.5 69.5q85 0 137.5 -46.5t52.5 -128.5z" />
    <glyph glyph-name="three.lf" horiz-adv-x="575" 
d="M247 -9q-104 0 -167 50t-63 132q0 22 5 47l101 -2q-2 -8 -2 -26q0 -49 37.5 -76t97.5 -27q75 0 124 39.5t49 100.5q0 30 -13.5 50t-39 29t-51 12.5t-58.5 3.5l12 83q77 -1 123 29.5t46 87.5q0 43 -28 63.5t-71 20.5q-55 0 -91.5 -31t-47.5 -84l-99 15q18 93 86 145.5
t158 52.5q83 0 140 -44.5t57 -119.5q0 -60 -36.5 -105t-99.5 -67q52 -18 82.5 -54.5t30.5 -86.5q0 -107 -81.5 -172.5t-200.5 -65.5z" />
    <glyph glyph-name="four.lf" horiz-adv-x="577" 
d="M454 263h111l-19 -98h-112l-31 -165h-103l31 165h-333l11 63l436 469h93zM351 263l53 273l-248 -273h195z" />
    <glyph glyph-name="five.lf" horiz-adv-x="578" 
d="M573 598h-295l-59 -158q58 35 123 35q89 0 142.5 -55t53.5 -139q0 -114 -90.5 -202t-207.5 -88q-97 0 -155 61t-55 150l102 9q-2 -52 28 -87t89 -35q75 0 128.5 58.5t53.5 131.5q0 44 -28.5 72t-83.5 28q-84 0 -148 -75l-95 28l136 365h380z" />
    <glyph glyph-name="six.lf" horiz-adv-x="550" 
d="M313 462q97 0 154 -53.5t57 -141.5q0 -109 -89.5 -192.5t-203.5 -83.5q-91 0 -151 57.5t-60 142.5q0 89 66 170l275 336h124l-202 -239q13 4 30 4zM241 89q68 0 123.5 53.5t55.5 119.5q0 47 -32 77.5t-83 30.5q-69 0 -124 -53.5t-55 -119.5q0 -47 32 -77.5t83 -30.5z" />
    <glyph glyph-name="seven.lf" horiz-adv-x="530" 
d="M102 697h502l-10 -57l-444 -640h-120l423 598h-370z" />
    <glyph glyph-name="eight.lf" horiz-adv-x="583" 
d="M248 -9q-95 0 -157 45.5t-62 131.5q0 69 40.5 127.5t108.5 87.5q-51 39 -51 112q0 90 74.5 150.5t173.5 60.5q81 0 134 -42.5t53 -114.5q0 -53 -29 -99t-77 -75q80 -38 80 -138q0 -106 -83 -176t-205 -70zM321 408q55 0 95.5 37.5t40.5 85.5q0 36 -25 56.5t-68 20.5
q-57 0 -96.5 -34t-39.5 -83q0 -38 25 -60.5t68 -22.5zM257 89q73 0 125.5 42t52.5 103q0 47 -34 75.5t-89 28.5q-72 0 -125.5 -45.5t-53.5 -105.5q0 -46 34.5 -72t89.5 -26z" />
    <glyph glyph-name="nine.lf" horiz-adv-x="549" 
d="M358 706q91 0 151 -57.5t60 -142.5q0 -89 -66 -170l-275 -336h-124l202 239q-13 -4 -30 -4q-97 0 -154 53.5t-57 141.5q0 109 89.5 192.5t203.5 83.5zM284 327q69 0 124 53.5t55 119.5q0 47 -32 77.5t-83 30.5q-68 0 -123.5 -53.5t-55.5 -119.5q0 -47 32 -77.5t83 -30.5z
" />
    <glyph glyph-name="notequal.001" horiz-adv-x="584" 
d="M0 0l143 183h-64l16 86h117l98 126h-191l17 86h244l168 216h75l-169 -216h85l-18 -86h-135l-99 -126h210l-16 -86h-262l-144 -183h-75z" />
    <glyph glyph-name="uni030C.alt" 
d="M-147 478l100 219h110l-147 -219h-63z" />
    <glyph glyph-name="uni030A.case" 
d="M-95 531q-42 0 -67.5 26.5t-25.5 68.5q0 51 37 86.5t88 35.5q41 0 67 -26t26 -69q0 -52 -37 -87t-88 -35zM-86 586q26 0 43.5 17t17.5 44q0 22 -13 34t-34 12q-26 0 -43.5 -17.5t-17.5 -43.5q0 -21 12.5 -33.5t34.5 -12.5z" />
    <glyph glyph-name="uni0337.case" 
d="M-333 144l19 107l339 232l-19 -105z" />
    <glyph glyph-name="uni0338.case" 
d="M-588 0l605 697h85l-605 -697h-85z" />
    <glyph glyph-name="uni03060301" 
d="M-138 759l138 142h112l-172 -142h-78zM-143 565q-77 0 -111 35t-22 97h72q-6 -37 14.5 -54t57.5 -17q76 0 91 71h73q-13 -69 -56.5 -100.5t-118.5 -31.5z" />
    <glyph glyph-name="uni03060300" 
d="M-98 759l-172 142h112l138 -142h-78zM-103 565q-77 0 -111 35t-22 97h72q-6 -37 14.5 -54t57.5 -17q76 0 91 71h73q-13 -69 -56.5 -100.5t-118.5 -31.5z" />
    <glyph glyph-name="uni03060309" 
d="M-87 735l-10 48q80 11 80 48q0 34 -71 34h-18l11 57h13q59 0 94.5 -22.5t35.5 -63.5q0 -22 -8.5 -38.5t-19.5 -26.5t-31.5 -17.5t-35.5 -11t-40 -7.5zM-121 565q-77 0 -111 35t-22 97h72q-6 -37 14.5 -54t57.5 -17q76 0 91 71h73q-13 -69 -56.5 -100.5t-118.5 -31.5z" />
    <glyph glyph-name="uni03060303" 
d="M-37 765q-28 0 -47 11.5t-27 26t-19 26t-24 11.5q-39 0 -55 -70h-60q12 66 44 100t78 34q25 0 43 -11.5t26.5 -26t20 -26t24.5 -11.5q17 0 32 20.5t21 51.5h63q-12 -67 -44 -101.5t-76 -34.5zM-152 565q-77 0 -111 35t-22 97h73q-7 -37 13.5 -54t57.5 -17q76 0 91 71h73
q-13 -69 -56.5 -100.5t-118.5 -31.5z" />
    <glyph glyph-name="uni03020301" 
d="M-123 771l138 142h113l-173 -142h-78zM-288 543l190 169l117 -169h-76l-56 81l-89 -81h-86z" />
    <glyph glyph-name="uni03020300" 
d="M-76 771l-173 142h113l138 -142h-78zM-242 543l190 169l118 -169h-76l-57 81l-89 -81h-86z" />
    <glyph glyph-name="uni03020309" 
d="M-68 747l-10 48q80 11 80 48q0 34 -71 34h-18l12 57h12q59 0 94.5 -22.5t35.5 -63.5q0 -22 -8.5 -38.5t-19.5 -26.5t-31.5 -17.5t-35.5 -11t-40 -7.5zM-262 543l190 169l117 -169h-76l-56 81l-89 -81h-86z" />
    <glyph glyph-name="uni03020303" 
d="M-15 777q-28 0 -47.5 11.5t-27.5 26t-19 26t-24 11.5q-19 0 -33.5 -19.5t-20.5 -50.5h-60q12 66 44 100t78 34q25 0 43 -11.5t26.5 -26t19.5 -26t24 -11.5q17 0 32 20.5t21 51.5h63q-13 -67 -44 -101.5t-75 -34.5zM-290 543l190 169l117 -169h-76l-56 81l-89 -81h-86z
" />
    </font>
</defs>
</svg>
